<?xml version="1.0" standalone="no"?>
<!DOCTYPE svg PUBLIC "-//W3C//DTD SVG 1.1//EN" "http://www.w3.org/Graphics/SVG/1.1/DTD/svg11.dtd" >
<svg>
<metadata>
Created by FontForge 20090914 at Thu Feb 23 21:56:41 2012
 By root
Generated by Fontographer 4.0.4D2
</metadata>
<defs>
<font id="JungleFever" horiz-adv-x="613" >
  <font-face 
    font-family="Jungle Fever"
    font-weight="400"
    font-stretch="normal"
    units-per-em="1000"
    panose-1="0 0 4 0 0 0 0 0 0 0"
    ascent="800"
    descent="-200"
    x-height="639"
    cap-height="800"
    bbox="9 -160 981 809"
    underline-thickness="20"
    underline-position="-123"
    unicode-range="U+0020-U+2022"
  />
<missing-glyph horiz-adv-x="500" 
d="M63 0v800h375v-800h-375zM125 63h250v675h-250v-675z" />
    <glyph glyph-name=".notdef" horiz-adv-x="500" 
d="M63 0v800h375v-800h-375zM125 63h250v675h-250v-675z" />
    <glyph glyph-name=".null" horiz-adv-x="0" 
 />
    <glyph glyph-name="nonmarkingreturn" horiz-adv-x="350" 
 />
    <glyph glyph-name="space" unicode=" " horiz-adv-x="350" 
 />
    <glyph glyph-name="exclam" unicode="!" horiz-adv-x="355" 
d="M324 753l3 8q1 -22 -9 -98q-10 -71 -8 -80q3 9 10 26q0 -23 -8 -68h-8q1 -28 -18 -103.5t-19 -90.5q0 -10 4 -11l-19 -55v11q-8 -15 -37 -8q-1 -3 -4 -8q-4 -8 -6 -10q-1 2 -3 4l-12 -8q-34 4 -34 2q-26 10 -52 19q-38 16 -38 34q0 4 2 8q9 19 8 22l-9 -11q3 15 7 47
l2 -14q7 9 10 28.5t9 27.5q23 -1 43 0q-28 5 -31.5 22.5t-5.5 33.5l-5 -19q-2 14 -1 35l3 34q-1 -16 4 -26q5 11 6 30q3 22 -2 29q8 46 9 95l3 -11q3 10 6 30q15 1 43 6q-15 2 -40 16q-6 -2 -7 3v10q-1 5 -5 4v11q7 -4 7 13v24q0 4 2 5q-9 3 -1 8q3 2 9 2q5 0 15.5 -2.5
t14.5 -2.5q9 0 9 11q0 7 3 14q31 -4 80 -17q62 -16 70 -30zM185 784q0 -1 2 -59q43 -2 70 -20q-6 -16 -69 -22q-3 -11 0 -33q-3 -14 -15.5 -94t-12.5 -86l67 -14q9 -8 -3 -20q-22 2 -65 1q-7 -37 -19 -112q32 -14 100 -33q1 2 9 27q-3 -6 -4 -7v2q0 5 9 41l5 4q1 17 15 74
q13 54 13 91q0 42 9 113q10 80 11 115q-9 1 -26 1l-25 14q1 1 5 1q5 0 18 -2q-16 6 -47 10q-34 5 -47 8zM204 614q-4 -35 -14 -78q-2 -3 -3 -3t-1.5 5.5t-1.5 6.5q4 38 11 114l6 5q-2 -20 -2 -17q0 -2 9 7q1 -4 -4.5 -18.5t-5.5 -17.5q0 -5 6 -4zM181 502q-2 10 3 20
q4 -7 -3 -20zM251 372q1 -20 -7 -44.5t-13 -22.5l-38 14q21 8 33 -3q7 12 14.5 39t15.5 39q1 -13 -5 -22zM254 217q12 2 29 -5l26 -12q1 -1 5.5 -3t4.5 -5q0 -2 -1 -4l8 -5q-4 -25 -15 -45q-5 2 -9 -10q3 -1 3 -4q0 -12 -31 -50t-54 -57q-5 -4 -19.5 -4.5t-19.5 -7.5
q-5 1 -9.5 -2t-5.5 -3q-5 -1 -11 -1q-21 0 -56 12q-31 12 -48 23q-21 14 -21 62q0 40 12 48q8 5 24 11q13 4 13 6t-21 3l3 3q0 2 -4 4t-4 4q0 1 1 3q43 58 110 58q13 0 25 -2q17 -2 35.5 -5.5t29.5 -11.5zM208 222q-35 -16 -63 -48q8 -2 22 -12q-4 -8 -13 -8q-4 0 -13 2
t-13 1q-1 -7 -7 -8q-1 -19 -17.5 -39t-16.5 -27q0 -18 55 -44q19 -6 58 -20q33 25 69 76q40 58 40 91q-38 28 -101 36zM296 186q-12 5 -35 18q13 -3 35 -18zM307 181q0 -3 -22 -53q4 21 22 53zM176 138q4 8 15 18zM176 65q-25 17 -25 28q0 4 6.5 14.5t4.5 20.5q8 14 29 31
l2 -3q13 22 31 22q8 -3 19 -14q5 -19 -21.5 -56t-45.5 -43zM202 152q-5 -7 -16 -19q-9 -15 -24 -49q19 7 21 25q0 10 8.5 23t10.5 20zM227 50q-6 -11 -25 -23q6 11 25 23z" />
    <glyph glyph-name="quotedbl" unicode="&#x22;" horiz-adv-x="486" 
d="M331 567q2 6 5 12t3 4q0 -1 -1.5 -5.5t-6.5 -10.5zM116 554q2 6 4 19q3 -4 -4 -19zM218 616q-25 -39 -64 -150q-32 -92 -41 -90q-31 -2 -68 25q-3 -2 -5 -2q-5 0 -12 6.5t-10 7.5q-5 13 -5 26q0 17 12.5 51t12.5 53q10 5 10 45q9 4 32 12q15 5 15 9q0 7 -43 25
q6 35 13 71q8 42 23 69q13 2 43 -3q-1 7 9 7q16 0 55 -18q36 -18 42 -23t6 -13q0 -9 -14.5 -41.5t-14.5 -48.5q0 -10 4 -18zM195 749l-54 17q0 -2 -2 -38q-8 -3 -8 -18q0 -21 -1 -23q4 0 5 -17q7 8 6 8q1 0 2.5 -4.5t3.5 -3.5q-3 -4 -3 -7t7 -9.5t8 -9.5q-7 1 -18 -3
q2 -2 2 -7q0 -13 -7.5 -34t-14.5 -24q-2 13 4 35.5t6 31.5q-9 -43 -36 -128q2 -19 -4 -44q-7 -21 -13 -43q4 -4 25 -12q8 5 22 31q10 20 10 12q0 -4 -1 -12q9 7 9 27.5t3 27.5q23 43 41 106q23 78 33 101q2 8 2 13q0 12 -17 16t-18 9q3 1 8 2zM114 390q-1 4 3 11t4 11
q0 -8 -7 -22zM129 434q1 4 3 8v0v-2l-1 -3zM43 493l-5 -20zM440 632q1 -13 -14 -32.5t-13 -32.5l-55 -99h-2q-5 -9 -16 -41q-9 -25 -22 -37q-34 6 -38 8q-20 6 -35 23q-7 -4 -19 8t-9 20l-2 10q2 3 19.5 52t17.5 55q6 1 14 41q47 21 47 19q0 1 -10 7q-14 8 -27 21
q15 70 50 135q4 2 17 -4q17 -6 23 -6q10 0 14 7q41 -14 90 -52q-5 -63 -30 -102zM454 733q-8 -1 -16 6q-12 9 -15 10q2 1 5 2q-17 7 -48 23q-1 -3 -4 -22q-2 -15 -12 -17l-5 -37q6 -5 6 -6l-4 -10q13 -1 13 -2q-5 -5 -5 -9q0 -5 7.5 -10.5t7.5 -10.5q-6 1 -17 3q-2 -3 1 -4
q-6 -20 -20 -59l-7 -3q-1 14 5 34l10 33h-3l-22 -67q-13 -40 -28 -65q0 -16 -9 -39q-12 -30 -14 -39q4 -1 12.5 -8t13.5 -7q3 0 6 3q17 42 21 42q1 -1 1 -5q0 -7 -3 -26q3 12 17 32q-3 19 16 55l31 52q15 36 48 107q3 14 11 44zM313 403q0 9 9 21q-2 -7 -9 -21zM245 494
q2 6 8 18q-2 -6 -8 -18z" />
    <glyph glyph-name="numbersign" unicode="#" horiz-adv-x="795" 
d="M532 602q8 22 20 63q6 21 16 32q14 -1 14 -8q0 -6 -15 -29q-23 -35 -35 -58zM501 393q-2 4 10 31.5t17 33.5q0 24 -27 24q-2 0 -7 -1h-8q-16 0 -13 12q17 3 30 3q37 0 37 -27q0 -37 -39 -76zM364 384q4 0 21 44.5t41 44.5q6 -2 52 -1q38 2 38 -9q0 -4 -5 -11
q-29 -35 -32 -60q-2 -14 -10 -14q-1 0 -31 2q-34 3 -74 4zM405 423q-9 -14 -13 -27q-3 -4 5 -5q6 -1 21 0.5t20 1.5q9 -1 11 3q1 1 9 28q-21 11 -35 11q-10 0 -15 -4.5t-3 -7.5zM238 243q3 6 25.5 34.5t29.5 32.5q-18 -25 -31 -54q-8 -20 -13 -20q-3 0 -11 7zM508 202
q1 -9 -47 -73q-7 7 -7 11t14 18q22 20 40 44zM108 414q8 10 22 30q-16 -3 -16 6q0 15 43 57q39 39 50 43q71 0 88 7q35 13 69 71l16 -19q-5 20 -5 35q0 23 13 45q20 36 25 51l6 -22q5 -15 9 -15q6 0 13 23q22 -41 39 -145q-7 -9 -7 -14q0 -9 21 -9q10 0 38 3q1 13 14 30
l21 26l15 -22q0 3 -2.5 21t-2.5 29q0 27 15 32q1 7 10.5 27.5t13.5 21.5q4 -12 15 -35q7 21 12 21t10 -18q6 -23 9 -28q19 -42 23 -81q2 -27 10.5 -31t68.5 -4q-19 -24 -19 -22q0 -5 22 -10q-17 -2 -63 -49t-81 -47q-8 0 -16 2l-5 -13v0v0h2q-1 -3 -9 -22q9 -1 63 -2
q24 -1 24 -9q0 -6 -13 -21l23 -5q-4 -1 -13 -11.5t-9 -16.5q1 -2 2 -3q-37 -14 -71 -55q-28 -32 -71 -35q-5 8 -9 8q-6 0 -29 -36q-36 -57 -73 -103q-16 29 -17 29q-4 0 -10 -8q-8 49 -17 98q-4 22 -9 22q-1 0 -9.5 -2.5t-16.5 -2.5q-17 0 -37 8q-65 -107 -87 -130
q4 8 -9 12.5t-20 0.5q-1 53 -16.5 78t-15.5 33q0 10 4 26q-27 -18 -44 -18q-6 0 -8 3q-10 1 -29.5 -1.5t-29.5 -2.5q2 9 8.5 18.5t6.5 10.5q0 4 -18 2q76 92 111 104q37 2 74 5q16 5 19 62q-37 -28 -52 -28q-3 0 -13.5 1t-20.5 1q-23 0 -55 -7zM434 300q-16 -11 -16 -24v-6
v-7q0 -12 -9.5 -23.5t-9.5 -18.5q0 -3 3 -12t3 -17q13 -8 16 -10q5 -5 10 -16q9 6 22.5 27.5t22.5 29.5q0 -10 -12.5 -25t-12.5 -24q17 16 42 60l36 66q51 -1 67 4q13 4 27 22q21 26 46 47q-39 8 -78 4q8 -3 38 -5q22 -2 22 -8q0 -7 -31 -25q11 11 11 18q0 11 -25 11
q-26 0 -36 -8q6 8 5 13q-5 -1 -5 4q0 17 60 93q15 -3 23 -3q16 0 33 17l55 56q-11 0 -39 2q20 -4 20 -8q0 -3 -8 -10q-12 -11 -19 -19q-1 1 -3 22q-2 16 -20 16q-6 0 -15 -1q0 31 6.5 40.5l6.5 9.5q0 8 -29 92q-1 -1 -28 -61q17 -32 17 -47q0 -12 -11 -12q-12 0 -35 14
q-4 -23 -12 -29t-37 -6l-88 3q8 13 19 39q-8 43 -28 112q-28 -42 -28 -76q0 -14 5.5 -30t5.5 -20q0 -5 -2 -8q-23 13 -27 28q-31 -4 -42 -15l-28 -34q-31 -2 -92 -7q-14 -39 -27 -39q-5 0 -4 15q-14 -11 -53 -57q53 6 69 11q46 13 56 44q0 -30 6 -42q5 26 4 26l10 -4
q3 -27 -7 -64q-11 -43 -30 -48q-4 -3 -48.5 -6t-46.5 -1q-18 -32 -30 -32q-4 0 -4 8q-18 -18 -52 -57q68 -3 86 6q7 4 10 21.5t29 25.5q3 -3 3 -8q0 -3 -2.5 -10.5t-2.5 -10.5q0 -14 31 -20q-15 -22 -33 -55q5 -8 8 -33q3 -21 6 -21q2 0 7 12q8 -16 14 -16q7 0 18 21
q15 25 25 35l-21 -45l41 53q35 46 33 59q20 -6 54 -4q41 2 55 1zM440 157q-8 -10 -16 -14t-8 -6q0 -3 4 -12q7 5 11 16.5t9 15.5z" />
    <glyph glyph-name="dollar" unicode="$" horiz-adv-x="549" 
d="M341 543q-11 -11 -35 -31q19 23 48 63q9 -2 9 -6q0 -3 -10.5 -12t-11.5 -14zM254 403q-17 26 -48 79q18 -10 29 -36q18 -42 19 -43zM446 800q58 -33 76 -65q2 0 2 -2q0 -9 -24 -39.5t-34 -36t-10 -14.5t-6 -15q21 -35 40 -57q13 -15 13 -16t-10 -10q-13 -12 -26 -31l5 -2
l9 7q-14 -15 -64 -41l-6 10q-21 -12 -44 -32l24 -49q12 -6 12 -33q0 -42 -16 -77l2 -14q-16 -22 -25 -40q-5 -10 -7 -10q-1 1 -5 2q-36 -28 -31 -37q-34 -11 -65 -89q-37 -89 -56 -107q-3 0 -10 2t-10 2q-7 0 -11 -6q-29 6 -40 11q-16 6 -36 22q5 29 19 34q3 6 7 12h13
q-31 36 -85 113q11 5 26 22q-17 6 -17 10q0 3 10 3l-26 8q-1 6 -6.5 18.5t-5.5 19.5q0 5 3 10q17 10 46.5 40t52.5 43v-15q13 10 25 17q7 4 7 6q0 1 -4 12q10 16 -2 16q-5 0 -5 -7q-10 23 -32 61l10 -11l-6 28q5 5 17.5 10t17.5 10q-7 8 -13 8q-4 0 -5 -4q-3 4 -3 10
q0 16 21 43q17 22 32 34q-2 -7 4 -7q7 0 22 7q12 7 14 9l-20 11q3 25 40 53.5t61 22.5q28 20 52 52q22 -4 24 -4l1 1q0 -2 -9.5 7t-7.5 20q9 6 19 21q13 19 17 23q8 -2 15.5 -8t10.5 -6q5 0 13 14zM424 780l-13 -23q-8 -13 -8 -19q0 -5 12 -10t18 -15q0 -5 -10 -5q8 0 -40 7
q-32 -40 -37 -48l-3 7q-29 -19 -56 -44q22 -9 47 -11v-11q-25 -7 -74 -19q-21 -24 -43 -59l48 -5q-8 -16 -30 -24q-18 -6 -36 -13q4 -10 11 -32q7 -9 20 -34.5t22 -33.5q12 3 29 1q14 -1 29 -3q3 -3 3 -5q0 -4 -8 -9.5t-8 -9.5q-19 0 -28 -22q-10 -26 -19 -31l4 -17
q-35 -40 -45 -40q-7 0 -17 27q-14 42 -30 70q-14 -9 -33 -29q-22 -22 -32 -30l9 -29q32 0 69 -6q-11 -14 -48 -35q-1 -12 24.5 -47.5t32.5 -35.5l-9 -24q10 -1 39 -13q-7 -7 -17 -7q-8 0 -19 5q-4 1 -7 2l-22 -43q18 -9 57 -26l42 97q33 71 52 79q5 12 24.5 23.5t23.5 22.5
q18 35 47 105l-38 65v-13q-17 27 -40 70q-26 24 -11 24q4 0 13 -3l27 33q20 24 30 22q17 -18 50 -57q2 1 55 48q-9 21 -29 61q-10 0 -11 3q-7 15 -19 28q14 14 33.5 45t31.5 44l-17 13q-5 3 -4 3q0 1 12 1q-12 13 -54 35zM197 334q0 7 9.5 10.5t10.5 4.5q4 -5 2 -5
q4 -2 11 5q-4 -1 -16 1q-15 3 -18 3q-13 0 1 -19zM33 236q-1 1 -12 19q5 -6 12 -19z" />
    <glyph glyph-name="percent" unicode="%" horiz-adv-x="671" 
d="M251 744q12 2 29 -5l26 -12q1 -1 5.5 -3t4.5 -5q0 -2 -1 -4l8 -5q-4 -25 -15 -45q-5 2 -9 -10q3 -1 3 -4q0 -12 -31 -50t-54 -57q-5 -4 -19.5 -4.5t-19.5 -7.5q-5 1 -9.5 -2t-5.5 -3q-5 -1 -11 -1q-21 0 -56 12q-31 12 -48 23q-21 14 -21 62q0 40 12 48q8 5 24 11
q13 4 13 6t-21 3l3 3q0 2 -4 4t-4 4q0 1 1 3q43 58 110 58q13 0 25 -2q17 -2 35.5 -5.5t29.5 -11.5zM205 749q-35 -16 -63 -48q8 -2 22 -12q-4 -8 -13 -8q-4 0 -13 2t-13 1q-1 -7 -7 -8q-1 -19 -17.5 -39t-16.5 -27q0 -18 55 -44q19 -6 58 -20q33 25 69 76q40 58 40 91
q-38 28 -101 36zM293 713q-12 5 -35 18q13 -3 35 -18zM304 708q0 -3 -22 -53q4 21 22 53zM173 665q4 8 15 18zM173 592q-25 17 -25 28q0 4 6.5 14.5t4.5 20.5q8 14 29 31l2 -3q13 22 31 22q8 -3 19 -14q5 -19 -21.5 -56t-45.5 -43zM199 679q-5 -7 -16 -19q-9 -15 -24 -49
q19 7 21 25q0 10 8.5 23t10.5 20zM224 577q-6 -11 -25 -23q6 11 25 23zM577 298q12 2 29 -5l26 -12q1 -1 5.5 -3t4.5 -5q0 -2 -1 -4l8 -5q-4 -25 -15 -45q-5 2 -9 -10q3 -1 3 -4q0 -12 -31 -50t-54 -57q-5 -4 -19.5 -4.5t-19.5 -7.5q-5 1 -9.5 -2t-5.5 -3q-5 -1 -11 -1
q-21 0 -56 12q-31 12 -48 23q-21 14 -21 62q0 40 12 48q8 5 24 11q13 4 13 6t-21 3l3 3q0 2 -4 4t-4 4q0 1 1 3q43 58 110 58q13 0 25 -2q17 -2 35.5 -5.5t29.5 -11.5zM531 303q-35 -16 -63 -48q8 -2 22 -12q-4 -8 -13 -8q-4 0 -13 2t-13 1q-1 -7 -7 -8q-1 -19 -17.5 -39
t-16.5 -27q0 -18 55 -44q19 -6 58 -20q33 25 69 76q40 58 40 91q-38 28 -101 36zM619 267q-12 5 -35 18q13 -3 35 -18zM630 262q0 -3 -22 -53q4 21 22 53zM499 219q4 8 15 18zM499 146q-25 17 -25 28q0 4 6.5 14.5t4.5 20.5q8 14 29 31l2 -3q13 22 31 22q8 -3 19 -14
q5 -19 -21.5 -56t-45.5 -43zM525 233q-5 -7 -16 -19q-9 -15 -24 -49q19 7 21 25q0 10 8.5 23t10.5 20zM550 131q-6 -11 -25 -23q6 11 25 23zM463 784q14 -31 30 -113q14 -70 19 -72q-14 -32 -58 -108q-39 -69 -54 -109l12 14h1q-14 -32 -48 -90l-1 7l-145 -248l8 -2l-53 -63
l4 12q-2 -2 -4 -2q-7 0 -15 29l-23 -22q3 10 -5.5 20.5t-10.5 24.5q-4 -4 -11 21.5t-7 57.5q0 57 25 103l21 39l3 -17q6 7 18 32.5t21 32.5v3q18 -22 26 -33v0q-14 23 -14 44t15 34l-3 2q12 33 47 97l-6 -24q33 70 109 205q15 -26 18 -26q1 1 1 3q0 1 -3 19t-3 32
q0 29 12 44l38 69q4 -12 9 -25.5t11 -13.5q7 0 16 23zM458 746l-34 -81q7 -15 11.5 -36.5t9.5 -41.5l-8 -15q-15 10 -39 36l-69 -137q-42 -79 -77 -132q22 -56 22 -87l-15 -14l-28 54l-80 -130q4 -47 26 -132q12 22 33 54l-15 -21q-11 -14 -17 -11l-9 51q2 2 4 2q7 0 14 -27
q19 28 60 79q2 -10 -32 -62q34 35 145 243q96 180 134 266q-14 15 -14 45q0 6 2 6q3 0 6 -3q-8 32 -30 94zM362 500l-29 -56q-24 -45 -32 -42q6 14 47 94.5t43 78.5q-1 -8 -16 -39.5t-13 -35.5zM278 364l17 30q2 -1 2 -4q0 -5 -7.5 -14.5t-11.5 -11.5z" />
    <glyph glyph-name="ampersand" unicode="&#x26;" horiz-adv-x="710" 
d="M460 800q6 3 14 3q4 0 48 -12q20 -5 41 -9q30 -9 33 -20q4 -17 4 -50q0 -107 -24 -156q-18 -37 -18 -41q0 -9 9 -15q-11 -26 -29 -46q-12 -14 -12 -30t8 -53q13 -11 82 -109t79 -119q-3 -14 -82.5 -57t-94.5 -43q-16 1 -34 18q-24 23 -29 26q-28 -34 -117 -61t-171 -27
q-102 0 -125 44l34 45q28 36 26 39q-23 -3 -67 -13q-1 23 -4 65q-2 32 -2 46q0 38 14.5 64t63.5 78q-6 4 -58 -7q1 82 26 124q14 24 44 42q24 14 24 30q0 7 -3 18q26 10 77 34q-26 2 -79 9q-1 10 -1 19q0 85 89 133q74 40 168 40q40 0 66 -9zM214 183q-51 -37 -73 -42l6 -31
q13 1 40 0q32 -2 43 -2q32 0 51 8q11 -9 27 -9q31 0 90 41.5t69 39.5q16 -2 48 -37l43 -50q4 3 53 20q33 12 50 27q-27 33 -100 146q-68 104 -86 122q5 4 5 10t-16 38q31 6 62 64q27 52 43 120q3 15 1 41q-3 39 -3 43q0 16 3 28q-61 26 -124 26q-22 0 -31 -6q-3 3 -12 3
q-11 0 -41.5 -5.5t-37.5 -4.5q-16 -16 -38 -18q-17 -2 -23 -16q-10 -20 -16 -93l70 -18q-10 -9 -32 -18q-25 -11 -33 -16q2 -14 13 -38q6 2 7 2q3 0 4 -7q1 -10 7 -21q-20 -2 -58 -12q-4 1 -7 1q-9 0 -16 -11l-13 -21q6 0 6 -5q0 -7 -12 -24t-13 -18q-18 -14 -18 -20
q0 -7 29.5 -7.5t35.5 -5.5q-28 -20 -65 -43q-14 -8 -14 -12q0 -1 1 -6t1 -10q0 -17 -9 -46q3 -6 7 -45.5t3 -50.5q7 -3 37 -4t36 -7zM531 632q14 34 14 58q0 11 -3.5 29.5t-3.5 31.5q14 7 14 4q6 -22 6 -51q0 -31 -6 -55t-14 -24q-4 0 -7 7zM455 608q-5 -21 -19 -40
q-16 -23 -34 -23q-11 0 -22 9q-31 26 -36 46q-7 31 -7 32q0 30 21 46q18 15 45 15q18 0 37.5 -9.5t19.5 -27.5q0 -5 -4.5 -16.5t-4.5 -17.5q0 -7 4 -14zM436 658q-13 -7 -18 -27.5t-1 -36.5q8 0 14 28q6 24 5 36zM374 496q-13 1 -33 31q-18 27 -22 45q-1 5 1.5 8t7.5 1
q7 -17 13 -33q16 -36 33 -52zM380 364q1 -9 23 -38t19 -35q-7 0 -14 -9t-10 -10q-8 1 -18 1q-50 0 -105 -34q-7 0 -19 20q1 6 1 14q0 9 -3.5 27t-3.5 27q0 13 6 24q8 17 32 38t42 26q17 4 31 -17q10 -17 19 -34zM345 357q-10 2 -10 -14t6 -23q-1 7 2 16q14 -22 7 -33
q-3 -5 -3 -7q0 -1 1 -1t11.5 6.5t13.5 6.5q-8 6 -15 24.5t-13 24.5zM610 148q3 -3 3 -6q0 -7 -13.5 -13t-27.5 -6q-7 0 -12 2.5t-21 15.5q-19 16 -19 23q0 3 3 4q11 4 25 -12t30 -16q14 0 32 8z" />
    <glyph glyph-name="quotesingle" unicode="'" horiz-adv-x="332" 
d="M285 663q-41 -82 -42 -86t-58 -109q-3 -2 -21.5 -37t-20.5 -43l-7 4q-6 -3 -19 0q-10 2 -19 4q-13 7 -33 26q-8 -3 -15 6q-10 13 -12 14q-2 15 16 70.5t27 60.5q3 14 10 43l48 15q-6 8 -37 30q1 20 22.5 76t35.5 66q11 -2 40 -12q1 7 8 7q15 0 55 -27.5l40 -27.5
q2 -6 2 -4q0 -1 -20 -76zM288 741q-9 -3 -18 7t-15 11q2 1 5 2q-2 2 -50 22q-3 -5 -3 -17t-3 -17q-10 -3 -11 -17q-2 -19 -5 -23q4 -3 4 -10.5t1 -10.5l5 8q4 0 5 -4q1 -7 2 -8q-3 -3 -3 -6q0 -4 5.5 -10.5t5.5 -8.5q-9 1 -15 0q-5 -17 -25 -66l-7 -1q-2 12 8 39.5t9 29.5
q-12 -19 -26 -68q-13 -45 -29 -66q0 -18 -9 -39.5t-18 -40.5q20 -15 28 -15t15 13q13 25 17 31q3 -3 3 -7t-5 -13t-5 -13q6 12 19 34q-2 17 53 117q57 106 62 147zM163 576l-2 -1q-2 -3 -3 -3v1l3.5 6.5t3.5 8.5z" />
    <glyph glyph-name="parenleft" unicode="(" horiz-adv-x="583" 
d="M307 224q23 -28 73 -43q69 -20 81 -27l11 2q9 -12 7 -43l-4 -45q-9 -9 -18 -19q-12 -12 -24 -12q-5 -9 -20 -6q-18 3 -23 -1q-35 -27 -50 -27h-50q-13 -1 -32 6.5t-30 6.5l-45 25q-37 21 -31 27q-51 25 -86 76q2 2 2 6q0 2 -16 26.5t-18 52.5q-8 10 7 28l6 44q3 -3 5 -3
q3 0 18.5 19t35.5 19q3 4 3 6q0 5 -13 8t-25 5q1 3 4 13q-1 2 -1 3q-5 -2 -10 -3q22 63 38 83q10 12 34 21q31 11 58 32q-8 7 -23 12q-19 5 -25 9q0 3 -1 9q0 2 -1 2q-2 -2 -5 -4l27.5 48.5t30.5 40.5l-16 -27l2 -2q33 31 50.5 41.5t59.5 24.5q-3 8 -18.5 14.5t-15.5 14.5
q0 4 3 10q13 24 35.5 37.5l44.5 27.5q27 20 44 7q9 5 30 22l-7 9q139 -37 139 -81q0 -27 -64 -91q-83 -84 -117 -138q-63 -100 -63 -213q0 -26 3 -53zM425 769q-2 -3 -18 -15q-11 -8 -9 -19q-10 2 -20.5 -11t-15.5 -15q20 -10 20 -5q0 3 -3 7q6 2 7 1q5 -5 9 -10
q15 -1 26 -12l-45 -21q2 -5 2 -8q0 -6 -11 -6q-32 0 -25 2q-16 -4 -50.5 -43.5t-41.5 -58.5q19 -3 57 -12q0 -5 -15 -13q-18 -9 -21 -14q0 -15 -23 -20q-31 -7 -35 -9l-42 -98q14 5 21 5q6 0 14 -5q10 -8 19 -11q-2 -8 -11 -13.5l-17 -10.5q-2 -11 -16 -14q-19 -4 -22 -7
q-22 -74 -25 -114l36 -45q22 -26 41 -39q-1 3 -1 5q0 7 20 -9q30 -25 35 -28v-3q29 -16 73 -33l74 -27q6 18 54 81l-13 3l-20 -28.5t-26 -16.5q13 17 35 52l-88 27q-59 20 -73 49q-10 21 -10 54q0 20 6 71q5 39 1 50q6 26 50 106q45 85 56 83q13 11 64 66q39 41 69 60
q4 40 2 45q-18 9 -46 16q-24 5 -48 11zM285 583q-4 -1 -9 2q16 21 51 63q-3 -22 -42 -65zM192 415q1 14 13 40q5 9 11 18q-2 -19 -24 -58z" />
    <glyph glyph-name="parenright" unicode=")" horiz-adv-x="589" 
d="M284 578q-22 28 -72 42q-69 21 -82 28l-10 -2q-9 12 -8 42l4 45l20.5 21t21.5 11q6 9 22.5 6t21.5 1q34 26 50 27q25 0 50 -1q12 2 31.5 -5.5t29.5 -6.5l46 -25q37 -22 31 -28q51 -24 86 -75q-3 -3 -3 -6t16.5 -27.5t18.5 -52.5q7 -10 -8 -28l-5 -43q-3 3 -6 3t-18 -19
t-35 -19q-3 -4 -3 -6q0 -6 12.5 -8.5t25.5 -5.5q-1 -3 -4 -13q1 -1 1 -2q5 1 10 3q-22 -63 -38 -83q-10 -12 -35 -21q-30 -11 -57 -33q7 -6 24 -11.5t23 -9.5q1 -2 1 -8q0 -2 1 -2q3 2 5 4q-12 -24 -25 -47q-16 -27 -32 -43l15 28l-1 2q-33 -31 -50.5 -41.5t-60.5 -25.5
q3 -7 19 -14t16 -14q0 -4 -3 -10q-13 -24 -35.5 -38l-45.5 -27q-27 -20 -43 -7q-9 -5 -30 -23l7 -8q-139 37 -139 81q0 26 63 90q83 85 117 138q64 100 64 214q0 26 -4 53zM167 33q2 3 18 15q11 8 8 19q11 -2 20 9q12 15 17 17q-21 10 -21 5q1 -3 4 -7q-7 -2 -8 -1l-8 10
q-15 0 -26 12l45 21q-2 5 -2 8q0 6 10 6q33 0 25 -2q17 4 52 45q34 38 41 57q-19 2 -58 12q0 4 17 13t20 13q0 16 23 21q31 6 35 9l42 98q-14 -6 -22 -6q-6 0 -13 6q-10 7 -19 11q1 8 10 13.5l18 10.5q2 11 16 14q18 4 22 7q22 73 25 114l-36 44q-22 27 -41 40q1 -4 1 -6
q0 -6 -20 10q-30 24 -36 27v4q-28 16 -72 32q-37 14 -75 27q-5 -17 -53 -80l13 -4l20 29t26 17q-13 -17 -35 -53l88 -26q58 -20 73 -49q10 -21 10 -55q0 -19 -7 -70q-5 -39 0 -50q-7 -26 -50 -106q-46 -85 -57 -83q-12 -11 -64 -66q-38 -41 -69 -60q-3 -40 -1 -46
q17 -8 46 -15q24 -5 48 -11zM307 219q4 0 9 -2q-16 -21 -51 -63q3 22 42 65zM400 387q-1 -14 -13 -40q-6 -9 -11 -18q1 19 24 58z" />
    <glyph glyph-name="asterisk" unicode="*" horiz-adv-x="601" 
d="M349 171q-4 -15 -41 -21q-1 -8 -10 -8t-30.5 8.5t-26.5 8.5t-2 -8q-20 7 -40 13q-16 6 -34 26q1 26 23 76q-32 -35 -40 -35t-13 11q-9 3 -16.5 -5.5t-10.5 -8.5q-2 0 -4 1q-4 9 -18 31q-18 27 -24 27l-2 -2q-16 28 -21 60q15 1 15 6t-14 6q0 6 12.5 20t12.5 22q0 5 -4 9
q22 1 51 19q33 22 42 25q-18 13 -60.5 22.5t-46.5 12.5q18 -1 18 4q0 4 -23 22q-4 15 22 43q54 12 54 11q0 -3 -36 21q7 6 20 34q11 24 23 24q3 0 6 -1q12 5 50 -17q29 -17 48 -33q32 6 32 11q0 8 -37 9q-1 21 -2 46l4 4q-1 7 0 8q13 2 21 2h4h3q-5 5 4 23q37 -3 85 -13
q63 -14 69 -28q3 -23 1 -44q-3 -27 -3 -44q19 20 58 51q1 -3 1 -5q5 3 11.5 6.5t13.5 3.5q15 0 27 -23q4 -4 17 -33q9 -19 18 -17q10 -1 10 -8q0 -6 -7 -22t-7 -23t5 -11q1 -10 -53.5 -40t-84.5 -38q5 4 37 -18.5t37 -22.5q3 0 3 2q0 4 -6 14q14 -2 29.5 -24t15.5 -49
q0 -21 -12 -40q-4 2 -7 2q-12 0 -12 -21q0 -9 3 -15q-22 -31 -23 -32q-7 -9 -21 -14q-45 21 -73 49q-22 22 -20 22q-2 0 -5 -20q-5 -33 -16 -72zM393 648q-9 0 -30 3.5t-21 6.5t21 5q-21 6 -93 18q3 -11 2 -29q-2 -23 -1 -31q14 0 40 -8q31 -9 30 -17q-10 -4 -23 -5
q-9 -1 -23 0q-19 1 -24 1q-5 -4 -5 -11q0 -3 4 -16q2 -11 0 -17l-46 34q-3 -3 -7 -3q-11 0 -51 40q-10 8 -28 8q-9 -14 -23 -43q49 -13 49 -19q0 -3 -19 -8l-45 -11q-13 -14 -13 -25q0 -18 39 -23.5t39 -4.5q-3 -1 -20 -5q30 -18 56 -36q-12 -2 -72 -41q-63 -41 -63 -53
q0 -2 2 -3q54 -10 54 -12q0 -1 -58 -9l46 -84q22 29 63 55l74 42q0 -3 -4.5 -19t-4.5 -21q48 -4 48 -9q0 -3 -53 -13q-11 -51 -11 -67q0 -22 23 -27q39 -5 79 -9q15 0 24 45q7 36 6 64l57 -47q40 -33 58 -33q9 14 23 43q-5 9 -5 17q0 23 20 20q8 8 8 16q0 16 -34 42
q-9 7 -92 64q13 2 81 40q72 40 72 52q0 2 -2 2q-13 30 -13 33q0 2 1 2q3 0 17 -14q-23 22 -38 54q-11 23 -18 23q-12 0 -107 -81q12 29 11 124zM292 529q-1 0 -5.5 11.5l-4.5 11.5q-1 10 0 19q4 1 7.5 -18.5t2.5 -23.5zM195 624q-12 5 -38 18q-17 9 -27 9q-15 0 -33 -21
q16 29 35 29q14 0 63 -35zM319 196q-9 -5 -41 12q5 2 17 2q12 -1 14 -5q9 13 16.5 40.5t12.5 37.5q1 -2 -5 -35q-2 -19 -14 -52zM443 556q41 26 39 26q3 0 9 -11q12 -19 23 -34q-18 51 -32 51q-8 0 -39 -32zM157 313q-16 -10 -29 -22q-10 -8 -12 -8q1 0 -30 40
q16 -47 29 -47q6 0 42 37zM108 381q28 20 75 44q-3 -4 -5 -9q-14 -8 -43 -22q-11 -5 -27 -13z" />
    <glyph glyph-name="plus" unicode="+" horiz-adv-x="595" 
d="M411 593q-2 -56 -2 -63q18 -9 35 -9q7 0 6 5q34 -4 68.5 -9t45.5 -24q-1 -13 5 -39t6 -39q-5 4 -6 -12q0 -12 1 -34l2 -23q-7 3 -13 2l-9 6q1 0 -11 -11q0 -33 -29 -33q-23 0 -23 2q0 -1 2 -4l-18 4l2 2q0 5 -37 8q-45 4 -57 7q-2 -8 -9 -73q-5 9 -8 9q-4 0 -9 -34
q-7 -42 -17 -61q0 2 -12 0q-14 -3 -20 2q0 6 -1 7q-5 0 -16 -31q0 5 -1 11l-6 -8q-4 0 -19.5 4.5t-19.5 4.5q-5 0 -5 -3l3 -6l-47.5 20t-42.5 31q0 10 6 21.5t6 10.5v0q-1 -1 -12 -9q4 15 9 48q2 -7 3 -14q2 5 9 31q6 23 8 26q15 -1 47 3q-42 6 -42 29q-3 -6 -32.5 -7.5
l-29.5 -1.5q2 -2 12 -5q-15 0 -46 1q11 6 12 8q0 1 -2 1q-1 0 -14 -2.5t-19 -1.5q-8 7 -17.5 40t-7.5 46q36 9 36 16t-40 8q0 18 1 36t28 19q-2 4 -2 7q0 2 11 23q9 -3 27 -1q12 3 32 -1q-2 -1 31 -1q28 0 28 4q-1 1 -4 3q10 1 10 3q0 8 2 11l1 -12q2 11 8 34q25 -1 44 5
l-36.5 12.5t-18.5 30.5q11 4 5 42q2 2 3 4v8q17 -2 51 -4q-7 7 2 25q28 -2 83 -17q65 -19 68.5 -33t1.5 -55zM270 681q3 -11 2 -29q-2 -23 -1 -31q14 0 40 -8q32 -9 30 -17q-38 -16 -67 -16q-4 -41 -10 -60l-78 3q-14 -10 -37 -3q-9 -4 -27 -5q-17 0 -17 3q0 1 1 2
q-13 1 -28 -9q0 -17 4 -49q51 -18 51 -19t-43 -21q-1 -4 -1 -8q0 -16 34 -16q4 0 50 2q40 2 74 1q-2 -26 -2 -28q50 -18 50 -23q0 -4 -17 -6q-35 -5 -37 -5q-5 -42 -19 -124q33 -14 102 -33q2 2 10 26q-3 -4 -4 -5q-1 1 -1 2q0 7 18 69q7 8 6 24q-2 20 0 26q-7 -2 -7 8
q0 11 8 32.5t12 25.5q110 -17 148 -17q41 0 46 26v58q-6 -19 -9 -19q-2 0 -4 36q10 12 -69.5 23.5t-92.5 7.5q-2 4 -2 15q0 18 5.5 68t4.5 60q-28 -1 -38 9l-14 4q3 1 23 2q-21 6 -94 18zM283 539l-3 2l2 30q2 -7 3 -14q0 -13 -2 -18zM183 510q-31 -3 -62 -7q-19 -4 -25 -40
q-5 40 4 45q43 6 83 2zM487 396q14 -1 29 -4q12 -2 14 -2q6 0 7 11q2 28 5 44q4 -23 4 -36q0 -25 -16 -25q-7 0 -43 12zM319 196q-9 -5 -41 12q5 2 17 2q13 -1 15 -5q9 13 16 40.5t12 37.5q6 -17 -19 -87zM225 288q0 5 -1 6q-3 0 -12 -55q15 29 13 49zM486 363q5 1 5 2
q0 3 -55 9q29 -14 50 -11z" />
    <glyph glyph-name="comma" unicode="," horiz-adv-x="336" 
d="M202 185q1 8 6 8q3 0 11 -5t11 -5q5 -6 29 -18.5t31 -24.5l3 5q-7 -25 -23 -75q-4 2 -8 -13q-2 -9 -5 -18q-10 -11 -27 -35q1 -5 -23 -45.5t-32 -50.5l-2 2q-5 -11 -16 -33l2 -1q-4 -7 -21.5 -19t-21.5 -17l-2 5q-4 -4 -8 0q-7 6 -9 6q-10 7 -28 25q-1 -1 -3 -2
q-4 0 -9 7t-7 8q-2 5 -2 10q0 6 4.5 18.5t4.5 19.5q14 19 26 50q9 26 19 52q15 3 44 15q-3 1 -33 26q4 21 19.5 57.5t27.5 54.5q4 4 10 4q5 0 14 -3t12 -3zM210 73l-25 4q-12 -15 -25 -57q-13 -37 -29 -54q0 -18 -27 -73q7 -4 21 -14l6 2l28 37q2 -7 -2 -14.5l-8 -14.5
q6 4 8 16q7 6 10.5 21t7.5 21q27 36 59 93q38 68 43 100q-7 0 -15 6q-11 9 -13 10l7 2q-11 6 -44 21q-2 -10 -8 -29q-8 -1 -9 -14q-1 -16 -4 -19q4 -7 -2 -16zM159 -1q-2 5 4 14q3 -5 -4 -14z" />
    <glyph glyph-name="hyphen" unicode="-" horiz-adv-x="754" 
d="M485 528q-16 -8 -16 -10t81 7q87 10 110 -9q-7 -6 5 -17q21 -85 28 -156q-3 -2 -2 -8q2 -7 2 -8q-1 -3 -7 -3q-3 5 -5 5q-3 0 -7 -3.5t-7 -3.5t-6 4q-3 -9 -1.5 -31.5t-5.5 -33.5l-3.5 7t-2.5 2q-2 -4 -4 -7q-26 10 -35 10q-10 0 -12 -8h-21q6 4 6 6q0 7 -32 6
q-30 0 -34 -3q-8 -6 -30 -6q-24 0 -72.5 8t-53.5 8q-10 2 -15 -2q2 -3 13 -8q-44 -4 -83 1q17 -2 18 1q2 2 -9 6t-24 4q-19 0 -31 -9q-13 4 -35 4q-16 0 -16 -5q0 -4 7 -9l-52 -6q15 3 15 10q0 2 -3 4q-21 -11 -28 -11q-8 0 -28 17q-9 26 -19 64q34 17 34 19l-41 7
q-2 2 -2 4t3 6t3 6q0 3 -4 5q0 8 8 30q7 2 7 5q0 5 -12 9q12 2 30 12q-4 8 -4 15q0 8 6 16t6 9q0 2 -8 4q11 14 64 16q73 3 74 3l-4 5q125 14 182 7q-3 4 3 5q30 5 70 0zM344 494q-34 3 -59 3q-31 0 -63 -7q-36 -8 -65 -9t-35 -3q-12 -5 -12 -23q0 -12 5 -35h14q-6 19 -6 30
q0 19 25 19h8.5h8.5q29 0 41 14q16 3 21 -3q-8 -3 -56 -17q-34 -9 -33 -13q-4 -18 -4 -27q0 -13 10 -13h25q-16 -6 -47 -21q6 -12 5.5 -24.5t10.5 -13.5q-2 0 24 1h87q55 0 83 11q20 -4 97 -4q80 0 93 5q9 -5 21 -3q20 -11 63 -11q48 -1 66 -7q0 37 -7 110q-5 -23 -8 -23
t-5 28q0 18 -1 36q-25 3 -79.5 1.5t-82.5 5.5q-11 -4 -34 -4q-12 0 -38 1t-37 1q-29 0 -36 -5zM525 384l-9 -9h1l4.5 1.5t7.5 1.5q6 0 7 -5q-22 -3 -81 -3q-66 1 -76 8q8 10 47 10q21 0 64 -3q33 -3 35 -1zM367 380q1 -1 1 -3q0 -3 -13 -3q-11 0 -15 1q2 8 27 5z" />
    <glyph glyph-name="hyphen" unicode="&#x2010;" horiz-adv-x="754" 
d="M485 528q-16 -8 -16 -10t81 7q87 10 110 -9q-7 -6 5 -17q21 -85 28 -156q-3 -2 -2 -8q2 -7 2 -8q-1 -3 -7 -3q-3 5 -5 5q-3 0 -7 -3.5t-7 -3.5t-6 4q-3 -9 -1.5 -31.5t-5.5 -33.5l-3.5 7t-2.5 2q-2 -4 -4 -7q-26 10 -35 10q-10 0 -12 -8h-21q6 4 6 6q0 7 -32 6
q-30 0 -34 -3q-8 -6 -30 -6q-24 0 -72.5 8t-53.5 8q-10 2 -15 -2q2 -3 13 -8q-44 -4 -83 1q17 -2 18 1q2 2 -9 6t-24 4q-19 0 -31 -9q-13 4 -35 4q-16 0 -16 -5q0 -4 7 -9l-52 -6q15 3 15 10q0 2 -3 4q-21 -11 -28 -11q-8 0 -28 17q-9 26 -19 64q34 17 34 19l-41 7
q-2 2 -2 4t3 6t3 6q0 3 -4 5q0 8 8 30q7 2 7 5q0 5 -12 9q12 2 30 12q-4 8 -4 15q0 8 6 16t6 9q0 2 -8 4q11 14 64 16q73 3 74 3l-4 5q125 14 182 7q-3 4 3 5q30 5 70 0zM344 494q-34 3 -59 3q-31 0 -63 -7q-36 -8 -65 -9t-35 -3q-12 -5 -12 -23q0 -12 5 -35h14q-6 19 -6 30
q0 19 25 19h8.5h8.5q29 0 41 14q16 3 21 -3q-8 -3 -56 -17q-34 -9 -33 -13q-4 -18 -4 -27q0 -13 10 -13h25q-16 -6 -47 -21q6 -12 5.5 -24.5t10.5 -13.5q-2 0 24 1h87q55 0 83 11q20 -4 97 -4q80 0 93 5q9 -5 21 -3q20 -11 63 -11q48 -1 66 -7q0 37 -7 110q-5 -23 -8 -23
t-5 28q0 18 -1 36q-25 3 -79.5 1.5t-82.5 5.5q-11 -4 -34 -4q-12 0 -38 1t-37 1q-29 0 -36 -5zM525 384l-9 -9h1l4.5 1.5t7.5 1.5q6 0 7 -5q-22 -3 -81 -3q-66 1 -76 8q8 10 47 10q21 0 64 -3q33 -3 35 -1zM367 380q1 -1 1 -3q0 -3 -13 -3q-11 0 -15 1q2 8 27 5z" />
    <glyph glyph-name="period" unicode="." horiz-adv-x="352" 
d="M254 217q12 2 29 -5l26 -12q1 -1 5.5 -3t4.5 -5q0 -2 -1 -4l8 -5q-4 -25 -15 -45q-5 2 -9 -10q3 -1 3 -4q0 -12 -31 -50t-54 -57q-5 -4 -19.5 -4.5t-19.5 -7.5q-5 1 -9.5 -2t-5.5 -3q-5 -1 -11 -1q-21 0 -56 12q-31 12 -48 23q-21 14 -21 62q0 40 12 48q8 5 24 11
q13 4 13 6t-21 3l3 3q0 2 -4 4t-4 4q0 1 1 3q43 58 110 58q13 0 25 -2q17 -2 35.5 -5.5t29.5 -11.5zM208 222q-35 -16 -63 -48q8 -2 22 -12q-4 -8 -13 -8q-4 0 -13 2t-13 1q-1 -7 -7 -8q-1 -19 -17.5 -39t-16.5 -27q0 -18 55 -44q19 -6 58 -20q33 25 69 76q40 58 40 91
q-38 28 -101 36zM296 186q-12 5 -35 18q13 -3 35 -18zM307 181q0 -3 -22 -53q4 21 22 53zM176 138q4 8 15 18zM176 65q-25 17 -25 28q0 4 6.5 14.5t4.5 20.5q8 14 29 31l2 -3q13 22 31 22q8 -3 19 -14q5 -19 -21.5 -56t-45.5 -43zM202 152q-5 -7 -16 -19q-9 -15 -24 -49
q19 7 21 25q0 10 8.5 23t10.5 20zM227 50q-6 -11 -25 -23q6 11 25 23z" />
    <glyph glyph-name="slash" unicode="/" horiz-adv-x="448" 
d="M380 784q14 -31 30 -113q14 -70 19 -72q-14 -32 -58 -108q-39 -69 -54 -109l12 14h1q-14 -32 -48 -90l-1 7l-145 -248l8 -2l-53 -63l4 12q-2 -2 -4 -2q-7 0 -15 29l-23 -22q3 10 -5.5 20.5t-10.5 24.5q-4 -4 -11 21.5t-7 57.5q0 57 25 103l21 39l3 -17q6 7 18 32.5
t21 32.5v3q18 -22 26 -33v0q-14 23 -14 44t15 34l-3 2q12 33 47 97l-6 -24q33 70 109 205q15 -26 18 -26q1 1 1 3q0 1 -3 19t-3 32q0 29 12 44l38 69q4 -12 9 -25.5t11 -13.5q7 0 16 23zM375 746l-34 -81q7 -15 11.5 -36.5t9.5 -41.5l-8 -15q-15 10 -39 36l-69 -137
q-42 -79 -77 -132q22 -56 22 -87l-15 -14l-28 54l-80 -130q4 -47 26 -132q12 22 33 54l-15 -21q-11 -14 -17 -11l-9 51q2 2 4 2q7 0 14 -27q19 28 60 79q2 -10 -32 -62q34 35 145 243q96 180 134 266q-14 15 -14 45q0 6 2 6q3 0 6 -3q-8 32 -30 94zM279 500l-29 -56
q-24 -45 -32 -42q6 14 47 94.5t43 78.5q-1 -8 -16 -39.5t-13 -35.5zM195 364l17 30q2 -1 2 -4q0 -5 -7.5 -14.5t-11.5 -11.5z" />
    <glyph glyph-name="zero" unicode="0" horiz-adv-x="741" 
d="M529 761q0 -14 2 -15q15 -2 30 -5q-3 4 -3 6q0 4 7 1q7 -2 10 -5q18 -16 60 -38.5t60 -38.5q-3 -4 -3 -10q0 -23 23 -36q-10 -59 -38 -152q-3 9 -7 9q-8 0 -15 -33q-5 -25 -7 -41q6 -11 -40 -106q-51 -103 -105 -176q-70 -93 -117 -92q-21 -29 -62 -29q-18 0 -40 5l2 -5
q-12 8 -47 13q-31 5 -44 19q-41 10 -100.5 78t-62.5 113q-6 5 -6 10q0 4 5.5 12t5.5 13q0 2 -1 4l7 36l5 -5l22.5 27.5t25.5 14.5q4 0 8 -1q2 12 2 13q0 3 -7 4q-16 1 -29 4q4 16 4 14h-10q11 54 29 77q12 14 41 27q37 16 59 32q-9 8 -25 12q-26 8 -27 8q2 10 1 14
q-2 4 -8 2q16 37 57 79q-42 -60 -42 -71q0 -3 3 -4q20 47 58 74q27 20 83 40q-3 9 -20.5 17.5t-17.5 16.5q0 14 36 43q11 0 28 9t17 17q0 5 -7 7q7 4 18 0q14 -5 17 -5q8 0 13 7q2 -3 5 -3q7 0 14 12.5t8 19.5q60 -10 125 -39zM423 769q-2 -1 -26 -24q3 -10 3 -9l-7 -2
q-2 1 -5 1q-6 0 -15 -12t-12 -14l14 -4q4 10 10 10q5 0 8 -6t-2 -9q26 0 20 1q1 0 9 -10l-47 -23q4 -2 3 -7q-2 -6 -6 -6q-7 2 -13 2q-46 0 -110 -102q20 -3 59 -12v-4q-38 -18 -36 -30q-32 -19 -54 -18q-10 -8 -26 -48q-18 -48 -22 -54q9 4 19 4q21 0 35 -14
q-1 -12 -17 -20.5t-17 -17.5q-17 -6 -32 -7q-30 -47 -30 -92q0 -36 20 -67q15 -24 36 -36q19 -11 19 0q0 4 -4 11q46 -55 212 -109q71 92 136 209q71 127 103 230q-12 12 -12 30q0 20 20.5 64t22.5 63q-41 58 -132 99q-1 -2 -5 -2q-12 0 -62 17zM640 639q-36 22 -49 27
l-35 30l44 -25q26 -14 40 -32zM281 584q-3 0 -3 2q0 6 22 28l26 27q-7 -21 -45 -57zM645 597q-18 -82 -17 -84q-9 -32 -34 -94q16 65 51 178zM289 364l-3 5q19 69 91 167q-19 -26 -88 -172zM507 557q-9 -26 -9 -34q0 -11 9 -12q-18 -77 -62 -162q-50 -96 -100 -138
q-15 5 -29 23l-23 30q-1 8 -1 16q0 22 11 53q9 27 19 53q-2 2 -2 6q0 30 102 203q1 -10 5 -10q2 0 11.5 12t15.5 8q47 -28 53 -48zM357 437q5 -2 5 -9q0 -14 -14 -38t-17 -24q-10 -30 -27 -89q10 2 12 -7q22 23 32 46l20 46q-2 -2 -4 -2q-3 0 -3 7q0 18 16 65q17 51 39 91
q-16 8 -59 -86zM188 416q4 21 23 57q4 0 4 -5q0 -8 -13 -28zM466 154q-45 -78 -57 -74l52 75q1 -1 5 -1z" />
    <glyph glyph-name="one" unicode="1" horiz-adv-x="432" 
d="M405 727l3 13q4 -33 0 -82q-2 -42 -5 -83l-9 -4l-8 -47q-5 -28 -2 -47q6 6 9 19q2 10 5 21q2 -54 -11 -101l-7 5q-5 -6 -5 -13q0 -5 3 -16t2 -17q-2 -22 -35 -179l-3 7q-14 -40 -20 -101q-4 -43 -26 -71v14q-4 -14 -19 -14q-6 0 -18 3t-17 3q-4 4 -19 -37l-2 16l-12 -13
q-35 -1 -51 7l-3 -5l-56 21q-33 13 -52 28q-22 -2 -22 20q0 20 16 52l-17 -14q6 23 14 70l-2 -25q10 14 16 44t14 42q45 3 47 3l2 -5l19 7q-45 6 -61 26q1 13 3 26q1 15 -1 25q-2 -5 -4 -8v0q-7 -16 -7 0q-1 13 3 44l4 41q-1 -23 5 -42q11 30 11 62q0 20 -7 25q9 32 14 143
l5 -17q3 16 11 49q32 -2 64 5l-48 14.5t-27 36.5l-10 -21l5 33q13 5 11 37q-3 36 1 41q13 2 38 -1.5t35 -3.5q3 6 3 10t-2 8t-2 6q0 5 5 13q41 -3 120 -26q96 -26 102 -47zM200 775q5 -16 3 -43q-2 -33 -1 -44q19 -1 59 -12q45 -14 42 -25q-42 -19 -97 -26l-6 -38l6 -5
q-10 -33 -19 -142q-9 -96 -25 -129q28 -6 56 -11q40 -8 49 -17q-6 -2 -6 -11.5t-5 -11.5q-38 2 -96 2q1 0 -13 -76q-16 -82 -17 -88q69 -27 73 -29q42 -15 76 -20q3 4 14 38q0 -1 -7 -7q2 36 21 67q0 33 15 59q-3 24 25 242q31 239 33 279q-21 -1 -40 6q-33 12 -37 13
q13 4 34 3q-25 8 -68 14q-49 8 -69 12zM221 571q2 2 7 16q-6 -30 -5 -61h5q-1 -7 -8 -64q-5 -47 -13 -57q-2 -3 -4 -3t-3 10.5t-2 11.5l16 168q2 4 6 8q1 0 1 -4q-4 -10 0 -25zM191 356l6 34q4 -2 4 -9q0 -8 -3.5 -16.5t-6.5 -8.5zM295 161q1 -21 -7 -47l-16 -44
q-16 -2 -59 17q11 7 41 -1q10 -5 23 39q15 58 23 71q6 -19 -5 -35z" />
    <glyph glyph-name="two" unicode="2" horiz-adv-x="778" 
d="M664 49q-23 -2 -71.5 -16t-74.5 -14q-15 0 -29 4l-5 -9q-11 4 -36 4q-32 0 -133 -10q-92 -10 -120 -8l14 7l-55 16q-31 11 -46 31q-19 25 -24 29q-13 12 -34 10q-29 22 -29 45q0 28 44 63l66 51q20 5 59 16l-33 15q16 22 49 63q27 9 82 25q0 3 -25 6q-16 2 -31 5l57 72
q14 13 88 34q-7 7 -22 12q-18 6 -23 9q5 7 43 42q28 26 29 49q-53 -22 -160 -57q-5 3 -12 0q-17 22 -24 57q-4 32 -7 63l-25 16q16 81 181 103l241 16q-3 -1 -7 -3q5 0 28 -6q6 11 13 11q4 0 4 -7q6 -5 37.5 -10.5t48.5 -22.5q3 -42 2 -49q11 -12 20 -45t9 -64
q0 -72 -45 -54q-3 -2 -3 -8q0 -15 10 -40l14 8q-3 -13 -7 -57q-3 -33 -19 -63q-22 -7 -20 -7q-1 0 -8 15h-9q5 -29 5 -42q0 -18 -9 -23.5t-33 -5.5q-6 0 -21 1h-26q-31 0 -61 -2q-4 -5 -47 -53q-35 -40 -35 -47q20 10 43 10q5 0 15 -1h15q13 0 23 3l-5 -7q18 -1 60 15l62 24
q6 -49 16 -91q7 -32 7 -48q0 -24 -11 -80zM300 219q-45 -2 -136 -13q-14 -18 -30 -33q-11 -10 -11 -13t15 -21q23 -28 47 -66q21 -34 103 -34q80 0 200 31q100 26 147 49q-13 26 -25 112q-43 -25 -113 -33q-59 -6 -118 -13q8 62 74 119q25 34 94.5 94t95.5 95q44 58 44 122
q0 86 -33 124q-50 13 -114 13q-108 0 -252 -38q-14 -27 -14 -66q0 -20 6 -31q26 9 94 37q34 15 71 15q26 0 67 -5q3 -42 -15 -77q-10 -19 -46 -65q20 -3 38 -3q19 0 35 3t15 3q5 0 5 -16l-130 -31l-70 -81q26 -7 75 -24q0 -2 -48 -8q-57 -8 -58 -8q-37 -44 -76 -98h62
q1 -20 1 -40zM645 567q7 115 -18 149q39 -13 39 -81q0 -47 -21 -68zM232 579q-3 -3 -6 16t-3 23q1 -5 7 -15t6 -15t-4 -9zM600 206q-23 -4 -63 -17q-1 -2 -4 -5q-18 -10 -58 -13q-37 -3 -61 2q22 3 64 16q18 0 122 17zM216 61q-21 4 -45 68z" />
    <glyph glyph-name="three" unicode="3" horiz-adv-x="692" 
d="M527 657q-12 15 -66 48q-45 28 -39 28q18 1 58.5 -28.5t46.5 -47.5zM114 581q-4 -3 -7 -3q-10 0 -11 20q-23 21 -38 54l18 16q-26 -6 -26 14q0 16 15 44q19 27 34 38q140 42 170 36q22 1 42 1q70 0 113 -15l62 -22l-5 7q29 -12 63 -41l56 -51q-3 -15 19 -32
q2 -89 -7.5 -113t-67.5 -83q7 0 29 -14q96 -89 96 -135q0 -27 -31 -42l-4 4q-19 -30 -54 -92l-2 10q-30 -41 -97 -115l1 -2q-24 -25 -63 -39q-52 -19 -65 -26l2 5q-22 1 -63 9q-16 -5 -34 -5q-37 0 -81 21q-39 18 -66 44q-40 6 -55 23q-9 11 -14 41q-6 37 -16 57
q18 50 29 74q44 -9 89 -17q84 -15 135 -15q79 0 79 35q0 7 -3 15l-149 12q-94 17 -111 78q11 6 32 20l2 -1q14 6 38 23q-20 6 -60 14q-5 11 -5 24q0 6 3 29q3 18 1 29q21 14 95 39l6 -1q39 9 115 34v11q-16 3 -34 3q-28 0 -89 -12q-56 -10 -86 -8zM338 500l-53 9
q-20 -29 -52 -36q-2 -6 -2 -11q0 -15 24 -20q34 -6 38 -9q-6 -4 -58 -25q-3 -6 -3 -11q0 -10 18.5 -14.5t22.5 -12.5q33 10 103 13l7 -11q39 -15 73.5 -55.5t45.5 -43.5v-2q-16 -6 -50 -15q-51 -51 -51 -53q1 -1 2 -1q-16 -15 -33 -29q-19 -17 -38 -21q-9 9 -24 9
q-8 0 -37 -6q-24 -5 -36 -2l-35 28q-38 30 -57 36q-10 -13 -11 -13q3 0 -16 5q-10 -17 -10 -19q0 -8 10 -13q-6 -15 -6 -25q0 -9 5 -13.5t5 -5.5q0 -2 -3 -5q11 -21 35 -27q45 -44 115 -44q9 0 27 1h27q22 0 38 -4l-7 7q7 3 14 3q9 0 28 -8q16 -6 25 -4q9 3 31.5 24.5
t31.5 26.5l-1 2l90 94q32 35 32 67q0 37 -48 140q-5 10 -19.5 19t-19.5 16q9 31 42.5 90t42.5 89q-8 32 -60 76q-47 40 -86 57q7 0 0 -5q-29 24 -130 24q-43 0 -99 -5l-45 -3q-14 -4 -56 -25l1 -6q-4 -2 -9 -3q3 -20 16 -20q20 1 40 1q-19 -11 -57 -36q3 -10 7 -45
q28 -2 83 -2l-9 13q52 27 137 27q144 0 139 -92q-1 -19 -39.5 -50.5t-59.5 -28.5q-35 5 -36 3zM338 534q7 -19 -6 -14q15 -1 26 6q-9 7 -20 8zM155 477q2 1 7 3t5 4q0 4 -9 4q-5 0 -5 -4q0 -3 2 -7zM452 101q-4 2 -4 13q27 28 76 88q-16 -45 -72 -101z" />
    <glyph glyph-name="four" unicode="4" horiz-adv-x="774" 
d="M281 773q-2 -2 -2 -4q0 -5 20.5 -13.5t24.5 -15.5q-2 -78 -7 -233q-6 -3 -6 -5q0 -9 52 -8l-21 7q20 0 62 -3q17 10 17 52q0 9 -1 13q9 14 38 17t38 12q-11 10 -37 9q-6 -5 -12 -5q-7 0 -20 7t-16 8q13 18 7 43q-9 39 -9 41q0 15 11 27l-5 9q-4 10 -4 15q0 11 23 8
q27 -5 32 0q9 -6 19 -6q20 0 20 13q0 9 -16 18q9 7 29 3t28 2l88 -25q50 -17 83 -39l-13 -2q6 -7 13 -7h3q3 1 4 1q5 0 9 -20l7 16q0 -8 -2 -24t-2 -23q0 -17 9 -28q-12 -4 -10 -64q2 -72 0 -80l-12 -7q-18 -92 -18 -144q0 -22 5 -27q-3 -47 -25 -133q-6 1 -8 -21v-41
q-2 -38 -8 -38q-3 0 -5 5q-12 -19 -15 -40q-2 -11 -10 -11q-6 0 -22 2q-26 3 -28 3q-4 0 -30.5 -15.5t-58.5 -12.5q8 -2 8 -4q0 -7 -20 -5q-34 24 -66 31q-20 2 -39 5q-12 3 -12 21t13 89q-2 -25 -7 -73q18 -3 20 45q1 30 1 60q-5 15 25 21q21 3 41 7q-1 1 -35 9
q-22 6 -22 19q0 4 1 12.5t1 12.5q0 11 -9 11q-5 0 -14 -3q-8 -11 -23 -11q-6 0 -24 3q-15 2 -22 0q-25 18 -87 33l-95 21q-1 -6 -11 -6q-20 0 -56 19.5t-39 32.5q6 12 26 26q25 18 31 24q-2 0 -45 -2q7 14 7 49q0 7 -2 7q-2 -1 -5 -10l-7 -21q0 17 -1 49.5t-1 46.5
q0 58 14 90q19 43 68 61l-53 16q-30 11 -30 28q0 15 24 38q-8 4 -8 5t2 1q30 0 58 -13q0 8 3.5 15.5t10.5 3.5q12 8 12 17q0 7 -10 10q47 -12 158 -27zM137 766q6 -22 2 -35q25 0 71 -9q5 -2 5 -6q0 -3 -5.5 -8.5t-5.5 -7.5q1 -2 4 -3q-19 -11 -58 -30q8 -19 8 -49
q0 -31 -11 -90q-11 -64 -12 -82q30 -1 111 -7v-2q-24 -10 -107 -39q13 -11 9 -23q29 -7 112 -37q57 -21 105 -21q26 0 57 5q10 -8 24 -8q12 0 33.5 8.5t29.5 9.5q11 -15 11 -29q0 -4 -2.5 -17t-1.5 -23q24 -6 47 -11q27 -8 40 -26h-56q-42 0 -42 -15q1 -1 -6 -42
q-8 -45 -8 -60q0 -7 2 -10q-2 -4 -9 0q-5 2 -6 -8q142 -13 132 -38l12 -2q12 47 38 139q-12 8 -12 22q0 15 19 48.5t20 41.5q6 47 13 94q7 56 4 95l12 12q0 65 3 196q-8 10 -89 36l-102 31q-12 -102 -12 -115q12 -1 41 -10.5t42 -9.5q6 0 11 2l6 -11q-38 -24 -80 -35
q-6 -33 -20 -96q18 0 18 -4q0 -5 -21.5 -11t-34.5 -3q-10 -9 -27.5 -10.5t-34.5 -1.5l46 -6q2 -6 -10 -9q-35 -10 -110 2l3 5l-12 2q-26 3 -14 5l4 1q14 2 75 1q-46 3 -54 4q-33 4 -54 12q-1 6 5 15.5t4 15.5q-10 -6 -13 -6q-2 0 -2 1q0 5 13 15l2 22q-1 -2 -3 -2
q-10 0 -9 88q1 107 1 111q-1 5 -2 7q-65 18 -149 21zM272 578q-3 43 -11 128l9 7q1 -5 2 -135zM688 499q-10 12 -10 55q0 25 4 66q4 49 5 52l12 16q-1 -97 -11 -189zM681 402q-5 50 6 75q3 -6 0 -37t-6 -38z" />
    <glyph glyph-name="five" unicode="5" horiz-adv-x="577" 
d="M506 767l2 7q11 -16 28 -34q8 -8 8 -15q0 5 -10 -56q6 9 7 9t1 -1q0 -3 -8.5 -20t-12.5 -23l-13 -41q-15 -1 -56 5q-45 6 -63 6q-24 0 -42 -10q-22 -12 -22 -34q0 -33 67 -85q84 -65 86 -67l2 3q52 -70 52 -142q0 -40 -15 -88q-3 14 -13 14q-3 -27 -14 -51q1 -7 4 -14
q1 5 10 31q2 -3 2 -7q0 -38 -47 -90q-56 -62 -123 -54l-2 -10q-15 -3 -30 -3q-74 0 -143.5 53t-92.5 122q4 -3 6 -3q3 0 3 4q0 8 -9 30l9 -13q-1 0 16 15q-5 5 -26 8q-15 3 -15 21t-9 47q-9 33 -11 47q-1 11 19 18q27 11 33 16l-3 12q20 17 63 47q24 -23 74 -97
q47 -68 50 -70q20 -12 40 -12q37 0 37 35q0 8 -3 18q-5 18 -22 25q-25 10 -30 16l-25 3q5 7 5 11q0 3 -11 7t-18 13q-20 -3 -49 27l-43 44l-20 79q13 9 39 29q-13 4 -37 -1q3 32 18 77q21 64 24 75q14 4 45 18l-30 16q11 32 39 50t62 18q18 0 35 -5q4 1 12 1q52 0 170 -31z
M73 298q3 -32 13 -42q5 -4 25.5 -8t35.5 -17l15 -3q-4 -2 -22 -18t-21 -13q-12 0 -12 -7q0 -4 7.5 -13.5t6.5 -10.5q22 -31 52 -66q59 -32 161 -32q39 0 61 7q29 11 51 42l35 58l4 -8q9 36 24 110l2 -28q3 15 3 30q0 92 -110 177q-105 48 -105 118q0 26 15 56q13 25 47 25
q15 0 50 -7t52 -7t30 5q25 50 25 74q0 11 -4 19q-97 36 -178 36q-65 0 -86 -31q18 -9 51 -31q-52 -12 -61 -17q-20 -12 -21 -50q0 -26 -8 -49q13 -15 43 -40q-17 -6 -50 -21q1 -9 -1.5 -30t-2.5 -32q0 -35 21 -50l99 -45q68 -31 73 -68q4 -27 4 -46q0 -40 -21 -56t-75 -12
q-75 21 -101 57q-22 31 -28 105zM321 752l-36 -9l5 21q4 -2 36 -3q29 -1 29 -3q-29 -11 -34 -6zM216 443q-9 7 -9 18q0 6 3.5 17t3.5 15q1 -17 2 -50zM226 195q-7 2 -21 26q-13 21 -14 27l20 -27q16 -21 15 -26zM378 111q46 12 84 66q7 18 14 49q4 -8 4 -17q0 -31 -40 -68
q-36 -35 -56 -35q-6 0 -6 5z" />
    <glyph glyph-name="six" unicode="6" horiz-adv-x="668" 
d="M479 793q2 5 5 5q7 0 13 -13q2 -6 11 4q26 -4 88 -7l4 -5h-7q-10 1 -20 0l46 -12q25 -10 22 -33q-46 -51 -133 -161q0 4 -2 5q-4 0 -8 -10q20 -11 59 -36q-3 -4 -3 -8q0 -7 9.5 -20t9.5 -18q0 -8 -15 -13q3 -6 3 -18q0 -26 -19 -82l-3 13q-9 -23 -25 -70l2 -2l11 26
q-4 -22 -17 -54q-16 -38 -30 -45q-9 -36 -99 -180q-10 -28 -34 -35q-8 -2 -36 -3q-18 -21 -52 -21q-13 0 -27 3v-3q-47 12 -51 11l-95 72q-50 45 -61 99q1 2 8 31q5 23 8 20q9 10 19.5 20.5t23.5 9.5l3 12l-28 6q5 12 5 11q0 1 -10 2q32 67 38 73l65 33q-1 1 -25 11
q-20 8 -18 15q4 35 41 65q-5 -4 -18 -26t-13 -30q0 -4 3 -2l27 44q19 27 39 33q12 3 33 3q13 1 13 3q0 4 -30 25q8 69 265 259zM358 618q3 -5 5 -11q0 -1 -14 1q-7 -7 -14 -15.5t-6 -16.5q-9 9 -10 9q3 0 -24 -22q4 0 13 5q0 -1 8 -12q15 0 14 1q1 -1 4 -11q-7 0 -17.5 -6.5
t-14.5 -7.5q1 -4 1 -6q0 -6 -15 -5q-19 1 -24 -2q-17 -12 -35 -37l-30 -41q29 -11 49 -10q0 -5 -16 -13t-20 -20q-40 -8 -46 -13q-17 -15 -27 -74q3 3 9 3q14 0 33 -13l-8 -13q-7 -2 -21 -14.5t-25 -11.5q-13 -42 -19 -88q6 -6 27 -36q16 -22 32 -31q-7 4 -7 12
q53 -52 168 -88q7 19 34.5 49t34.5 50l7 3q63 116 89 180q41 100 51 193q-23 22 -64 73q0 8 6 17t12 9q3 0 5 -2q36 63 119 142q-26 4 -73 17q-6 3 -14 3q-36 0 -98 -59q-45 -43 -79 -88zM509 509q-11 6 -34 21q3 -3 9 -1t9 -2q8 -5 16 -18zM236 455l-11 2q17 18 45 53
q-5 -20 -34 -55zM532 486q-2 -19 -17 -72.5t-23 -72.5q4 14 17 74q10 47 23 71zM305 426q-10 -9 -37 -63.5t-32 -72.5l-4 1q0 6 19.5 53t20.5 48q25 37 31 37q2 0 2 -3zM405 403l2 4q-12 -61 -49.5 -131t-80.5 -108q-18 8 -41 42q-1 23 25 97q-2 2 -2 6q0 16 34 79l46 81
l7 -10l22 21q0 -5 24 -25q16 -10 16 -21q0 -3 -2 -11t-2 -13q0 -6 1 -11zM275 309q-12 -47 -29 -89q14 0 16.5 3t3.5 3q19 20 25 59q8 43 19 60q9 13 24 71q-11 6 -34 -43q-18 -40 -25 -64zM152 330q5 16 19 46q-1 -10 -9 -25t-10 -21zM375 120q-13 -20 -44 -56q-6 0 -6 4
q0 9 20 29.5t30 22.5z" />
    <glyph glyph-name="seven" unicode="7" horiz-adv-x="718" 
d="M323 791l2 -5q29 -9 57 3q7 -1 23 -3q5 -1 13 -10q47 3 134 -3q101 -8 137 -8q-90 -113 -171 -341q-20 -57 -116 -376q-2 -8 -5 -8q-1 0 -6.5 3t-10.5 3q-19 -26 -19 -24q0 -2 15 -15q-12 3 -35 14q-27 13 -36 16q4 -10 -5 -19.5l-17 -17.5q-13 -2 -92 45q-75 45 -94 61
q-3 36 14 82l32 77q25 12 78 31q-10 4 -58 20q27 32 33 51q3 12 9 15q1 0 69 24q-1 0 -49 23q1 24 13 61q15 45 18 60l-117 29q-85 22 -104 40q1 12 -2 30q-4 23 -4 30q10 17 36 44.5t36 41.5l23 2q13 12 26 8q4 7 11 6t13 5q9 -3 30.5 -2t33.5 -2q19 16 43 14q3 3 9 3
q5 0 33 -8zM205 769q-20 -7 -50 -53l12 -2q0 1 -8 -13q79 -15 79 -17t-32 -4q-42 -2 -71 -8l-5 -18q5 -1 24 -7q16 -5 25 -5q8 0 15 3q17 -5 78 -14q43 -6 43 -14q0 -3 -4 -7q63 -5 62 -5q2 2 4 2q7 0 8 -11q-5 -2 -5 -6q0 -7 9 -13q-7 -5 -11 -3q-2 -9 -5 -17l-4 9
q-9 -18 -25 -55q32 39 39 39q1 -1 1 -3q0 -9 -21 -45.5t-32 -52.5q12 -4 51 -21q44 -19 44 -21q-21 -7 -63 -15t-62 -14l-1 15q-5 -9 -13 -33q38 -20 109 -66l-144 -16l-60 -148l82 -52q65 -39 75 -34q4 8 11 40q13 7 18 26q3 16 7 32q-2 14 0 42q3 34 12 34q5 0 10 -8
q6 29 34 81q29 56 36 82q12 54 26 109t50 103q1 10 1 21q0 2 12 6l8 29q-10 19 -10 18l21 4q-2 14 13 33t14 29q-14 5 -36 5q-11 0 -32.5 -1.5t-32.5 -1.5q-23 0 -38 5q-21 -2 -120 9q-92 10 -125 17l-3 -4q26 -4 73 -20q-8 -2 -16 -2q-13 0 -33 6q-27 8 -33 9q-1 9 -1 17
q0 1 -10 5zM334 638q21 -4 22 -4q-2 -3 -15 -3q-62 0 -146 21q10 3 32 3q34 0 72 -6t35 -11zM220 149q-1 1 -5 -2t-5 -5q6 22 20 51.5t17 40.5l12 22q-1 -23 -18 -57q-19 -38 -21 -50z" />
    <glyph glyph-name="eight" unicode="8" horiz-adv-x="612" 
d="M464 780q-3 -8 5.5 -10.5t16.5 -4.5v8q38 -16 89 -55q-4 -4 -4 -8q0 -9 14 -22q-3 -35 -24 -97q-2 4 -4 4q-8 0 -17 -49q3 7 11 18q-4 -22 -34 -81q-25 -50 -45 -80q4 -13 9 -8l-23 -99q-2 11 -5 11q-7 0 -17 -56q3 7 11 18q-4 -28 -49 -82l11 -3q-67 -141 -117 -171
l-20 2q-13 -16 -43 -16q-19 0 -43 6q-3 -1 -7 -1q-7 0 -19.5 8t-19.5 8q-26 21 -76 69v11q-33 35 -37 76q20 8 57 35q-18 5 -55 13q11 44 35 92l45 87l41 70q17 40 18 136q-1 8 25 16l32 8l-47 5q9 16 33 46q33 6 67 21v1l-48 5q82 79 121 79q12 0 21 -7l28 22q-3 0 64 -25z
M399 785q-12 -25 -39 -40q4 -1 11.5 1t11.5 2q10 0 14 -13q-19 -10 -24 -12l1 -1q-2 -4 -10 -12l-22 -9q-4 -25 -35 -42q10 15 27 47q-1 0 -47 -58q3 -2 35 -7v-8q-99 -2 -100 -223q-26 -18 -50 -53t-26 -64q3 -3 3 -7t-7.5 -11t-7.5 -10q0 -4 4 -7l-4 -6q-5 -10 34 -13
q-4 -7 -21 -18.5t-24 -11.5q-15 -56 -12 -77q48 -74 174 -109q3 14 18 29l24 25q23 27 44 80q25 64 38 84q31 50 35 90q7 60 15 85q7 21 61 138q38 83 43 147q-46 39 -76 54q-17 7 -88 30zM536 701l-52 35q38 -16 52 -35zM554 684q-9 -58 -33 -115q4 16 33 115zM452 618
q5 4 8 5q1 -1 1 -2q0 -13 -57 -122q-24 -12 -35.5 -31.5l-21.5 -37.5q-24 22 -34 72q2 1 7 12q0 10 8.5 23.5t8.5 17.5q0 5 -8 9q5 4 20 41q13 33 21 33q-10 -11 -16 -32q-7 -27 -11 -34q1 -2 2 -2q7 0 32.5 53.5t34.5 57.5q11 -8 34 -22q8 -4 8 -12q0 -3 -2 -10t-2 -11
q0 -5 2 -8zM332 499q1 -1 15 -7q-4 -11 -4 -18q0 -9 6 -9q10 0 23 22q0 9 -12 23q2 24 5 51q11 10 18 30q6 17 13 33q-2 5 -5 5l-10 -13q-15 -17 -27 -57q-17 -50 -22 -60zM327 358q-2 -8 2.5 -20t4.5 -17t-2 -10q3 -27 -30 -95.5t-57 -83.5q-31 10 -31 46q0 21 16 66
q-4 18 15 40q19 32 59 91q8 -5 23 -17zM267 303q-14 -23 -26 -66q-13 -46 -21 -61q2 -1 7 -5q19 17 26 44q3 10 9 51q16 14 16 24q0 8 -11 13zM197 207l31 71q3 -3 -11.5 -37t-19.5 -34zM336 101q-18 -18 -49 -53q12 16 33 49q1 0 16 4z" />
    <glyph glyph-name="nine" unicode="9" horiz-adv-x="588" 
d="M296 791l5 -3q15 6 33 6q52 0 129 -45q54 -32 79 -55q16 -29 16 -69q0 -71 -53 -176q-19 -37 -90 -152q-7 -2 -13 -5q1 -1 10 -1l-89 -139q-53 -82 -100 -131q-14 8 -16 8l-1 -1l7 -10q-63 -18 -106 -18q-36 0 -64 12q-6 6 -6 16q0 27 45 91q52 73 57 84q-75 14 -95 37
t-18 96q18 6 52 20q-16 5 -48 13l25 108q12 40 61 90l-25 4q14 33 48 95q15 6 45 20l-28 8l49 70q32 39 72 36q4 -7 9 -5l8 4zM114 393q2 -15 -5 -47t-6 -47l40 -34q36 -30 51 -30q7 0 10 6l13 -20q-47 -92 -111 -157l91 -20q60 38 135 155l112 180q-4 -2 -7 -2q-7 0 2 14
q7 10 13 20q16 4 31 38q15 31 18 61q-1 -1 -2 -1q-2 1 -2 4q0 8 14.5 60.5t17.5 73.5q-20 27 -61 65l9 -11q-27 20 -70 45q-60 34 -86 34q-19 0 -20 -16q-19 -18 -49 -60l33 -8q-26 -8 -41 -5q-6 -18 -50 -91q13 -3 39 -13q-17 -2 -49 -8q-39 -68 -63 -165q51 -7 63 -16
q-23 1 -70 -5zM410 733l57 -42l-40.5 22t-20.5 16q0 2 4 4zM381 510q4 -3 2 -9l-2 -10q-10 -14 -25 -47q-16 -36 -24 -49q-14 -26 -22 -38q-15 -24 -22 -25q-4 -1 -25.5 14.5t-24.5 20.5q-8 14 -8 31q0 26 42 114l48 101q19 34 34 34q17 0 33 -20.5t16 -38.5q0 -14 -9 -38
q-11 -30 -13 -40zM382 601q-9 -10 -40 -74q2 1 3 1q4 0 4 -9q0 -19 -7 -36l-34 -83q0 -4 3 -4q4 0 10 7q19 25 39 89q29 89 32 96q-4 4 -10 13zM405 525q2 -3 3 -8q-3 -6 -22 -58q-12 -35 -36 -59q-6 -9 -7 -9v0q0 11 62 134zM413 341q0 6 8 13q1 -2 -3 -6.5t-5 -6.5z
M197 260q-17 8 -33 17q-19 10 -29 24q22 -12 62 -41z" />
    <glyph glyph-name="colon" unicode=":" horiz-adv-x="352" 
d="M254 247q12 2 29 -5l26 -12q1 -1 5.5 -3t4.5 -5q0 -2 -1 -4l8 -5q-4 -25 -15 -45q-5 2 -9 -10q3 -1 3 -4q0 -12 -31 -50t-54 -57q-5 -4 -19.5 -4.5t-19.5 -7.5q-5 1 -9.5 -2t-5.5 -3q-5 -1 -11 -1q-21 0 -56 12q-31 12 -48 23q-21 14 -21 62q0 40 12 48q8 5 24 11
q13 4 13 6t-21 3l3 3q0 2 -4 4t-4 4q0 1 1 3q43 58 110 58q13 0 25 -2q17 -2 35.5 -5.5t29.5 -11.5zM208 252q-35 -16 -63 -48q8 -2 22 -12q-4 -8 -13 -8q-4 0 -13 2t-13 1q-1 -7 -7 -8q-1 -19 -17.5 -39t-16.5 -27q0 -18 55 -44q19 -6 58 -20q33 25 69 76q40 58 40 91
q-38 28 -101 36zM296 216q-12 5 -35 18q13 -3 35 -18zM307 211q0 -3 -22 -53q4 21 22 53zM176 168q4 8 15 18zM176 95q-25 17 -25 28q0 4 6.5 14.5t4.5 20.5q8 14 29 31l2 -3q13 22 31 22q8 -3 19 -14q5 -19 -21.5 -56t-45.5 -43zM202 182q-5 -7 -16 -19q-9 -15 -24 -49
q19 7 21 25q0 10 8.5 23t10.5 20zM227 80q-6 -11 -25 -23q6 11 25 23zM254 588q12 2 29 -5l26 -12q1 -1 5.5 -3t4.5 -5q0 -2 -1 -4l8 -5q-4 -25 -15 -45q-5 2 -9 -10q3 -1 3 -4q0 -12 -31 -50t-54 -57q-5 -4 -19.5 -4.5t-19.5 -7.5q-5 1 -9.5 -2t-5.5 -3q-5 -1 -11 -1
q-21 0 -56 12q-31 12 -48 23q-21 14 -21 62q0 40 12 48q8 5 24 11q13 4 13 6t-21 3l3 3q0 2 -4 4t-4 4q0 1 1 3q43 58 110 58q13 0 25 -2q17 -2 35.5 -5.5t29.5 -11.5zM208 593q-35 -16 -63 -48q8 -2 22 -12q-4 -8 -13 -8q-4 0 -13 2t-13 1q-1 -7 -7 -8q-1 -19 -17.5 -39
t-16.5 -27q0 -18 55 -44q19 -6 58 -20q33 25 69 76q40 58 40 91q-38 28 -101 36zM296 557q-12 5 -35 18q13 -3 35 -18zM307 552q0 -3 -22 -53q4 21 22 53zM176 509q4 8 15 18zM176 436q-25 17 -25 28q0 4 6.5 14.5t4.5 20.5q8 14 29 31l2 -3q13 22 31 22q8 -3 19 -14
q5 -19 -21.5 -56t-45.5 -43zM202 523q-5 -7 -16 -19q-9 -15 -24 -49q19 7 21 25q0 10 8.5 23t10.5 20zM227 421q-6 -11 -25 -23q6 11 25 23z" />
    <glyph glyph-name="semicolon" unicode=";" horiz-adv-x="350" 
d="M249 511q12 2 29 -5l26 -12q1 -1 5.5 -3t4.5 -5q0 -2 -1 -4l8 -5q-4 -25 -15 -45q-5 2 -9 -10q3 -1 3 -4q0 -12 -31 -50t-54 -57q-5 -4 -19.5 -4.5t-19.5 -7.5q-5 1 -9.5 -2t-5.5 -3q-5 -1 -11 -1q-21 0 -56 12q-31 12 -48 23q-21 14 -21 62q0 40 12 48q8 5 24 11
q13 4 13 6t-21 3l3 3q0 2 -4 4t-4 4q0 1 1 3q43 58 110 58q13 0 25 -2q17 -2 35.5 -5.5t29.5 -11.5zM203 516q-35 -16 -63 -48q8 -2 22 -12q-4 -8 -13 -8q-4 0 -13 2t-13 1q-1 -7 -7 -8q-1 -19 -17.5 -39t-16.5 -27q0 -18 55 -44q19 -6 58 -20q33 25 69 76q40 58 40 91
q-38 28 -101 36zM291 480q-12 5 -35 18q13 -3 35 -18zM302 475q0 -3 -22 -53q4 21 22 53zM171 432q4 8 15 18zM171 359q-25 17 -25 28q0 4 6.5 14.5t4.5 20.5q8 14 29 31l2 -3q13 22 31 22q8 -3 19 -14q5 -19 -21.5 -56t-45.5 -43zM197 446q-5 -7 -16 -19q-9 -15 -24 -49
q19 7 21 25q0 10 8.5 23t10.5 20zM222 344q-6 -11 -25 -23q6 11 25 23zM222 185q1 8 6 8q3 0 11 -5t11 -5q5 -6 29 -18.5t31 -24.5l3 5q-7 -25 -23 -75q-4 2 -8 -13q-2 -9 -5 -18q-10 -11 -27 -35q1 -5 -23 -45.5t-32 -50.5l-2 2q-5 -11 -16 -33l2 -1q-4 -7 -21.5 -19
t-21.5 -17l-2 5q-4 -4 -8 0q-7 6 -9 6q-10 7 -28 25q-1 -1 -3 -2q-4 0 -9 7t-7 8q-2 5 -2 10q0 6 4.5 18.5t4.5 19.5q14 19 26 50q9 26 19 52q15 3 44 15q-3 1 -33 26q4 21 19.5 57.5t27.5 54.5q4 4 10 4q5 0 14 -3t12 -3zM230 73l-25 4q-12 -15 -25 -57q-13 -37 -29 -54
q0 -18 -27 -73q7 -4 21 -14l6 2l28 37q2 -7 -2 -14.5l-8 -14.5q6 4 8 16q7 6 10.5 21t7.5 21q27 36 59 93q38 68 43 100q-7 0 -15 6q-11 9 -13 10l7 2q-11 6 -44 21q-2 -10 -8 -29q-8 -1 -9 -14q-1 -16 -4 -19q4 -7 -2 -16zM179 -1q-2 5 4 14q3 -5 -4 -14z" />
    <glyph glyph-name="equal" unicode="=" horiz-adv-x="576" 
d="M364 571q-12 -6 -12 -9q0 -1 61 6q65 7 82 -7q-5 -4 4 -13q16 -63 21 -116q-2 -2 -1 -6l1 -6q-1 -3 -5 -3q-2 4 -4 4t-5.5 -2.5t-4.5 -2.5q-3 0 -5 3q-3 -7 -1.5 -24t-3.5 -25q-2 3 -3 6q-1 1 -2 0q-1 -2 -3 -4q-19 7 -26 7q-8 0 -9 -6h-16q4 3 4 5q0 5 -23 4
q-23 0 -26 -2q-6 -5 -22 -5q-18 0 -54.5 6.5t-40.5 5.5q-7 1 -11 -1q2 -3 9 -7q-33 -2 -62 2q13 -2 14 0t-7 4.5t-18 2.5q-14 0 -23 -6q-7 2 -21 3q-18 1 -18 -4v0q0 -3 6 -7q-13 -1 -39 -4q11 2 11 7q0 2 -2 4q-16 -9 -21 -9q-6 0 -21 13q-7 20 -14 48q26 13 26 15l-32 5
q-1 1 -1 3q0 1 2 4t2 4q0 3 -3 4q0 6 6 23q6 1 5 5q-1 3 -8 5q8 1 22 9q-3 6 -3 12t4.5 12l4.5 6q0 2 -6 3q9 11 48 12q55 2 56 3l-3 3q93 10 136 6q-2 3 3 4q22 3 52 0zM258 544q-26 3 -44 3q-23 0 -49 -5.5t-47.5 -6.5t-25.5 -2q-9 -4 -9 -17q0 -10 4 -27h10q-5 15 -5 23
q0 14 19 14h6.5h6.5q22 0 31 11q11 2 15 -3q-5 -2 -41 -12q-26 -7 -25 -10q-3 -14 -3 -21q0 -9 7 -9h19q-12 -5 -35 -16q1 -8 4 -24q1 -5 26 -4h65q41 1 62 8q15 -2 73 -2q60 0 70 4q6 -4 15 -3q15 -8 49.5 -8.5t47.5 -4.5q0 28 -5 82q-4 -17 -6 -17l-5 47q-18 3 -61 2
q-39 -1 -60 4q-11 -4 -56.5 -2t-52.5 -4zM394 462l-6 -6v0q8 2 9 2q4 0 5 -4q-16 -2 -61 -2q-49 0 -57 6q6 7 36 7q16 0 48 -2q25 -2 26 -1zM275 459q1 -1 1 -2q0 -2 -10 -2q-8 -1 -11 0q2 6 20 4zM364 351q-12 -6 -12 -8t61 5q65 8 82 -6q-5 -5 4 -13q16 -64 21 -117
q-2 -2 -2 -6l2 -6q-1 -3 -6 -2q-1 3 -4 3q-1 0 -4.5 -2.5t-5.5 -2.5t-4 3q-3 -7 -1.5 -23.5t-3.5 -24.5q-2 3 -3 5t-2 1q-1 -3 -3 -5q-20 7 -26 7q-8 0 -9 -6h-16q4 3 4 5q0 5 -23 5t-26 -3q-6 -5 -22 -5q-18 0 -54.5 6.5t-40.5 6.5q-7 1 -11 -2q2 -2 9 -6q-33 -3 -62 1
q13 -2 14 1q1 1 -7 4t-18 3q-14 0 -23 -7q-7 2 -21 3q-18 1 -18 -4v0q0 -2 6 -6q-13 -2 -39 -4q11 2 11 7q-1 2 -2 3q-16 -8 -22 -8q-5 0 -20 12q-7 20 -14 49q25 12 25 14l-31 5q-1 1 -1 3q0 1 2 4t2 5t-3 4q0 6 6 22q6 2 5 5t-8 6q8 1 22 9q-3 6 -3 11q0 6 4.5 12t4.5 7
q0 2 -6 3q9 10 48 12l55 2l-2 4q93 10 136 5q-2 3 3 4q22 3 52 0zM258 325q-26 2 -44 2q-24 0 -48 -5q-27 -6 -48.5 -6.5t-25.5 -2.5q-9 -3 -9 -17q0 -9 4 -26h10q-5 14 -5 22q0 15 19 15q2 0 6 -1h7q21 0 31 11q11 2 15 -3q-6 -2 -42 -12q-25 -7 -24 -10q-3 -14 -3 -20
q0 -10 7 -10h19q-12 -5 -35 -16q1 -8 4 -24q1 -4 26 -3h65q41 0 62 8q15 -3 73 -3q60 0 69 4q7 -4 16 -3q15 -8 49.5 -8t47.5 -5q0 28 -5 83q-4 -18 -6 -18l-5 48q-18 3 -61 2q-39 -2 -60 3q-12 -4 -59 -2q-43 2 -50 -3zM394 242q-6 -5 -7 -6h1q8 2 9 2q4 0 5 -4
q-16 -2 -61 -2q-50 1 -57 6q6 8 36 8q15 0 48 -3q25 -2 26 -1zM275 240q1 -1 1 -2q0 -3 -10 -3q-8 0 -11 1q2 6 20 4z" />
    <glyph glyph-name="question" unicode="?" horiz-adv-x="490" 
d="M326 800l-2 -11q50 -5 52 -6q23 -6 36 -33.5t28 -54.5q17 -34 15 -56q-8 20 -11 22q-1 -1 -1 -3q0 6 8 -45l4 5q-1 -28 -2 -86q-1 -20 -8.5 -35.5t-37.5 -63.5l-3 -2q-13 -20 -83 -50q-61 -25 -61 -56q0 -9 4 -19q7 -4 11 -37q5 -42 -112 -42q-36 0 -51 5q-7 3 -9 13.5
t-4 19.5q3 3 3 9q0 4 -2 12t-2 11q0 10 16 9l17 12q-3 3 -19.5 6.5t-16.5 11.5q0 3 2 8q6 3 6 7q0 5 -13 18l41 78q31 47 72 43q4 6 16.5 10t15.5 7l-7 4q17 -1 22 7q55 6 55 42q0 33 -35 33q-49 0 -95 -88q-32 -18 -59 -47l-49 45q1 2 1 4q0 8 -19.5 22l-19.5 14
q2 18 15 49q17 40 19 49q11 1 32 6q-11 17 -10 17q-1 0 -5 -6q3 5 3 12t-7 11q6 50 84 88q70 34 138 34q16 0 28 -3zM137 692l10 7q1 -8 -6.5 -15.5t-9.5 -12.5q4 2 11 -7t6 -15q-24 6 -24 18q0 4 7 21l-22 -28q11 -3 22 -17q15 -18 19 -21q-3 0 -74 -21q-1 -10 -9 -30
q25 -22 79 -62q6 31 39 75q43 55 91 55q31 0 62 -24q18 -36 18 -64q0 -56 -74 -80l-94 -21q-25 -9 -30 -42q-5 -38 -15 -49q18 -12 38 -23q12 -7 12 -9q0 -1 -15 -9q-21 -11 -41 -29q-5 -11 -13 -34q28 -6 113 2q4 -6 10 -6t11 8.5t4 16.5l-8 42q-6 -8 -5 -4q3 10 0 17
q-2 -20 -8 -20q-3 0 -6 7l9 20v0q-1 -2 -7 -11q-4 20 16 34q18 10 35 21q55 2 97 45q56 59 56 140q0 16 -5 68l-4 -5q-8 23 -28 66q-29 50 -129 50q-108 0 -138 -54zM422 586q2 16 -6 36l-14 34l-23 23q-15 13 -28 15q-1 6 2 6t10 -5t8 -5q47 -11 51 -104zM217 634
q-16 -9 -40 -33q7 21 34 42zM129 537q0 1 -25 26q-14 15 -26 16q5 -10 23 -22q23 -15 28 -20zM175 431q-2 -2 -4 -21.5t-4 -19.5q-1 1 -3 9q-3 19 11 32zM252 183q20 2 39 -13q9 -9 18 -17q-5 -16 -19 -45q2 -7 -30.5 -48t-42.5 -43.5t-33 -10.5q-3 1 -5 -2.5t-4 -3.5
q-22 -2 -60 12.5t-50 30.5q-5 8 -3 35q3 44 3 37q5 8 21 9.5t21 5.5q-2 2 -18 8q-10 4 -9 13l32 32q20 17 40 15q10 8 34 2q2 4 3 4l1 -3.5t4 -3.5l31 -4q23 -2 27 -10zM156 147q10 -12 22 -5q0 -3 -11 -12q-8 0 -24 4q-4 -3 -16.5 -29t-14.5 -33q-1 -7 3 -13t9 -12
q13 -9 39 -16q31 -10 40 -14q3 6 11.5 11t9.5 6q17 15 40.5 51t27.5 57q-1 -8 -7 -16.5t-8 -8.5q-1 0 -1 1q0 6 10 28q7 13 8 11q-2 6 -26 15q-15 6 -31 11q-9 5 -18 5q-16 0 -32.5 -13.5t-30.5 -27.5zM283 159q-5 0 -29 13q10 -3 29 -13zM239 140q-3 -9 0 -11
q-15 -46 -57 -74q-5 5 -17 13q-1 1 -1 3q0 3 2.5 6.5t2.5 4.5t-4 1q4 3 2 10h-4q9 15 29 43q2 -1 4 -1q3 0 7 5.5t6 6.5q-1 1 11 2q8 0 19 -9zM205 130q-10 -9 -18 -27q-11 -25 -14 -29q6 0 17 25q14 31 15 31zM226 42q-10 -12 -23 -17q10 11 23 17z" />
    <glyph glyph-name="A" unicode="A" horiz-adv-x="807" 
d="M574 766q22 -11 53 -51.5t40 -66.5q-21 23 -25 23v-1q0 -2 37 -70t40 -98l9 -11q15 -42 32 -129q-5 4 -7 4q-4 0 -4 -8q0 -6 15 -75t15 -115q0 -24 -4 -45q-1 10 -10 10q-11 0 -29 -13t-21 -21q-90 -57 -186 -75q9 7 9 9q0 1 -1 1t-18 -5t-22 -3q2 23 -3 61q-6 47 -6 60
q12 3 12 21q0 35 -20 63l-66 -8q11 -2 23 -5q-6 -1 -31 -6q-1 -2 -23 -34q-20 -27 -20 -37q0 -8 12 -5q-11 -24 -23 -24q-3 0 -5 2q-16 -10 -44 -40q-31 -33 -45 -44l-4 7q16 18 16 17l-16 10q-22 -24 -74 -64q6 6 6 13q0 17 -68.5 43t-67.5 42q12 -7 15 -7l2 1q0 7 -36 38
q0 14 5 19q16 16 36 48q-2 -11 -2 -13v-1q-1 0 13 18.5t27 18.5q6 0 12 -4q33 14 25 14q2 0 4 -7q8 9 8 16q0 13 -54 14q7 15 15.5 30t19.5 23q-5 -8 0 -8q9 8 38 15q25 6 34 20q-8 6 -29 11q-24 6 -30 9q24 28 24 36q0 3 -4 2q65 123 65 131v0q-4 0 -32 -43q4 20 20.5 57
t20.5 57q12 8 19 25l8 30l-16 -16q16 37 28 91l4 -14q2 10 3.5 19.5t1.5 10.5q0 2 -1 2l-16 -5q10 10 47 11t49 21q-5 0 -16 -3q-2 -1 -2 5q100 22 178 30q3 -10 20 -17t20 -17zM505 765q-32 -18 -72 -18q24 8 72 18zM642 527q1 -18 10 -47q11 -35 14 -47q5 -6 14 -29
q7 -19 19 -26q-25 102 -57 149zM711 351q0 -27 12 -40q1 6 -4 17.5t-5 16.5q0 6 5 13q-4 -1 -8 -7zM556 276q-22 -4 -42 -7q26 -3 42 7zM531 779q-35 -5 -70 -9q-41 -6 -68 -16q-4 -18 -34 -99q-24 -67 -28 -100q15 38 18 38q1 -1 1 -2q0 -14 -17 -65t-26 -56q2 -19 -18 -39
q-23 -22 -26 -35q11 0 90 -18q-59 -62 -88 -62q-11 0 -19 6q-12 -3 -23 -7q-1 0 -8 -18q35 -8 67 -11q8 0 23 -15q-36 -38 -71 -38h-20q-14 1 -25 1l-43 -61q-3 -5 -3 -10q0 -13 38 -35q44 -25 52 -38q8 0 23.5 -11t25.5 -8q8 18 77 106q63 81 61 89q22 1 82 23q2 -3 4 -7
q0 2 -26 -11q45 8 49 10q18 7 32 30q14 -5 21 -42q12 -1 12 -11q0 -2 -1 -5v-5q0 -9 10 -9q4 -9 2 -58q-2 -48 -5 -58q12 -7 12 -16q0 -8 -12 -17l1 -11q20 17 28 17q2 0 2 -1q0 -4 -7 -13q15 9 50 21q6 6 44 21q31 13 34 28q2 7 2 21q0 54 -15.5 160.5t-24.5 112.5
q-19 69 -28 99q-23 68 -44 90l1 -19q-28 58 -69 113q3 14 -22 36q-14 -5 -21 14zM452 556q2 -29 3 -58q4 -52 10 -57q-1 -7 -6.5 -16t-5.5 -14q0 -7 11 -15q-2 7 4 8l12 2q10 -2 34 4.5t20 14.5q16 13 24 13l-1 41q-12 18 -35 79q-16 44 -30 44q-16 0 -40 -46z" />
    <glyph glyph-name="B" unicode="B" horiz-adv-x="620" 
d="M441 755l-13 14q38 -12 121 -94q-3 -10 1.5 -21.5t13.5 -11.5q2 0 5 1q0 -21 0 -17q0 -3 3 2q9 16 11 19l-14 -56q-9 -32 -20 -54q-6 0 -31 -28q-28 -32 -28 -51q0 -11 10 -17v13q5 -3 18 -34q12 -27 19 -27q4 0 7 9q19 -14 19 -34q0 -6 -3 -9q6 -14 13 -28
q10 -20 10 -31q0 -5 -3 -9v-8q0 -1 4 3t9 7q-13 -15 -32 -59q-21 -47 -33 -63l2 11h-6q-81 -118 -144 -152l7 14q-4 2 -9 2q-16 0 -42.5 -22.5t-29.5 -22.5q-2 1 -3 2q10 17 10 19t-6 2q-1 0 -11 -1h-17q-23 0 -50 4q10 -7 10 -8q-97 2 -187 66q-2 -2 -4 -2q-4 0 -9.5 6.5
t-11.5 5.5q4 16 17 42.5t16 37.5q6 5 23 8.5t23 10.5q-8 7 -21.5 11t-25.5 8q18 -3 18 18q0 8 -5 8q-4 0 -9 -6l18 86q15 75 15 106q0 30 -14 24q1 13 17 20q22 9 25 13q-6 6 -22 6t-21 2q-4 17 3 45q8 32 23 30q4 7 20 7.5t18 9.5q-5 2 -40 7q-24 4 -26 9q-6 39 -22 117h2
l9 -29q2 7 0 23q-3 20 -3 26q0 22 19.5 24t39.5 5t26 20q14 0 41.5 8t41.5 8q51 -1 106 -16zM154 770l8 -45q2 2 6 5v-1q1 -14 2 -34q-6 6 -8 6q-1 -1 -1 -4t6 -27t6 -39q22 0 57 -3q4 -1 17 -11q3 -23 -22 -32q-36 -13 -39 -17v-29l15 -4q4 -6 12 -6q3 0 8.5 1t8.5 1
q8 0 12 -5q-21 -36 -60 -47q3 -44 3 -74q0 -98 -29 -148q12 -11 38 -13q32 -3 42 -8q-6 -20 -28.5 -28l-43.5 -15q-12 -24 -16 -45q-3 -12 -5 -12t-12 5l-5 -9q16 -3 53 -24q32 -17 55 -16q7 -8 29 -9.5t27 -15.5q16 4 29 4q17 0 33 -7.5t21 -7.5q23 0 96 96h8q76 88 76 152
q0 34 -24 65q-4 6 -42 44q-22 23 -20 38l80 158q5 8 5 18q0 51 -107.5 105.5t-207.5 54.5q-50 0 -83 -17zM240 767q-1 -1 -1 -3q0 -16 94 -16q27 0 36 3q-26 8 -64 11q-32 3 -65 5zM192 751q13 -2 30 4q-27 0 -30 -4zM300 661q3 -19 2 -68q0 -43 9 -70q-2 -8 3 -25
q5 -2 11 -2q35 0 70 39q0 9 18 24q7 6 7 14q0 6 -5 17.5t-6 16.5q-61 58 -90 58q-10 0 -19 -4zM323 373q-14 -38 -34 -116q5 6 7 6q2 -1 2 -4q0 -8 -6 -18.5t-13 -7.5q-4 -23 -4 -25v-1q4 8 14 20q2 -6 -2 -19.5t-4 -17.5q0 -3 1 -4.5t7 -5.5t4 -9q38 8 56 29l-25 -12
q17 9 39 33q29 29 37 36q2 1 7 14q3 9 13 6q3 22 -24 48l-42 35q-7 -2 -17 5.5t-16 7.5zM480 163h1l22 37zM402 102q31 33 41 45q22 28 29 53q-11 -23 -40.5 -52t-33.5 -35q-3 -7 4 -11z" />
    <glyph glyph-name="C" unicode="C" 
d="M529 671l3 3q16 -21 47 -84q-4 -4 -19.5 -26t-15.5 -25q-62 -16 -62 -31q0 -3 5 -5q-6 -6 -22 -11t-22 -11q-13 13 -14 13q2 0 -24 -14q11 -8 11 -9t-11 -4q-18 -5 -36 -13q-6 10 -17 32q-6 14 -9 14q-6 0 -24 -60q-13 -3 -13 -50q0 -20 3 -20q2 1 4 5q5 -9 6.5 -53
t8.5 -63l55 48q8 -3 12.5 6.5t8.5 9.5t9.5 -4t10.5 -4q6 0 19 10.5t21 8.5q5 16 14 16q4 0 11.5 -2.5t11.5 -2.5l14 -14l1 8q68 -54 68 -97q0 -22 -17 -41q0 -12 0 -10q0 -2 2 0q8 7 10 10q-26 -68 -170 -173l-1 12q-18 3 -38 -14q-28 -23 -34 -26v11q-8 -4 -17 -4
q-14 0 -34.5 9t-21.5 9q-4 0 -2 -5l-22 11q4 2 4 6q0 17 -81 46q10 6 28 11q22 5 29 9l-74 14q-58 14 -58 43q0 7 3 15q-5 7 -6 7q-2 0 -4 -10q-33 40 -31 62l8 -10q0 51 -14 51q-4 0 -8 -4l-6 55l12 -39q0 27 1 54q1 4 55 28q-23 2 -30 14q-3 1 -21 1q-12 0 -18 7
q4 15 9 32t18 25q10 -3 26 0q21 4 26 4q2 3 2 6q0 16 -46 16q20 51 103 147q78 90 78 93q0 1 -1 1q-4 0 -24 -13q9 14 37 24t37 22l-23 -22q7 2 37 27.5t52 25.5q1 -13 7 -13q4 0 23.5 14t32.5 14q9 0 18 -6l-6 12q10 -19 48 -61q35 -38 47 -68zM421 774q-82 -32 -168 -124
q0 -3 -77 -109q-9 -13 -9 -22q0 -12 30.5 -19t36.5 -19q-31 -29 -95 -23l-10 -32q19 -8 52 -19q17 -6 17 -9t-17 -12q-29 -15 -49 -27q-2 -94 63 -169q-1 -5 16 -32q13 0 99 -8q4 -4 16.5 -2.5t15.5 -6.5q-7 -14 -27 -21q-28 -9 -33 -13q5 -7 60 -31.5t69 -26.5
q149 116 153 199l-74 80l-13 -3q-33 -45 -143 -115q-12 22 -20 21q-2 16 -16 58q-11 36 -11 58q0 8 1 16q-2 -6 -5 -12q0 -1 -6 3q0 106 19 101q13 47 28 69q3 5 42 52q9 10 16 10t17 -11q13 -16 16 -19q3 6 6 6q6 0 15 -27l10 -31q43 18 109 75q-11 45 -53 109
q-45 67 -81 86zM523 599q-12 13 -22 40q-13 31 -20 41q17 -18 42 -81zM213 555q-1 -4 2.5 -7.5t3.5 -4.5q0 -2 -1 -4q15 12 42 66q24 49 48 57q-4 1 -8 1q-24 0 -53 -42q-24 -34 -34 -66zM509 576q11 0 12 6l-5 5q-3 0 -6 -4t-1 -7zM469 282q-27 -14 -106 -72l3 -9
q52 28 101 75l23 -8q-3 9 -21 14z" />
    <glyph glyph-name="D" unicode="D" horiz-adv-x="639" 
d="M181 784q-2 -35 7 -73q22 6 31 -5q76 -7 76 -13q0 -4 -25 -13l-68 -25q2 -65 -4 -194q9 -6 9 -12q0 -4 -6.5 -13.5t-6.5 -16.5q0 -3 1 -6q45 -11 45 -17q0 -1 -49 -22q-7 -3 -7 -11q0 -3 1 -9.5t1 -9.5q0 -9 -6 -14q5 -44 5 -35q0 -19 -13 -14q-1 -25 -14 -61l-22 -59
q3 -3 3 -7q0 -12 -17 -31q13 -17 64 -45t75 -28q7 0 10 3q86 50 175 163q75 93 133 203q6 13 6 30q0 44 -36 108q-31 56 -63 87q-6 19 -35.5 37t-36.5 34q-71 40 -120 48q-96 16 -113 21zM211 549q9 13 22 61q11 41 21 46q-38 -5 -42 -25q-1 -41 -1 -82zM467 627
q51 -85 52 -87q24 -46 24 -86q0 -41 -25 -88q4 -3 26.5 38.5t27.5 62.5q-9 -3 -14.5 9t-3.5 21q-15 51 -87 130zM478 303q5 3 11 14q-9 0 -13 -7q-3 -6 2 -7zM195 101q45 -26 54 -26q5 0 17 12t33 20q-3 4 -3 7t4 5.5t4 5.5q0 2 -2 5q-46 -45 -56 -45q-3 0 -17 7t-34 9z
M330 587q-13 -45 -23 -111q-8 -56 -15 -111q5 -5 5 -14q0 -10 -8.5 -35t-8.5 -35q0 -18 19 -20q16 -2 63 35q56 45 61 48q17 9 17 18q0 1 -1 1q-3 -1 -9 -4q-2 5 3.5 9.5l10.5 8.5q9 -3 10 12q1 7 8 5q-22 107 -85 160q-3 2 -28 12q-17 7 -19 21zM332 445l24 -38
q18 -27 16 -38q-3 -12 -26 -30l-35 -25q10 23 13 65q4 50 8 66zM512 652l-26 20q6 -13 13 -25q11 -18 15 -18t3 18l76 -124l-20 17l18 -39q11 -24 23 -32q0 -2 -7.5 -17.5t-7.5 -21.5t8 -3q-2 -4 -16 -23q-12 -15 -12 -22q0 -6 7 -8l-14 -26q-1 3 -4 3q-10 0 -34 -34
q-19 -27 -24 -40q-14 -33 -69 -92q-51 -55 -51 -56h1q2 0 20 12q4 -4 -2 -12q-16 -22 -66 -52q-58 -34 -72 -46q-29 8 -26 8v0q0 -1 9 -11q-5 5 -11 5q-8 0 -17.5 -7.5t-17.5 -14.5q-3 -6 -9 -6q-5 0 -14 4t-9 1t4 -10q-57 23 -129 61q2 4 2 7q0 6 -9 9q-14 6 -19 10
q7 12 16 71q9 51 24 61q-1 22 10.5 69.5t23.5 65.5q51 12 51 16l-51 7q-3 5 -3 32q0 20 2.5 81t2.5 87q0 28 -2 41q16 21 39 21h7h7q17 0 29 13l-73 15q-14 3 -14 10v7q1 6 1 11q0 26 -13 64q8 4 48 9q29 3 27 20q21 12 53 12q72 0 171 -52q93 -48 131 -96z" />
    <glyph glyph-name="E" unicode="E" 
d="M491 789q-7 -1 -8 -3q0 -5 37 -12q34 -7 54 -8v-14q0 -2 5 1q0 -6 -5.5 -39t-5.5 -50q0 -26 11 -33q-3 -1 -20 1.5t-22 2.5q-8 0 -8 -3t4 -8q-30 2 -44 0l8 -6l-8 -5q3 -3 11 -5q2 -1 -1 -7q-20 0 -40 1q-13 1 -13 0l11 -7q-22 1 -45 3v0q-21 1 -23 1q1 -1 3 -2
q13 -4 27 -9q-39 0 -39 -4q0 -1 2 -9t2 -16q0 -18 -10 -42q-1 -8 -3 -19t-2 -14q0 -8 10 -8q11 0 52 10l-5 -7q21 -11 44 -11q13 0 10 9q31 -8 40 1l-4 -61q-4 -36 -20 -55q2 -5 2 -9q0 -8 -12.5 -18t-12.5 -20q-2 -4 -6 -4q-3 0 -8.5 2.5t-7.5 2.5q-5 0 -6 -8q-5 -4 -18 -4
h-19q-14 -2 -13 -19q-3 -5 -14 -1.5t-12 -4.5q-25 1 -31 -27l-10 -47l33 10q26 7 45 7q20 0 36 -7q-17 -3 -17 -6q0 -5 44 -9q41 -4 55 -3q1 -3 3 -6q1 2 8 11q1 -4 -15 -99q1 -17 -26.5 -22t-27.5 -9t12 -13q-3 -1 -6 -1q-5 0 -13 3.5t-12 3.5q-7 0 -11.5 -10.5
t-12.5 -10.5q-4 0 -7 5l-181 -19q17 8 17 11q0 1 -2 1q-27 0 -59 -21q-4 3 -10 3q-4 0 -17 -4t-20 -2q3 5 3 7q0 5 -41 -9q-48 -17 -63 -16q2 -7 2 14q0 5 -5 5q-4 0 -10 -2q2 5 14 61q8 37 22 57q2 94 18 197q16 99 29 119q5 7 22.5 8.5t23.5 6.5q-4 3 -23 4.5t-36 11.5
q-6 26 -2 131q5 -3 6 -19q1 -23 1 -24q4 14 3 36q-3 37 -3 36q11 14 36 19q35 8 40 10q-12 7 -35 5q-29 -3 -36 -1q-1 6 -1 12q-1 1 -11 1q0 7 -2 26t-1 29q2 -3 15 0.5t13 9.5q0 2 -2 5q23 1 47 3q2 1 5 13q19 -2 27 5.5t1 7.5q29 9 63 9q23 0 67.5 -5.5t65.5 -5.5t39 4
q-16 11 -75 11q12 6 32 6q31 0 98 -17zM193 767q-1 -12 6 -48q2 1 14 1q29 0 64 -5q41 -5 41 -12q0 -5 -27 -11q5 -2 5 -4q0 -7 -36.5 -12t-45.5 -5q-3 -22 -3 -79q0 -50 -7 -79q14 14 57 10q1 -1 21.5 -8.5t20.5 -13.5q0 -3 -4 -6q-22 0 -50 -9q-24 -8 -48 -17
q10 -4 10 -25q0 -19 -12 -81q-14 -78 -19 -123q-1 -6 -25 -96q-23 -85 -21 -93q121 48 352 42q10 20 24 95l-101 4q-59 2 -100 -4l-5 19q-5 3 -5 7q0 3 5 10.5t3 11.5l-7 -4q-1 4 -1 9q0 11 11 30t8 26q4 13 18 36q43 2 129 -4q5 26 14 66q7 27 7 36q0 16 -27 17h-105
l-18 10q21 21 21 171l10 15q36 3 89 1q44 -3 89 -5q13 51 13 80q0 18 -4 34q-79 27 -182 27q-67 0 -179 -14zM410 767q-4 -6 97 -16q-30 13 -97 16zM258 730q-13 1 -31 4q-4 0 -13 -6zM227 444q-1 6 -4 19q-11 -52 -11 -72q0 -18 7 -19q4 27 10 54t20 44q-3 1 -6 1
q-6 0 -10 -11q-5 -15 -6 -16zM188 227q3 -5 3 -11q0 -5 -2.5 -14.5t-2.5 -12.5q0 -5 4 -8q6 21 32 148q-9 6 -14 -5q-7 -39 -20 -97zM339 109q19 0 53 9h-28q-16 -1 -25 -9zM390 106l3 -3q5 2 13 6q-14 0 -16 -3zM212 85q39 5 116 20q-16 1 -64 -6q-52 -7 -52 -14z" />
    <glyph glyph-name="F" unicode="F" horiz-adv-x="598" 
d="M573 760q-6 -36 -13 -73q-11 -48 -30 -62q8 -11 8 -14q0 -5 -18 -5q-54 1 -56 1q4 -5 4 -8q0 -6 -13 -6q-11 0 -17 4q-22 -9 -46 -4q-6 -13 -6 -19q0 -5 3 -5q7 0 6 8q3 -4 -7 -49t-17 -45q-2 1 -3 5l-6 -22q8 -4 18 -4q4 0 26 3q17 3 27 -1q-23 -5 -23 -7q0 -3 35 -5
q39 -2 49 -6q4 -2 4 -13q0 -24 -19 -78q17 34 19 34q1 0 1 -1q0 -20 -21 -59q-3 1 -5 1q-10 0 -9 -21q-12 -21 -44 -23q-43 -3 -53 -8q-26 -13 -32 -61l17 38q-2 -30 -36 -108q-43 -96 -48 -114l5 -7l-22 -11l-2 10q-2 -1 -29 0q-21 1 -21 -7q0 -3 2 -8l-18 -10l-1 12
q-4 -2 -8 -2q-7 0 -19.5 4.5t-15.5 4.5q-7 0 -5 -11l-75 27q14 1 14 4t-22 8l-26 6q10 8 20 34q5 18 49 27q-3 5 -22 6t-19 10q0 4 3 10q-7 7 -7 17q0 -2 7 30l-2 -30q17 29 5 45q21 87 25 180q50 12 57 16q-8 1 -15 2l-34 -2q-10 6 -10 49q0 53 7 59q3 -6 6 -11
q-1 -8 -1 36l-7 -7q-1 10 -1 20q0 18 4 48q5 34 6 48q1 -16 3 -32q1 8 8 48q6 0 16 8t15 8q3 0 6 -3q13 1 38 10q-8 8 -28 8h-8h-8q-30 0 -27 27l-14 17q7 2 7 16q-1 17 0 20q3 -3 7 -3q3 0 21 9.5t37 9.5q7 0 14 -1l-5 5q8 -2 38 1q35 3 30 12q60 -13 146 -21
q130 -12 181 -19zM193 765l2 -56q5 -3 6 2q1 3 -1 6q22 1 46.5 3t29.5 2q17 0 17 -14q0 -5 -1 -12q-20 -12 -99 -35q0 -5 -9 -99q-5 -60 -2 -99q-8 1 -10 -8q-1 -7 1 -15q92 -1 92 -14q0 -6 -14 -14q-10 -12 -27 -14.5t-33 -5.5t-16 -23q0 -6 2 -19.5t2 -20.5q0 -16 -8 -23
t-16 -73q-8 -74 -11 -84l59 -5l12 -13q-11 -6 -55 -16q-12 -3 -21 -39q46 -10 115 -38q-5 18 14 40h-7l26 57q20 49 12 49q-2 0 -7 -4l16 47q11 33 8 44q21 25 21 32q0 3 -2 4q14 8 37 11l38 4q4 -5 10 -5q4 0 13 3t13 2q1 20 15 55t15 54q-50 3 -142 19q15 3 28 58
q12 51 12 97q0 23 -4 33q4 7 14 3.5t14 1.5q39 -7 116 -15q13 8 23 57q7 34 13 67q-161 23 -248 23q-65 0 -109 -10zM501 674q3 28 10 48q3 -30 -10 -48zM203 635l-6 -45q-5 -34 -5 -55q0 -28 8 -37q20 43 20 135q-1 -10 -9 -21q6 34 2 34q-3 0 -10 -11zM413 420
q14 -8 26 -3q3 7 -10 8q-12 0 -16 -5zM446 417q-6 -12 -15 -34q-10 -29 -6 -34q23 42 21 68zM170 185q-7 23 10 58zM160 200q0 21 8 31q0 -6 -8 -31zM301 86q-3 13 4 30l14 28q-1 -11 -18 -58z" />
    <glyph glyph-name="G" unicode="G" horiz-adv-x="686" 
d="M589 731q18 -23 48 -73q-5 3 -8 3q-5 0 8 -24q16 -29 17 -43l-13 -9q1 -1 8 -4l-87 -58q13 -1 29 11q23 16 27 18q-41 -35 -61 -35q-14 -9 -43 -23q-37 -18 -52 -18q-4 0 -6 2l-22 -9q2 16 2 25q0 18 -13 18q-19 1 -28 11q-2 -15 -18 -38t-31 -29l-28 -59l35 8
q-6 5 -12 11q3 0 19 6q6 -4 12 -4q5 0 16 4.5t18 4.5l2 4q0 -1 -23 3q3 3 48 5q40 2 54 2q1 -6 13 -11t22 -5q9 0 9 5q0 2 -2 4l77 -7l-24 -5q6 -10 26.5 -9.5t26.5 -6.5q-19 -50 -19 -59q0 -1 1 -2q2 0 14 21q-19 -89 -38 -107v-1h6q-39 -105 -103 -160q-55 -47 -172 -89
l11 11q-7 -1 -26.5 -10.5t-30.5 -9.5q-6 0 -11 2q-13 14 -18 14q-2 0 -3.5 -3.5t-2.5 -3.5q-19 15 -26 20q-13 12 -21 24q16 -11 19 -11v0q0 9 -51 50l4 -12q-30 21 -61 61q23 -16 26 -16v0q0 2 -28.5 32.5t-34.5 44.5q7 -4 11 -4q5 0 10 21t30 30q-69 6 -69 21v4v4
q0 11 -9 21v-35q-11 21 -11 92q0 45 7 58l4 -8q5 15 17 42q47 9 47 12q0 2 -19 6.5t-26 10.5l16 14q-8 3 -8 8q0 7 24.5 28.5t22.5 31.5q27 39 72 80l-11 -25q21 7 41 38q17 25 51 25q17 34 34 46q4 3 64 35q-7 -9 -22 -17q-22 -13 -25 -14q22 2 51 23q34 25 49 30l-17 -14
q6 -2 11 -2q13 0 38 11.5t42 11.5q12 0 24 -4l2 17q69 -98 69 -77q0 3 -1 8zM296 666q-75 -50 -101 -121q36 44 117 122q-4 -1 -8 -3t-8 2zM596 633q6 -11 6 -20q0 -19 -23 -19q-2 -11 -16.5 -18.5t-17.5 -16.5q4 3 52 28q32 17 31 22q-9 2 -32 24zM354 544q6 -3 38 29
l37 40q-23 -14 -75 -69zM345 283q21 -47 32 -47q7 0 12 21q6 27 7 29zM360 75q-17 -12 -37 -14q12 14 37 14zM495 780l-110 -52q83 -15 82 -22q0 -4 -49 -12q-60 -9 -86 -19l25 15q-44 0 -87 -33q-33 -25 -70 -72l-50 -68q14 -5 43.5 -4t41.5 -2q5 -6 20 -4t19 -1
q-5 -14 -31.5 -20t-33.5 -16q-5 0 -14.5 -3.5t-14.5 -3.5t-9 3l-23 -2q-15 -1 -20 -9q6 -86 0 -167q99 -10 99 -15q0 -2 -26 -13q-34 -15 -56 -30q80 -88 124 -156q26 -41 32 -41q4 0 25 11q28 13 61 23q4 8 20 23.5t22 15.5q3 0 3 -5q0 -8 -9 -28q53 67 83 80q34 15 50 61
q9 25 18 88q9 57 19 78q-18 1 -54 11q36 6 45 6q13 0 16 -9q2 -4 4 -32q8 16 8 26q0 26 -99 28q-69 0 -139 -1q-1 -10 2.5 -30t3.5 -29q0 -15 -7 -26q9 -1 70 -4q22 -1 22 -9q0 -7 -34 -70q6 2 11.5 15t14.5 14q-24 -52 -64 -78q-17 4 -35 24q-28 32 -29 33q2 -13 2 -18
q0 -7 -6 4q-9 15 -13 17q-5 17 -24 59q-18 37 -21 61q15 4 28 33l15 45q18 4 27 38q41 29 72 71q24 32 31 32q12 0 64 -80q53 23 138 84q-41 75 -62 106q-47 70 -85 79zM307 350q5 24 -5 24q-4 0 -4 -4q0 -11 9 -20z" />
    <glyph glyph-name="H" unicode="H" horiz-adv-x="810" 
d="M704 127q6 -2 6 -13q0 -12 -8 -37l-10 -29q4 30 4 37v2q-1 0 -7.5 -22t-9.5 -28l-44 -5q-27 -3 -31 -22q3 1 -56 1q-12 0 -12 -3q0 -2 10 -6q-8 -3 -23 -1q-17 3 -22 2q-4 13 -46 24q-46 13 -54 20q-1 20 6 51q10 41 12 50q-3 -37 -3 -56q0 -25 4 -17q3 8 6.5 33.5
t3.5 45.5q0 18 -3 21q0 25 27 26q38 1 44 5q-57 14 -57 20q0 1 2.5 6.5t2.5 11.5q0 9 -6 22q-16 -5 -45 -4q-32 0 -46 -3q-8 -35 -8 -32v0q1 0 13 13q1 -65 -22 -117q-3 20 -7 20q-5 0 -14 -36q-11 -46 -15 -54q-8 -3 -14.5 -12t-11.5 -9t-14 5l-43 -24t-43 -12
q-38 0 -107 34l27 -4q-12 14 -42 19q-23 5 -23 22q0 12 7 34q5 15 41.5 20t37.5 17q-4 2 -10 2t-17 -2.5t-15 -2.5q-14 0 -18 17.5t-4 40.5q0 20 4 52q5 41 6 51q8 -6 19 -6q27 0 51 27q-13 11 -45 15q-18 2 -18 37q0 16 2 43l10 -42q11 30 11 83q0 14 -2 14q-5 0 -16 -44
q-1 7 -1 19q0 23 6.5 87t6.5 84q0 19 -4 23q70 29 70 36q0 2 -34 17t-44 45q18 4 18 15q0 8 -8 15q14 1 33 -5q16 -5 31 -11q11 12 14 27q2 11 9 11q8 0 48 -12q45 -13 69 -13q19 0 34 7q-1 -4 -1 -6q0 -8 19.5 -12t22.5 -18q3 -21 3 -47q0 -25 -6 -93q-6 -59 -4 -92
q-1 -4 -1 -8q0 -16 22 -16q24 0 24 10q0 7 -22 11q51 -2 67 10t13 55q72 18 72 22q0 1 -37 5t-46 14q12 14 12 25q0 7 -9 22t-9 27q0 13 7 28q10 -18 14 -18q2 0 2 5q0 11 -5.5 29.5t-10.5 21.5q4 4 19 4q6 0 20.5 -1t22.5 -1q27 0 27 10q0 6 -11 17q5 9 25 4.5t28 2.5
l87 -22q49 -15 81 -37q-9 -2 -9 -5q0 -8 39 -13q0 -28 4 -85t4 -85q0 -20 -1 -36.5t-7 -16.5q-2 0 -5 4q-11 1 -17 -55q-6 -68 -13 -136q-11 -98 -34 -170zM309 575q-1 45 0 135q-4 1 -7 1q-8 0 -8 -15q0 8 15 -121zM723 499q10 87 10 190q-22 -169 -22 -174q0 -18 7 -18
q2 0 5 2zM715 401q6 13 6 36q0 28 2 38q-8 -1 -10 -37q-3 -36 2 -37zM296 272q-5 -27 -11 -54q-8 -42 -8 -63q0 -15 3 -21q18 59 18 110q0 15 -2 28zM752 697q-9 12 -89 38q-61 20 -101 30q3 -7 3 -15q0 -11 -9.5 -39t-9.5 -44q0 -9 3 -18q102 -20 102 -28q0 -5 -23 -13
l-60 -22l-8 -105q-2 -19 -27 -19h-16h-20q-28 0 -56 -2q43 -5 43 -9t-43 -5q-41 -2 -66 0q-12 8 -12 11q0 5 16 5q5 0 16 -1h16q18 0 19 4q-38 1 -100 10q-5 2 -5 5t5.5 9.5t5.5 9.5t-4 5q-13 0 -13 6q0 5 8 16.5t8 15.5q-2 -2 -4 -2q-13 0 -12 100q2 107 3 104
q-41 6 -88 18q-36 8 -44 8q-11 0 -14 -8t-4 -33q4 -1 57 -7q23 -3 23 -9q0 -10 -72 -48q1 -11 10 -18q13 -11 16 -15q-36 -45 -36 -126q0 -25 4 -68q4 -48 5 -65q55 -8 55 -21q0 -11 -68 -43q-4 -29 -7 -58q-8 -47 -19 -45q68 -47 68 -62q0 -8 -18 -8q-6 0 -43 4
q-19 -42 -19 -54q0 -16 34 -18q88 -8 112 -12q55 166 48 239q-2 7 -2 13q0 16 21 16q8 0 36 -3.5t47 -3.5q20 0 38 3q14 -9 28 -9q10 0 31 7t33 7q-10 -53 -10 -68t8 -15q3 0 13.5 2.5t18.5 2.5q26 0 52 -23l-58 -10q-2 -3 -7 -3q-4 0 -14 3.5t-14 3.5q-9 0 -7 -15q2 4 3 4
q6 0 6 -32t-9 -44l-11 12q-6 -32 -2 -45q-4 8 -7 8q-8 0 -4 -16q14 -1 67 -12q63 -13 63 -19q0 -3 -12 -4l27 -5q14 47 37 143q-12 -1 -12 14q0 16 18 65q19 54 21 66q31 206 31 359zM67 168l-5 86q-6 -1 -6 -17q0 -12 11 -69z" />
    <glyph glyph-name="I" unicode="I" horiz-adv-x="469" 
d="M354 759q-9 0 19 -11q34 -13 35 -21l5 16q5 -37 -6 -170q-2 12 -5 12q-5 0 -10.5 -47.5t-3.5 -60.5q6 6 9 21.5t5 19.5q3 -56 -11 -104q-6 6 -8 6q-5 0 -2 -19l4 -24q-11 -113 -35 -183l-4 10q-4 -9 -14 -40q-13 -38 -13 -51q0 -5 2 -5q3 0 10 7q-8 -30 -29 -86q1 6 2 15
v0q-1 2 -1 4q-1 0 -4 -5q-6 -7 -10 -11q-35 0 -46 6q-5 -13 -19 -38l2 19q-4 -16 -26 -16q-5 0 -22 1q-13 2 -19 1l-57 22q-34 13 -53 27q-20 -5 -20 15q0 10 6.5 32t6.5 25q0 2 -1 3l-13 -19q1 10 15 73q-2 -17 -2 -23v-4q3 0 14 43t13 46q52 3 52 5q0 1 -14 7
q-19 8 -30 17q0 5 3 27q2 16 0 27l-6 -31q-9 43 3 107q-1 -15 5 -43q9 24 9 58q0 24 -6 37q6 25 8 68q2 50 5 68l5 -35l4 59q1 12 11 12q-2 0 21 -1q19 -2 40 0q-9 6 -31.5 11.5t-41.5 21.5l-2 18q0 -1 -6 -15l1 29q2 -2 4 -2q9 0 3 61q3 2 7 5q1 1 0 2q-4 2 -7 4q2 11 7 11
q-1 0 21 -4.5t50 -5.5q-3 4 -3 7q0 4 4 9.5t4 7.5q0 3 -5 5l3 8q104 -11 168 -41zM225 600q-4 1 -5 -3t-3 -5q0 -22 -7.5 -76.5t-7.5 -81.5q0 -19 2 -33q16 6 18 22q5 69 11 103q-2 0 -5 -1q-2 0 -2 4q0 3 2 18q3 21 5 41q-8 -18 -9 -19v1t1 9.5t1 13.5t-1 7zM200 391
q-8 -31 -5 -36q14 38 14 33q0 5 -9 3zM305 199q-22 -47 -30 -94q-5 -23 -18 -23q-6 0 -43 5q18 -7 55 -20q11 -4 23 47q7 28 13 56q1 8 2 15q2 10 -2 14zM203 776q5 -16 2 -44q-2 -32 0 -45q20 1 50 -10q37 -13 50 -15v-13q-65 -21 -97 -21q-3 -19 -5 -37q-1 -5 5 -10
q-3 -11 -23 -138.5t-20 -132.5q29 -5 57 -11q42 -9 50 -16q-5 -2 -6.5 -10t-4.5 -11l-102 2q5 -2 5 -16q0 -22 -15 -82q-15 -63 -16 -69l75 -28q44 -16 76 -21q12 20 18 55q-9 -23 -10 -24v1q0 2 6 27t7 31q7 -1 8 9q-1 8 -1 17q2 21 15 43q-2 9 -2 25q0 38 32 231
q31 185 28 264q-21 0 -50.5 6.5t-29.5 10.5q0 5 41 4q-26 9 -71 16q-58 9 -72 12z" />
    <glyph glyph-name="J" unicode="J" horiz-adv-x="628" 
d="M521 776q16 -16 50 -19v-12l12 22q0 -13 5 -38t5 -37q0 -16 -7 -29q3 -17 3 -39l15 25l4 -3q-1 -4 -5 -54q-3 -41 -9 -51q1 -8 -6 -53q12 -8 3 -33l3 -3q-7 -45 -31 -131l-7 -3q-1 -24 -16 -57q-19 -45 -22 -56l20 25q-17 -44 -46 -95l-52 -89q-15 2 -55 3q5 -6 19.5 -10
t19.5 -12l-42 16l-15 -26l-7 9q-6 -5 -16 -5q-6 0 -18 2.5t-17 2.5q-8 7 -24 11q-25 5 -27 6q6 -5 51 -21q37 -14 42 -22q-23 9 -69 21q-7 8 -81 33.5t-103 56.5v3l21 -4q-12 6 -29 27l38 15q-15 -5 -39 5l4 -6q-3 -3 -7 -3q-9 0 -20 13t-14 13q-3 -1 -4 -2q-12 15 -17 23
q-8 13 -11 26l23 16v6l-16 -15q32 76 88 111l16 -9l-1 8l11 -9q14 15 50 38l13 -10l-1 8q14 0 15 -17l28 -24l-3 -2q5 -8 44 -47q-17 18 -20 31q3 -2 12 -13t14 -11t9 5l10 95q7 59 22 93l13 4l-3 5l20 3l-3 -5l20 8q-5 8 -32 9q-23 1 -24 17l-8 -5q-4 15 0 51q3 32 -5 49
q-10 24 -3 32l3 -12l16 20q15 -3 47 15q-15 1 -34 10q-22 9 -32 11h2q-12 55 -9 73l15 5l-8 8l52 -8l3 9l8 -11l3 25l14 4l-5 8zM544 725q-4 0 -13 -7q5 -120 5 -122q8 -9 5 -27t1 -26q10 15 11 67q1 37 1 74q-9 5 -9 15q0 2 1 7.5t1 8.5q0 6 -3 10zM422 599v29
q-9 -11 -2 -29h2zM198 319l-3 -7q1 -1 6 -6.5t8 -5.5q2 0 5 3q-3 7 -16 16zM186 310q-21 -18 -51 -59q2 0 5 3t4 3t3 -1l-5 -10q22 19 49 54zM402 779q12 -13 0 -44q5 -20 31 -25q21 -4 42 -7q2 -18 -20 -26q-33 -13 -35 -14q-7 -47 -1 -108l-5 -9q36 4 44 -3l-9 -6l5 -5
l17 3l10 -7q-2 -17 -21 -25q-17 -4 -33 -9l6 -6q-8 -57 -15 -113q-15 -99 -34 -119q-2 12 5 27q-5 -16 -17 -47h10l-7 -23l-3 15q-19 -17 -32 -17q-11 0 -26 14q-19 18 -30 23l-2 6q-25 18 -84 90l-6 1q-36 -59 -74 -96l23 -44q47 -7 98 -21q-6 -11 -25 -17q-22 -8 -28 -13
l105 -52q62 -31 111 -31q13 0 25 2q27 43 56 113l48 117l-6 -2q9 25 20 75h2q3 23 10 70q-2 -3 -3 2t2 5q1 0 3 -1l-3 23l4 3q7 97 7 143q0 105 -22 130q-25 3 -71 14q-49 11 -72 14z" />
    <glyph glyph-name="K" unicode="K" horiz-adv-x="734" 
d="M292 783q12 -7 40 -6.5t41 -7.5l-34 1q5 -3 50 -15v-10l23 -14l2 2l-2 -119q11 -11 2 -36l14 8l-19 -25q19 4 35 34q19 37 28 44l3 -6q2 5 19 15q13 8 10 19q2 0 5.5 2.5t3.5 4.5q-1 1 -4 1q13 -16 26 -16q7 0 12 8l3 -4q3 4 20 14q13 7 11 20l5 8q19 -13 67 -49
q53 -40 59 -50l-22 -8q-16 -29 -56 -82q5 4 5 0v-5l3 -2q13 19 44 54q-43 -62 -60 -83q-41 -51 -73 -66l56 61q-16 -11 -43 -41.5t-40 -38.5q-1 6 -5 6q-9 0 -21 -15l36 -109q16 -14 62 -68l-4 -3q18 -24 60 -64q-7 -29 -37 -70v8q-1 -1 -44 -39q-3 0 -22 -2q-13 -2 -22 3
v-6q-7 2 -17.5 -10.5t-17.5 -11.5q-8 -6 -16 -6q-9 0 -25.5 9.5t-23.5 10.5l8 -14q-60 44 -101 95l20 -14q3 7 -5.5 12.5t-8.5 9.5q0 2 2 5q24 9 34 20l-47 -1l-25 -50q3 -3 3 -7q0 -8 -14 -12q-7 -29 -19 -29q-3 0 -4 1q-21 -16 -36 -13l-13 13l-18 -31q-3 3 -6 3
q-5 0 -16 -7.5t-13 -8.5q-6 -3 -15.5 7.5t-15.5 10.5q-4 0 -8 -2l3 -7q-24 8 -70 27q-4 -1 -7 -1q-8 0 -10.5 12t-8.5 15l18 65l-1 1q-17 -44 -29 -89h-4q23 78 65 234l-12 -4q21 9 25 28q28 3 58 12l-66 19q1 4 4 38q2 24 18 31q32 -3 56 8q-5 7 -25 12q-25 5 -31 10
q-9 6 -9 37q0 40 12 45q2 6 2 29q0 17 9 26q-9 47 8 59l1 -7q11 7 30 9q26 3 31 5q2 3 2 6q0 8 -24 14q-28 7 -39 22l-6 -17q-5 6 -2 18q6 17 6 19q0 7 -7 11q0 5 -1.5 15t-1.5 14q0 12 9 18l2 -3l17 17l-9 8l54 -9l10 15l4 -3q-1 3 -1 5q0 13 17 14l-9 6l78 -12
q-2 -3 -5 -5zM592 519l-61 -46q-1 -7 -12.5 -19.5t-14.5 -19.5q65 44 88 85zM253 322q-35 -13 -45 -13q12 10 45 13zM208 269h-5q-17 -39 -42 -149l3 -6q12 26 29 78q19 61 15 77zM581 180l-8 4q-5 3 -8 -3q3 -2 17 -19q11 -13 20 -13q4 0 9 3l-2 4q-8 5 -17 10t-11 14z
M598 141q-7 -9 -35 -25q-24 -13 -29 -32q7 10 38 26q25 13 29 31h-3zM172 95l1 -3l10 -2q7 -1 7 2q-6 5 -18 3zM353 748l-130 29l5 -32l5 22q10 -14 -2 -45l-3 3v-5q-4 -18 22 -24q6 -2 42 -5q4 -10 21.5 -12t22.5 -9l-21 -7q-12 -17 -40 -23l-47 -10q-2 -63 -20 -149
q-2 0 -5 -10q-1 -8 14.5 -8.5t18.5 -4.5q18 -6 56 -16q-9 -9 0 -12q-3 -6 -16 -10t-15 -11q-26 2 -61 -11q-8 -25 -5 -37q14 1 30 0q7 -8 27 -12t28 -10q-30 -10 -90 -25q-13 -58 -13 -57q0 -8 4 -9q-8 -9 -13 -29q-8 -30 -9 -31l11 23q-5 -14 -1 -41q-7 -11 -14 -35
t-11 -33l7 -10h-20q12 29 28 92l-1 2q-11 -33 -28 -100q109 -35 120 -30l42 80l-2 3q10 7 26 46q15 36 24 40v-12q5 1 6 11t10 9q18 -16 39 -39q9 -9 14 -9q-5 0 20 2q20 2 49 1q0 -14 -15 -26q-21 -15 -24 -20l55 -50l9 -3q3 -11 18 -20q12 -6 24 -13q73 38 91 92l-10 2
l-100 108q-27 29 -38 66q-15 46 -27 65q26 17 72 61q12 1 27.5 17.5t25.5 18.5v11q22 19 87 111l-78 67l-95 -98q-64 -57 -116 -63q1 9 -8 42q7 17 7 58q0 14 -1 40.5t-1 36.5q0 28 5 37q-14 3 -38 16z" />
    <glyph glyph-name="L" unicode="L" horiz-adv-x="639" 
d="M358 762q-2 -4 31 -13q21 -5 42 -11q8 -11 8 -20q0 -2 -2 -9h1q2 1 15 7q-8 -32 -15 -88q-7 -64 -12 -88q-9 5 -15 -28q-7 -41 -15 -50q-4 -17 -6 -51l8 10q2 -3 2 -5q0 -9 -14 -16l-4 -33q6 11 9 8q-7 -49 -10 -62q-8 -35 -23 -56q0 -5 117 -9q138 -4 141 -4l-26 -7
l26 -14q-11 -19 -21 -62.5t-25 -68.5q-24 2 -27 -11h-27q-15 -2 -16 -16q-3 -1 -19 -3q-12 -2 -15 -9l-41 -2q6 5 6 7q0 3 -8 3q-20 0 -37 -7l-3 -6l-41 -7q2 4 2 6t-4 2q-3 0 -17 -2.5t-22 -2.5q-10 0 -15 4q-86 -14 -257 -48q-1 13 -6 11q4 14 21 81q3 15 7 15q6 -1 5 -1
q18 0 52 31l-26 10q-13 28 -13 42q0 8 6 26q8 24 12 46q-5 6 -5 18q0 11 4.5 32.5l5.5 26.5q3 -3 8 -6q-2 0 6 28q2 -3 4 -5q1 3 7 18q7 5 35 21q19 12 19 15q-1 1 -4 1q-11 0 -47 -8q-10 18 -10 20q0 -5 4 29l6 -26q2 19 3 27q4 14 12 23l1 -8q47 12 47 14q0 -1 -23.5 5
t-29.5 22q-6 -6 -10 -6t-4 11q0 10 4.5 37t4.5 32l3 -3q10 0 15 80l6 98q7 1 13 4q-4 1 -23 9l67 -13q2 6 4 13q0 -3 4 -15q7 1 8.5 18.5t15.5 15.5l-22 11q86 -14 142 -38zM407 703q-9 -5 -18 -56q-8 -46 -7 -65q1 5 16 60q10 36 9 61zM214 355q-21 -46 -21 -99
q0 -12 4 -12q12 17 19 49q9 39 14 51l-11 -9q-2 2 -1 8q1 8 1 10q0 4 -5 2zM363 204h22l-2 -6q14 1 40 -1q32 -3 42 -3q40 0 60 23q-106 0 -162 -13zM452 204l-29 2l-3 -2h32zM167 73q32 5 97 13q-36 2 -80 -5q-19 -3 -17 -8zM243 776q-1 -17 3 -17q2 0 4 3q2 -2 2 -9
q0 -13 -5 -28t-9 -11l-1 -48q10 -1 3 -60q9 -16 -5 -40l-5 11q-10 -23 -8 -37q4 -1 48 -9q35 -6 35 -11q0 -4 -14 -8q0 -11 -27 -20q-21 -8 -35 -9q-12 -10 -11 -45l37 -6q29 -5 29 -11q0 -4 -17 -10q-8 -11 -27 -16q-28 -8 -30 -9l-37 -169l-8 -7q0 1 0 -12q29 -14 69 -14
h12.5h8.5q6 0 6 -1q0 -2 -71 -43q8 -2 18 5t15 7q4 0 7 -2q0 -16 -26 -16h-13h-13q-28 0 -29 -16q5 3 8 3q4 0 4 -5q0 -6 -12.5 -30.5t-12.5 -29.5q135 34 376 49q-9 8 -21 8q-5 0 -15.5 -2.5t-15.5 -2.5q-11 0 -19 8q17 6 59 6q29 0 29 -8q0 -4 -7 -10l16 -5q19 11 36 64
l-11 1q1 2 5 19q3 11 11 15v-16q11 31 8 46l-57 1q-3 -9 -126 -4q0 4 3 8q-6 0 -27.5 -6t-31.5 -6q-14 0 -19 10q3 3 3 7q0 8 -11 11q7 1 13 2q0 1 -5 4q1 7 3 14l5 -11l18 66q-4 -3 -12 -28.5t-12 -25.5q-2 0 -4 3q1 3 52 211q28 117 47 235q-109 38 -183 57z" />
    <glyph glyph-name="M" unicode="M" horiz-adv-x="1005" 
d="M407 759q25 6 54 -44q18 -32 46 -104q26 -67 34 -79q2 2 11.5 14.5t14.5 12.5q4 0 6 -7q25 27 50 39q34 15 47 25q-10 3 -10 11t11.5 23t11.5 18q0 2 -4 2q-7 0 -27 -7q6 14 37 54q26 33 28 59q19 0 32.5 -7l13.5 -7q6 0 27 38q8 1 15 1q26 0 71 -21q50 -24 71 -27
l14 -30q1 16 20 12q-33 -116 -33 -174q0 -22 8 -22l4 2q-4 -51 -35 -193q-36 -161 -54 -171q-4 -2 -5 10q-1 6 -1 14q-9 0 -39 -72q-33 -77 -55 -92l21 -12q-9 -2 -36 4q-30 6 -37 6q-11 0 -11 -6q0 -8 14 -25q-3 -2 -9 -2q-9 0 -28.5 6.5t-23.5 6.5q-5 0 -5 -4q0 -3 2 -7
q-26 -3 -88 23q30 1 30 7t-49 21q14 40 32 120q-20 -17 -39 -35q-32 -29 -32 -40q0 -3 3 -5q-44 -50 -80 -55q0 21 -3 21q2 0 -19 -21t-48 -25q2 27 -16.5 72t-18.5 69q-9 -42 -16 -66q-14 -49 -24 -58l-5 32l-13 -32q-8 -5 -20 -5q-17 1 -20 0q-15 -2 -15 -27l-9 33l-8 -26
q-13 -5 -28 -5q-25 0 -75 18q-53 20 -73 22q24 6 24 8q0 -3 -16 29l18 48q13 31 26 42q12 -5 29 -2q14 3 28 7q3 11 -15.5 12t-18.5 23q0 15 6 38q-7 -27 -21 -37q8 24 16 79q8 52 17 79q4 -19 9 -19q7 0 7 21q0 31 -16 40q3 17 15.5 18t11.5 13l41 12q-41 15 -41 68
q0 29 12 74q10 32 19 65q7 -7 14 -7t32 26q-13 -1 -26.5 13t-17.5 14t-8 -6q-8 23 -3 37q4 9 13.5 14.5t9.5 7.5q0 3 -25 15q5 4 54 5q25 1 25 8q0 4 -7 11q5 4 19 4q28 0 83 -17q45 -14 69 -26zM924 606q7 31 15 94q-21 -4 -21 -59q0 -35 6 -35zM260 537q4 51 15 74
q5 13 20 29t22 36q-39 -12 -42 -14q-10 -6 -12 -31q-1 -47 -3 -94zM693 560q-25 -9 -56 -34l-50 -42q6 -6 51 25.5t55 50.5zM895 467l-33 -82q-21 -51 -21 -85q0 -10 2 -19q1 5 17 32q10 17 10 30q0 7 -3 13q28 58 28 111zM528 211q37 25 39 25h1q0 2 -48 -48q23 8 63 55
l52 68q-5 6 -10 6q-7 0 -31 -30q-35 -46 -66 -76zM412 242q0 -1 21 -49q-2 16 -5 31q-3 20 -10 20q-3 0 -6 -2zM808 784q-21 -16 -34 -57q-15 -48 -28 -62q20 -4 20 -14q0 -13 -22.5 -28.5t-34.5 -15.5q-4 0 -5 2q-16 -17 -166 -145q-11 8 -15.5 32.5t-15.5 31.5
q1 -13 -3 -13t-11 16t-7 28q0 8 4 11q-8 35 -33 85q-33 69 -39 83q-10 5 -32 11q8 -7 8 -10q0 -2 -5 -2q-21 0 -122 40q-6 -20 -6 -32q0 -24 28 -26q41 -2 51 -9l-83 -44q-5 -21 -5 -83q0 -54 -13 -81q82 0 82 -10q0 -5 -34 -18q-43 -15 -51 -20q-5 -1 -9 -10t-9 -9
q6 -19 6 -40q0 -29 -15 -78q-16 -57 -19 -78q39 -17 39 -16q-1 0 -19 -4q28 -1 39 -16q-22 -22 -44.5 -24.5t-30.5 -11.5q-17 -19 -41 -88q77 -29 122 -36q11 11 39.5 119.5t55.5 136.5q7 -2 10 5q1 6 0 13q28 -8 60 -109q21 -67 34 -134q25 10 113 110q81 93 104 130
q13 -6 13 -22q0 -8 -4 -25t-4 -24q0 -22 28 -22q16 0 42 6q-25 -29 -45 -30.5t-25 -10.5q-10 -17 -26 -99q12 -12 43.5 -24t54.5 -12q9 0 15 2q83 152 127 327q34 136 57 347q-25 17 -68 32zM602 183q13 4 41 8q4 0 4 14l-38 2q7 -5 7 -9t-11 -6.5l-11 -2.5q2 -3 8 -6z
M7592 0z" />
    <glyph glyph-name="N" unicode="N" horiz-adv-x="912" 
d="M385 230q-6 -22 -9 -22t-6.5 19t-5.5 22q-16 -18 -37 -81l-30 -90q-8 1 -24.5 -15.5t-16.5 -28.5q0 -5 3 -7q-51 0 -41 -3q2 -4 2 -6q0 -3 -16 -4q-6 -1 -6 -4q0 -4 4 -10l-117 32q7 4 7 9q0 7 -28 14q-33 8 -37 10q9 8 15 32t19 32q20 35 43 62q18 21 18 22q0 2 -37 8
l39 106q53 27 53 26q0 1 -37 3l10 77q11 45 47 45q-8 -5 -9 -8q1 -1 3 -1q21 0 28 18q-4 1 -9 1q-6 0 -18.5 -2t-18.5 -2q-12 0 -20 6q4 29 19 85q7 -10 12 -10q8 0 11 71q3 85 20 121l24 -12q10 -6 10 2q0 3 -3 12q4 -2 7 -2q17 0 19 29q37 -13 37 -5q-1 3 -5 6
q26 -1 68 -15q49 -15 68 -18l-18 -7q30 4 59 -41l40 -73l-16 4q8 -40 36 -101l47 -98q36 25 63 35q-30 0 -54 32q7 6 7 20q0 18 -5 18q-2 0 -3 -5q-5 30 3 45h1q2 -26 8 -40q8 16 9 42.5t7 37.5q9 20 40 33q-28 15 -28 45q0 11 17 70q21 -17 32 -17q10 0 15 16q9 25 12 30
q10 -19 57 -32q59 -16 76 -28q39 -24 39 -73q0 -22 -7 -50q12 2 12 -19q0 -44 -60 -200l-68 -174q-5 3 -10 3q-14 0 -31 -53l19 18q-18 -68 -50 -108q-1 -1 -26 -22q-18 -16 -18 -24q0 -4 3 -6l-36 -2q-21 -4 -21 -27h-21q-2 11 -30 19t-50 8q-9 0 -13 -1q2 9 -5 24.5
t-14 15.5q-6 0 -8 -17q-17 27 -33 90t-32 88zM319 748q-5 -13 -8 -13q-2 1 -3 3q-38 -121 -38 -165q9 14 30 86.5t19 88.5zM434 713q5 -72 60 -178q7 -1 9 -7q2 -9 7 -12q-6 33 -32 104q-30 81 -44 93zM358 343l-13 -24q1 -1 1 -4q0 -10 -20.5 -64t-20.5 -65l33 63
q23 49 23 76q0 10 -3 18zM210 337q-25 -59 -25 -82q0 -4 1 -6q4 13 17 33q10 17 10 32q0 10 -3 23zM705 257q-26 -47 -73 -144q2 -3 2 -7t-4 -12.5t-4 -12.5q14 20 45 82q35 70 35 89q0 4 -1 5zM424 363q10 -6 25.5 -39t15.5 -43q0 -2 -1 -2q-4 0 -22 31l33 -81
q26 -64 22 -77q28 9 29 -58q21 -4 58.5 -20.5t57.5 -21.5q16 21 14 37q36 69 103 208q9 19 22 72q11 47 24 69q24 42 38.5 146t18 110t3.5 10q0 16 -23 15q-26 30 -80 33q21 -8 54 -28q-71 13 -71 28q0 4 8 7l-22 9q-12 -18 -15 -65q61 -9 61 -16q0 -4 -23 -14
q-33 -14 -49 -24l-30 -127q6 -1 11 -1q9 0 23 4t21 4q10 0 18 -7q-20 -2 -20 -6q0 -5 26 -6q-66 -45 -106 -58q2 -21 -16.5 -59t-35.5 -50q-37 64 -80 194q-45 138 -76 198q-16 5 -58 9q-36 4 -61 15q-7 14 -32 12q-1 -6 -44 -230q40 -33 69 -33h1v0q-10 0 -75 -35
q-1 -3 -7 -36q-4 -22 -14 -34q18 -1 36 -1q32 -2 32 -6q0 -2 -10 -6q5 -2 5 -5q0 -14 -82 -29q-2 -18 -16 -61q-12 -38 -14 -60q20 -12 40 -20l14 -6q0 -1 -19 -7q-28 -9 -60 -23q-9 -3 -15.5 -37t-19.5 -40q75 -44 130 -53q11 -2 49 129q48 162 56 183q16 39 29 39
q9 0 36 -33q9 -11 14 -4zM778 403q-5 22 -5 25q0 9 16.5 82t22.5 88q0 -47 -7 -102q-10 -76 -27 -93z" />
    <glyph glyph-name="O" unicode="O" horiz-adv-x="751" 
d="M563 752l75 -40q54 -28 63 -47q-2 -4 -2 -8q0 -14 19 -36q-7 -62 -36 -154q-4 15 -5 16q-1 0 -8 -29q-10 -38 -27 -73q25 41 28 41v-1q0 -4 -16 -35l-38 -78q2 16 -3 16q-4 0 -10.5 -11t-6.5 -18q0 -4 3 -4t9 3q-119 -269 -217 -266q-25 -19 -63 -19q-63 0 -146 47
q-73 41 -113 87q3 3 3 6q0 8 -13 25t-15 22q-6 17 -6 38q0 28 11 66q4 -6 11 -6q17 0 37 38l20 10q-28 5 -43 13q11 16 2 16q-3 0 -8 -4q13 42 14 46q11 25 28 38q7 23 39 33q41 14 49 20l-49 19q0 9 -5 9q-5 1 -10 -4q28 59 64 93q-16 -24 -45 -76q30 39 76.5 76t68.5 36
q-16 19 -36 23q-1 24 31 51q26 22 53 32l-12 6q9 4 19 4h10q7 -1 11 -1q21 0 45 19q-12 8 -8 10t60.5 -17t63.5 -24q23 -21 27 -21q2 0 2 4q0 3 -1 9zM427 769l-26 -25q5 -3 5 -5q0 -3 -16 -11q-19 -10 -25 -20l17 -6q-4 3 -4 6q0 4 6 2q6 -3 12 -11q26 8 28 -10
q-15 -8 -47 -21l-3 -14q-6 2 -12 2q-31 0 -67 -38q-31 -33 -44 -64l59 -11l-7 -12q-6 1 -11 1q-13 0 -26.5 -20t-35.5 -20q-16 0 -33 -45q-23 -58 -23 -59q16 3 28 2q19 0 19 -10q0 -13 -24 -31t-36 -16q-19 -64 -19 -94q0 -60 72 -105q-3 6 -3 9q0 4 5 4q13 0 37 -15.5
t24 -24.5q0 -6 -9 -7q27 -22 145 -61q9 25 44.5 63.5t44.5 64.5q11 -2 15 11q4 17 8 20q70 129 103 212q48 121 56 228q-66 61 -118 86q-37 18 -139 45zM645 637q-34 13 -87 60q43 -23 47 -26q25 -16 40 -34zM290 584q-10 -2 -11 0l55 48q-2 -13 -19 -26q-21 -17 -25 -22z
M617 428q7 36 24 93q21 72 26 92q7 -1 -2 -39q-20 -83 -48 -146zM385 542q-10 -25 -45 -88q-30 -55 -42 -90q-4 -1 -6 1.5t-2 6.5q13 19 36 74q21 49 41 72q3 23 18 24zM466 381q3 0 3 -4q0 -18 -51 -87q-48 -64 -69 -80q-15 5 -29 23l-22 30q-1 8 -1 16q0 27 29 107
q-1 3 -1 7q0 16 13 45t22 37q49 122 61 122q5 0 3 -15q5 4 13 16q6 8 13 8q5 0 11 -2q65 -26 65 -73q0 -27 -22 -73q-37 -74 -38 -77zM413 528q-48 -68 -104 -253q10 3 12 -6q38 35 55 95q-7 -6 -11 -6q-2 0 -2 3l7 22q5 19 28 69q20 43 25 69q-4 8 -10 7zM192 412
q1 5 25 63q5 0 5 -6q0 -12 -30 -57zM296 322q1 4 14 45q2 -16 -14 -45zM474 154q-19 -24 -53 -73l-9 -2q43 79 62 75z" />
    <glyph glyph-name="P" unicode="P" horiz-adv-x="730" 
d="M527 747q-18 5 -24 5q-3 0 -3 -1q0 -4 19.5 -12t28.5 -8q1 0 22 -23q18 -20 22 -20q2 0 2 2q0 5 -8 22q13 -1 28.5 -43.5t30.5 -45.5l34 -72q25 -58 21 -69q-13 -5 -27.5 -22t-17.5 -30q2 -11 -38 -39l-68 -48q-8 0 -8 1l8 14l-16 -13q-2 -13 -66 -35q-67 -23 -76 -48
l5 -2l-64 -117q-38 -67 -73 -113q-11 12 -22 12q-7 0 -9 -7q-4 3 -9 3q-9 0 -20 -16q-15 -20 -17 -22q-35 14 -27 14q-1 0 -3 -9q-11 6 -18.5 12t-8.5 6t-5 -9q-19 8 -74 48q12 0 12 1q0 -2 -10 9.5t-8 28.5l-10 -15q1 9 11 39.5t15 37.5l-10 -34q3 2 19 40q16 34 23 34
q3 0 5 -3q60 32 60 33h-1.5h-3.5h-4q-38 0 -38 36q0 27 22 74q-4 4 -4 13q0 11 9 41q9 27 8 34q22 17 63 44q23 16 23 19q0 5 -62 4q4 35 17 102q3 -4 5 -4l4.5 16.5t17.5 21.5q36 14 61 30l-40 -5l10 -4l-16 -4l-10 13q-8 2 -16 3q0 6 1 17q-1 2 -1 4q-6 -2 -11 -5
q-1 7 -1 13q0 9 14 64l5 -8q17 18 50 18h8l4 -1h1q0 1 -24 10q4 3 13 1q11 -2 14 -2q6 2 5 11q31 -7 31 3q0 3 -5 8q46 -3 114 -16q93 -17 111 -37zM305 776q-10 -20 -16 -61q12 1 35.5 -2.5t33.5 -3.5q13 0 24 3q1 -3 1 -7q0 -10 -15.5 -21.5t-17.5 -19.5q-4 1 -26 -11
t-28 -14q-2 -18 -13 -53t-11 -54l32 -4q20 -2 30 -12q-3 -24 -31 -39q-45 -23 -47 -25l-55 -166l8 -8q31 5 46 5q26 0 -3 -22l-70 -47q-8 -26 -45 -102q19 -18 61 -50q7 2 26 -5.5t27 -8.5q10 28 70.5 133.5t79.5 123.5l-10 3q10 9 24 11q21 2 26 4q22 8 77 48q50 37 81 43
q35 39 83 86q-74 158 -138 207q-72 56 -239 69zM648 513q-9 17 -27 27q-4 16 -36 63q-29 43 -28 48q13 -5 48 -63zM500 557l2 10q15 -19 11 -30l-10 14q8 -18 8 -36t-8 -33q-1 4 -5 10q-44 -33 -62 -33q-14 0 -13 23q0 4 -3.5 -2t-4.5 -6q-4 9 -4 11q0 1 5 11q7 14 14 37
l6 -3q15 32 13 58q5 1 10 1q30 0 41 -32zM609 460q15 25 43 43q-4 -12 -43 -43zM235 316q-4 -2 -4 5q0 6 3.5 21.5t3.5 16.5l-8 -12q11 49 35 103q1 -7 1 -14q0 -22 -15 -61t-16 -59zM276 131q10 26 35.5 73.5t35.5 71.5l1 -9l18 30q-40 -100 -90 -166zM260 107
q-2 -17 -17 -27q-7 17 17 27z" />
    <glyph glyph-name="Q" unicode="Q" horiz-adv-x="717" 
d="M455 794q63 -20 125 -51q99 -50 99 -90q0 -5 -2 -10l13 9q1 -30 -31 -142q-36 -124 -62 -136q-1 -9 -12.5 -24t-11.5 -25q0 -3 2 -7h1q-6 -12 -29 -40q-19 -24 -25 -41l17.5 -19t19.5 -10l23 -24l-23 13q4 -9 31 -33q24 -20 22 -23q14 -7 14 -15q0 -10 -36 -36l30 11
q-24 -12 -100 -75q-25 8 -26 8q-4 0 -12 -7q-15 -15 -32 -27q-10 2 -24.5 11.5l-14.5 9.5v-1q1 -2 11 -14q-44 16 -68 38q-20 17 -22 17q-5 0 -20 -13l9 16q-34 -16 -46 -16q-4 0 -11 3t-15 3q-6 0 -14 -1q19 -5 56 -20q-51 6 -156 48q-6 13 -47 42.5t-57 66.5h-4
q0 7 11.5 32.5t11.5 32.5t-6 6q3 6 10 6q3 0 8.5 -1.5t8.5 -1.5q6 0 10 6q-28 30 -28 50q0 7 4 16t4 12q0 4 -3 9l29 79q17 47 38 75q-2 -17 13 -17q13 0 23 9q10 8 -3 13q20 7 20 8q0 -1 -30 12q12 14 12 24q0 4 -2 8q1 12 13 25q19 22 20 23l-4 -13q25 25 51 67
q-12 0 -21.5 -19t-21.5 -21q15 26 51 58q43 39 55 54q6 1 18.5 8.5t12.5 12.5q0 2 -1 3q1 2 36 8t35 14q0 2 -3 5q8 7 16 7q5 0 20 -5q12 -5 20 -1zM408 776q-112 -121 -160 -198q5 1 33 0q29 -1 29 -4t-21 -6q7 -3 15 -8q-1 0 -13 -7q13 1 13 -2q0 -5 -37 -19l-45 -16
q-19 -9 -27 -34q-9 -30 -18 -39l-12 -65q-7 -38 -25 -57q3 2 9 2q13 0 29.5 -6.5t20.5 -14.5q-76 -31 -76 -72q0 -40 68 -82q57 -35 121 -51q9 -16 46 -11l23.5 23.5t24.5 17.5q2 -6 48 -40.5t55 -36.5q56 34 103 81q-30 10 -72 46q-48 40 -50 65q0 15 46.5 68.5t46.5 71.5
q0 4 -1 7q18 17 51.5 118.5t33.5 140.5q0 7 -1 11q-20 41 -90 64q-87 28 -106 43q-3 2 -7 2q-3 0 -9.5 -2t-9.5 -2q-4 0 -6 2q-3 7 -13 8q-15 1 -17 2zM450 743q-6 -3 -19 -2q-13 0 -13 6q24 0 32 -4zM381 729q-31 -38 -95 -109q-5 13 35 55q35 37 60 54zM586 453
q13 29 51 154q-5 -23 -20 -123q-3 -23 -31 -31zM500 568q-4 -9 2 -20q-4 -26 -19 -62q-24 -57 -25 -60q6 -14 -65 -118q-9 -3 -19 -17q-13 -20 -15 -21q-37 23 -78 55q-3 5 3 17t6 17q0 7 -5 12l24 55q17 22 39 75q29 67 38 85q19 26 36 26q12 0 33 -13q22 -16 45 -31z
M326 418l15 23l1 -2q-4 -12 -7 -25q-6 -15 -16 -13q-5 -9 -11 -27l8 5q2 -3 2 -7q0 -8 -13 -21t-13 -19q0 -5 4 -10q5 10 32 6q38 41 38 63q0 5 -4 7l56 127q-14 14 -24 14q-6 0 -11 -7q-29 -47 -33 -55q-19 -34 -24 -59zM264 368h-2q16 58 54 125q-13 -38 -52 -125z
M562 111q-26 -21 -53 -35q0 6 21 19t32 16zM497 80q-1 -2 -7 -1q-6 2 -7 4t-3 5q1 1 3 1t14 -9z" />
    <glyph glyph-name="R" unicode="R" horiz-adv-x="775" 
d="M558 754q26 8 96 -45l87 -72l-19 8q2 -5 14.5 -11.5t11.5 -14.5q-16 -15 -5 -24q-25 -19 -44 -77v18l-62 -72q-52 -58 -93 -88q-5 -15 -23 -12q16 -30 13 -30q1 1 5 7l18 -30q-11 2 -8 -5q3 -8 5 -17q19 -17 45 -52q33 -45 43 -56q-5 -7 -5 -8t16 -10q-15 -26 -45 -49
q-26 -20 -26 -19q0 -1 1 -1q4 0 34 7q-15 -10 -30 -16q-10 -4 -10 -5q1 -1 8 -6l-31 -22q2 6 2 9q0 5 -4 5q-10 0 -40 -20l-34 -22q0 9 -5 9q-6 0 -21 -13t-19 -13t-2 12q-4 -1 -7 -1q-6 0 -17.5 6t-16.5 6q-18 21 -46 68q4 2 21.5 15t17.5 15q-7 -2 -19 0q-17 2 -21 2
q-17 0 -24 -13q-21 -34 -30 -47q-18 -26 -37 -42l-36 8q-9 -3 -21 -17.5t-18 -18.5q-11 2 -22 5q-13 2 -21 -2q-17 20 -62 51q-30 21 -30 40q0 21 30 62q45 9 45 11l-21 3t-22 11q-1 7 3 18.5t4 17.5q0 5 -2 10q2 17 20 46.5t21 46.5q17 2 50 13l-31 11q-4 10 9 49
q13 36 11 38q-4 -6 -9 -19.5t-7 -13.5q0 27 18 43q5 -2 11 -4q10 0 10 19q-1 25 1 30q28 -4 65 17l-7 11q-22 -6 -44 10q0 1 13 45q10 34 10 42q0 3 -1 3q-2 0 -11 -14q-3 23 13 85q4 -22 6 -22t4 24q3 33 5 48l12 8q-1 0 -12 7q3 2 5 4q0 7 -6 5q7 5 25 5.5t25 7.5
q17 -4 27 -4t10 3t-11 8l6 5l-8 5q7 4 25 4.5t26 6.5q135 -12 198 -46zM289 568l36 -8q45 -8 45 -14q0 -3 -19 -11q-23 -11 -34 -21q-5 -9 -22 -15q-20 -6 -25 -11q3 -9 2 -17q-2 -11 -12 -7l-28 -77q2 -3 6 -1q3 2 2 5l20 -8q0 -8 19 -9q10 0 13 -6q-33 -25 -57 -32
q-12 -3 -24 -5q-6 -2 -8 -19q20 8 33 17q10 6 11 6q2 0 10 -10l-47 -39q-15 -15 -19 -57l-10 3l-16 -13q21 -13 56 -19q28 -4 28 -9t-11 -14q-14 -2 -43 -12t-45 -10q-6 -17 -14 -29t-8 -14q0 -5 24 -18q55 -27 96 -50l9 22q-10 -5 -14 -5q-2 0 -2 2q0 3 56 76q58 77 67 121
q7 -16 51 -91q14 9 29 9q6 0 16 -1.5t15 -1.5q12 0 20 8q12 -1 12 -4q0 -1 -7.5 -6.5t-7.5 -9.5q0 -3 2 -5q-3 -17 -23 -19q-23 -3 -28 -14q9 -8 26 -36q15 -24 29 -32q94 48 133 112q-27 32 -41 62q-10 19 -12 19q-3 0 -16 -10q-6 19 -37 64q-26 38 -28 67q62 43 147 129
q109 113 66 134q-128 85 -145 94q-87 47 -165 47q-15 0 -31 -2q-38 6 -49 -63q-18 -112 -31 -142zM361 746q-21 -50 -36 -146q8 33 17 66q13 52 22 52q-1 25 29 25q13 0 43 -5.5t42 -5.5l1 6q-50 11 -118 8zM475 641q-10 -3 -26 -60l-18 -71q-7 -23 -7 -21l1 -1l9.5 8.5
t23.5 16.5q14 0 14 -6q0 -4 -5 -12q55 44 70 57q26 24 26 38q0 24 -88 51zM498 393l133 126q-25 -56 -133 -126zM664 486l-28 -39q13 9 28 39zM509 96l43 25q25 15 36 34q-23 -13 -47 -25q-35 -19 -32 -34zM274 134q-8 -6 -20 -23q-14 -20 -10 -26q12 11 30 49z" />
    <glyph glyph-name="S" unicode="S" horiz-adv-x="680" 
d="M523 756l11 3q-3 -5 -3 -9q0 -6 9 -13q10 -10 12 -14q3 3 3 8q15 -16 98 -127l-15 15l8 -30l-9 1q-1 -9 -17 -23.5t-16 -13.5v0q4 0 19 8q-5 -7 -20 -17t-20 -18q-2 7 -7 7q-6 0 -21 -14t-18 -15q-4 7 -12 7q-27 0 -51 -33l31 -67q6 1 8 -4t-1 -10q15 -28 15 -51
q0 -26 -28 -76l3 -17l-48 -72q0 9 -5 9q-9 0 -22.5 -17.5t-13.5 -25.5q0 -2 1 -3q-16 -17 -74 -50.5t-96 -73.5q-6 4 -12 4q-10 0 -31 -14.5t-32 -14.5q-8 0 -15 5q-2 10 -18.5 25.5t-16.5 28.5q-8 2 -15.5 14t-15.5 13l-32 52q7 12 23 19q13 5 13 6q0 3 -29 15q10 2 19 5
l-34 11q0 8 -7.5 24.5t-7.5 24.5q0 6 3 12q11 23 98 96q-8 -12 -9 -14h1l17 14t26 16q-7 -15 -7 -20q0 -3 2 -3q8 0 42 36l-5 11l8 5q-11 18 -10 18q-1 0 -5 -12q-12 15 -45 81l3 2l14 -23l3 1l-15 39q6 9 23.5 15t23.5 12l-17 11l-6 -8l-9 19q31 61 75 99l-4 -11q8 -1 20 6
t19 7q4 0 8 -2l5 9q-24 2 -24 14q0 3 13 34q10 5 41 40l5 -3q1 0 23 19q18 16 28 16q7 0 10 -9q31 5 41 19t13 14q10 0 81 -42zM457 780q-11 -20 -9 -20q-1 0 -6 3q-36 -26 -75 -61q15 -8 45 -16q24 -5 24 -8q0 -6 -104 -28q-21 -25 -56 -77q61 2 61 -3q0 -3 -27 -18
q-36 -18 -57 -34q2 -13 20 -47l26 -48q9 -4 14 -17q7 -16 11 -20q39 7 51 7q21 0 27 -18l-17 -12q-2 -9 -16.5 -12.5t-17.5 -8.5q-8 -20 -32 -60q5 -4 5 -9q0 -16 -25 -34t-41 -14q-14 41 -52 117l-84 -80l13 -40q25 -8 58 -11q23 -3 23 -5q0 -4 -58 -36q-1 -24 36 -63
q47 -52 50 -56q37 21 106 70q1 7 34 34.5t40 28.5q74 75 74 147q0 53 -41 109l5 -23q-11 12 -26 41.5t-26 41.5q0 8 -9.5 20t-9.5 15q1 6 6 6q7 0 14 -9q6 13 25.5 33.5t25.5 33.5q12 9 19 9t20 -21q21 -32 47 -57q0 1 55 44q19 14 19 25q0 10 -38 66q0 6 -9.5 12t-6.5 13
q-35 39 -50 52q-30 28 -61 38zM295 593q3 9 14 22q9 10 18 19q-4 -19 -32 -41zM391 547q44 35 82 80q-11 9 -16 9t-18 -24q-19 -34 -48 -65zM264 512q0 -9 26.5 -51.5t36.5 -52.5l-24 57q-16 34 -39 47zM39 190q-14 17 -12 29q0 -5 6.5 -12.5t6.5 -11.5q0 -2 -1 -5zM183 156
q48 -89 66 -89q10 0 34 22q43 38 64 54q-6 7 -14 1l-67 -53q-7 -6 -23 -11zM253 317q8 14 7 15h-1l6 6q3 -3 7.5 -4.5l4.5 -1.5q-1 -2 -4 -5q9 2 23 13l-51 6z" />
    <glyph glyph-name="T" unicode="T" horiz-adv-x="779" 
d="M538 784q-15 1 -54 9q-34 7 -54 7q23 2 54 -4zM345 789q48 -9 175 -13q111 -3 175 -23l-3 -5q34 -14 45 -14q8 0 15 3q0 -13 -14 -41q5 -11 5 -13t-7 -11q-11 -14 -22 -36q3 0 4 -2q0 -1 -13 -16t-14 -28l-4 18l-13 -21q-2 -1 -13 -1l9 -8q-16 -1 -32 -1q-22 -2 -22 -15
l-6 11q-9 -20 -24 -18v0l8 -6q-9 2 -15 2q-12 0 -17.5 -11l-11.5 -24q6 30 2 30q-32 -103 -88 -192l4 -2q-27 -42 -72 -126q9 7 18 18v0q0 -2 13 -2q-23 -23 -49 -69q-33 -56 -45 -73q8 32 17 49q-15 -17 -38 -49q-27 -39 -27 -50q0 -5 7 -2q-3 -9 -7 -18q-3 6 -7 6
q-3 0 -8 -3.5t-7 -3.5q-4 0 -6 8q-22 7 -19 7q-1 0 -9 -13l-10 8q-19 -25 -19 -24v0l16 5l-24 -20q-3 5 -23 13.5t-20 1.5q0 -3 4 -9q-20 8 -55 30l-54 36q2 17 -1 15q-4 -2 -16 -7q15 19 36 63l5 -5q-3 -6 -3 -10q0 -8 20 3l30 16q-3 5 -22 9q-15 2 -12 17q7 -2 16.5 6
t9.5 14q-1 1 -2 1q-4 0 -13 -7q16 28 59 127q5 -8 18 -8q29 0 49 20q-47 13 -47 31q0 6 4 13l-6 6q20 36 52 112q52 15 52 19q-2 1 -8 1q-10 0 -39 -3q5 10 14 30q-15 8 -83 14q-57 5 -91 5l44 98q2 -1 6 -1q10 0 33 8l29 10q-48 -1 -48 18q0 9 14.5 29t13.5 26l44 10
q31 8 30 18q69 23 122 23q14 0 21 -2zM265 756q1 -21 -16 -38q25 1 41.5 4.5t15.5 3.5q3 0 11 -11l-106 -43q10 -9 -3 -52q-22 0 -27 -25q73 8 158 -9q3 -4 3 -9q0 -6 -6 -16.5t-6 -15.5q11 3 31 6q27 5 27 -1q0 -3 -8 -9q9 -1 17 -3q-2 -2 -14 -11q1 -1 1 -2q0 -5 -33 -16
t-37 -18l-47 -107q22 -4 44 -9q37 -8 39 -13q-37 -18 -106 -48q-19 -37 -53 -115q3 0 25 -5q15 -3 25 -1l7 -8q-20 -14 -97 -39l-9 -33l59 -34q34 -18 62 -26l41 58l-9 2q36 46 128 219q95 178 97 211q3 -3 5 -3q13 0 13 26q0 19 -15 24q9 10 61 15q43 4 67 3
q-8 -8 -22.5 -8.5t-27.5 -1.5h52q15 21 66 131q-47 10 -161 23q-132 14 -212 14q-65 0 -81 -10zM413 750q20 -3 88 -5q55 -2 87 -11q-14 3 -36 -2q-88 5 -196 -1q15 5 15 8q0 1 -15 9q9 1 33.5 -3.5t29.5 -4.5q3 0 4 1q0 3 -10 9zM478 474q-7 -45 -59 -111l49 113
q25 64 38 116q3 -24 -9 -60q-9 -29 -19 -58zM333 483q-12 -53 -43 -83q-4 16 14 46q15 25 29 37zM394 311q-5 -13 -20 -33q7 27 20 33z" />
    <glyph glyph-name="U" unicode="U" horiz-adv-x="846" 
d="M475 737q0 -6 -1 -18q0 -2 5 -2q-8 -32 -8 -31h1l18 29q-5 -20 -6 -46q0 -5 -12 -5q-23 -46 -23 -56q0 -3 1 -3q5 0 22 20l-33 -85l-7 2q-17 -38 -39 -92q-11 -25 -14 -25q-2 0 -8 9q-23 -31 -23 -47q1 -2 2 -2q3 0 12 10q-14 -43 -39 -55q-3 -6 -3 -10q0 -18 45 -26
l52 49q30 30 44 56q7 3 25 5q15 1 15 3t-29 10q12 12 12 19q-1 2 -3 2q-3 0 -9 -3q4 15 20.5 45.5t19.5 48.5q23 5 49 42q7 -2 8 1q-32 19 -32 23q0 1 1.5 10t1.5 21l-11 -19l27 117q3 3 6 3t7.5 -6t7.5 -6q2 0 4 1l-8 16l35 -5q0 13 4.5 24.5t15.5 8.5q6 -6 9 -6l1 1
q0 4 -5 13q25 -2 80 -20q8 -5 50 -24.5t47 -21.5q-15 -6 -39 10q15 -12 29 -28q3 -4 16 -4q-6 -127 -110 -277l8 28q-12 -22 -23 -34.5t-11 -13.5q0 -2 9 -6q-54 -125 -134 -218v-8q-106 -123 -132 -123q-5 0 -8 3q-8 -3 -18.5 -15t-17.5 -15l5 14q-6 -1 -13.5 -12.5
t-12.5 -11.5t-10 4l-11 -5l-50 10q-30 6 -46 20l-15 -3q-62 21 -172 120q13 -4 13 11q0 14 -10 31t-20 17q-4 0 -7 -2q22 24 46.5 104.5t45.5 104.5v-9q4 5 14 5h9q6 -1 9 -1q13 0 12 15q-24 10 -24 12q0 -7 10 33l-4 6q1 0 -8 -22q-6 17 18 83q24 63 40 80l-2 -11
q5 6 25 12q17 5 20 13q-19 14 -28 46l-6 3q2 8 15 41q10 26 8 43q33 -9 44 -9q12 0 15 11q2 6 4 36l79.5 -18t102.5 -45zM312 772q-6 -26 -19 -78l46.5 -18.5t23.5 -15.5q0 -13 -84 -28q-7 -33 -23 -79l-27 -79q11 -8 38 -10q23 -1 23 -4q0 -4 -25 -19q22 4 21 4
q-6 -3 -31 -13q-2 -7 -19 -10l-24 -2q1 7 -8 7q-11 0 -11 -5q0 -3 6 -4l-43 -94q-25 -52 -49 -91q-2 -17 13 -27q52 -36 98 -76q14 0 42 -22q-6 -3 -6 -5q0 -4 15.5 -7.5t25.5 -3.5q29 -24 117 -37q79 58 233 291l-20 -14l80 130q5 21 53 110q38 71 33 117q-2 17 -76 44
q-66 24 -76 23l-30 -109q11 -13 37 -16q30 -4 40 -11q-74 -8 -130 -146q7 -5 26 -5t26 -9q-9 -10 -35.5 -16t-35.5 -17q15 4 44 10l-8 -11q-3 1 -7 1q-5 0 -17 -5t-20 -4q-16 -17 -58 -75q-37 -50 -64 -72q-4 -4 -11 -4q-9 0 -27.5 8t-25.5 8q-4 7 -29 18q-20 9 -18 26
q5 0 12.5 7t7.5 11t-6 4l124 260q-3 4 9.5 58.5t17.5 60.5l-73 31q-42 16 -76 13z" />
    <glyph glyph-name="V" unicode="V" horiz-adv-x="682" 
d="M279 795l-3 -1l82 -37q-10 -2 -10 -5q0 -6 11 -6t15 9q1 -3 0 -21q-2 -12 11 -14q0 -7 -1.5 -13.5t-1.5 -7.5q1 0 8 2q-4 -30 -3 -37t9 1l-1 -25q12 18 18 51q4 27 9 54q13 1 13 9q0 2 -2 4l52 -25q5 19 25 54q14 -5 29 -11t18 -19l14 -2q2 -2 39 -35q24 -21 33 -40
q-10 -5 -10 -6t6 -8q8 -10 15 -23q-43 -108 -139 -326q-11 -1 -19.5 -17.5t-17.5 -18.5l-43 -68q15 8 50 55q-15 -39 -101.5 -140.5t-99.5 -98.5q3 7 -3.5 11.5t-14.5 4.5q-6 0 -6 -3q0 -4 11 -10l-17 5q-18 -22 -47 -37q3 8 -3.5 13.5t-13.5 5.5q-6 0 -6 -4q0 -5 9 -13
l-71 30l-3 8q-47 19 -91 75q13 18 0 24q2 13 20 53q14 31 13 53l56 31q-34 11 -34 27q0 3 1.5 7t1.5 5q0 2 -4 2q-1 9 -1 18q0 28 24 93l57 19q0 -1 -20 4q-23 6 -37 19q0 14 4.5 41.5t4.5 42.5q0 11 -1 22q2 3 2 7q0 2 -3 9t-3 14q0 8 4 18l1 1l5 -30q-5 22 19 40
q3 2 42 24q-18 0 -51 11v19q-1 16 -4 16q-1 0 -6 -3q-4 9 -3 26t-2 24q12 -2 16 2l11 17q4 -1 25 1q15 2 24 -6q0 16 5 16q2 0 6 -4l21 22l1 -5q17 8 28 7q14 -4 28 -7zM222 781q-3 -15 -2 -39q2 -29 2 -38q31 10 26 10q2 0 12 -10q26 0 35 -10q-9 -4 -27 -16
q-3 -11 -17 -18q-24 -12 -25 -12v-16q38 21 33 21v0q-2 -4 -23 -26q-14 -84 -15 -84q1 0 -3 37q-7 -13 -7 -28q0 -6 1 -14t1 -10q0 -8 -7 -10q-2 -3 -2 -5q0 -14 69 -26q-4 -6 -17 -13t-17 -14q3 -7 -5 -14.5t-16 -7.5q-4 0 -4 4q-12 -18 -13 -42q-1 -32 -19 -76l11 1
q8 -7 31 -5.5t31 -6.5q-67 -51 -91 -47q-2 -19 -15 -58t-14 -61l39 -38q8 -1 55.5 -28t48.5 -31q8 9 24 21q12 9 12 11q0 4 -9 6q82 45 189 257q23 45 133 296q3 6 3 10q0 7 -11.5 15.5t-8.5 19.5q-9 18 -21 18q-9 23 -61 50q-20 -93 -92 -267q6 0 19 1.5t19 1.5
q18 0 25 -11l-22 -12q-5 -14 -20 -19q-20 -7 -24 -10l-59 -88q-44 -65 -69 -58q1 5 18 70q15 58 24 132q17 155 17 183t-3 52l-6 8q-21 4 -64.5 23t-68.5 21zM342 560q-3 43 0 91h-2q4 13 2 35q-3 33 -3 35q11 -11 11 -58q0 -15 -8 -103zM582 548q2 21 26 68q-6 -25 -26 -68
zM408 220q-10 1 -23 -19q-16 -25 -22 -29q20 38 63 112q9 21 19 41q11 24 27 31q-18 -50 -64 -136zM177 234q1 -13 -10 -36.5t-11 -33.5q0 -23 45 -33q-11 -6 -15 -6q-2 0 -7 5t-15 8q1 -8 -2 -8q-2 0 -8.5 9t-7.5 8q0 17 10 50q11 37 21 37z" />
    <glyph glyph-name="W" unicode="W" horiz-adv-x="919" 
d="M866 568q4 -2 4 -12q0 -36 -47 -146q-44 -101 -65 -130l-7 9q-21 -29 -54 -91q1 -1 1 -4q0 -17 -25 -61q-67 -113 -125 -113q-15 0 -27 8l-7 -17q-5 -1 -10 -1q-22 0 -76 21q-60 24 -75 26l27 12q-3 7 -22 9t-17 11l-52 -60l-36 21q-13 -18 -42 -50q0 21 -30 21
q-15 0 -23 -7q-20 8 -63 44q-33 28 -71 28l24 80q21 -9 67 2l-40 16q8 35 23 142q12 85 14 78l6 -20q12 31 11 85q0 64 4 87q21 2 42 5q35 7 35 18q0 3 -2 5q-62 12 -62 54q0 10 5.5 50.5t5.5 73.5q9 -8 21 -8q29 0 75 46q138 -6 196 -53l-24 -3q19 -13 19 -73q0 -41 -8 -88
q3 3 34 20q23 13 22 26q28 -4 40 -8q21 -5 38 -14q16 -49 23 -88q24 20 32 35q-22 -3 -22 31q0 43 32 129q59 0 59 5q0 3 -18 8q4 5 27 8q18 3 18 22q11 1 29 -5q22 -7 30 -8l-26 13q4 3 11 3q20 0 62 -29l53 -40q13 -8 13 -29q0 -18 -11 -50zM349 784q-28 6 -31 6
q-4 -2 -13 -4l36 -10zM869 679q-35 19 -137 65l-34 -139q66 -15 66 -11q0 1 -23 -11q-30 -15 -62 -42l-22 -67q8 -7 22 -7q5 0 15 1t15 1q16 0 24 -9q-16 -1 -40 -15q-27 -16 -39 -19l-41 -53l9 -6l-50 -44q-8 12 -10 62q-2 42 0 65l18 -4q-4 40 -16 121q-6 3 -22 26
q-13 18 -29 15q-3 -11 -70 -97q-71 -89 -86 -123q-6 12 -6 35q0 32 11 76q11 40 23 61q-9 -9 -13 -9q-3 0 -3 5t4 17l27 68q9 31 9 97q-25 2 -72.5 21t-75.5 22l-11 -141q15 2 41.5 -6.5t37.5 -18.5q-12 -14 -41 -24q-35 -11 -45 -18q-3 -70 -28 -172l-42 -169
q88 -16 96 -31q-8 -3 -67 -9q-52 -5 -58 -15q20 -2 20 -10q0 -6 -13 -18q-16 -14 -18 -20q12 -5 73 -41q44 -25 75 -34l29 29q-7 -2 -10 -2q-6 0 8 22q133 200 156 200q4 0 4 -4q5 -47 -32 -186q12 -18 67 -28q64 -13 83 -26q25 24 72 94l-6 2q26 54 88 161q51 86 75 148
q35 91 54 215zM820 572q-14 -56 -31 -90q-1 -2 -6 -24q-4 -16 -13 -20q-5 -29 -41 -101q10 50 40 119zM299 757q-1 -7 -7.5 -8l-13.5 -2q1 -29 -8 -86q-2 3 -2 48q1 45 5.5 49.5t12.5 2.5q7 -2 13 -4zM483 211q-3 -47 -15 -74q0 20 15 74zM248 495q1 -28 -11 -98
q-13 -75 -26 -90q2 32 13 93q13 69 24 95zM411 305q-5 -39 -39 -92q-53 -85 -54 -85q-3 1 -6 1q-7 0 -14 -13t-17 -12q47 65 130 201zM206 276l-1 -17q-6 2 -3 7zM264 106q-7 -4 -17 0.5t-10 11.5q13 0 27 -12zM206 169q-1 -4 -11 -4q-9 0 -13 3q2 1 24 1z" />
    <glyph glyph-name="X" unicode="X" horiz-adv-x="785" 
d="M739 713q7 -22 21 -18l-12 -22q-10 -19 -10 -24q1 -2 2 -2q2 0 12 9q-4 -22 -36 -71q-29 -43 -25 -61q-11 -21 -39 -57q2 11 2 16q0 15 -29 -37q-37 -66 -51 -79q5 -7 18 -15t29 -30q-11 4 -15 4q-3 0 -3 -2q0 -9 76 -75q73 -63 66 -66q-11 -19 -11 -18q1 -2 3 -2
q3 0 12 3q-2 -9 -14.5 -22t-12.5 -23l-44 -41q-28 -23 -53 -27q-6 3 -13 3q-13 0 -42 -11.5t-49 -11.5q-22 0 -44 11q2 10 -13 13q-20 5 -29 18q13 9 31 39q-15 -3 -25.5 -12t-15.5 -9q-11 0 -56 37l-100 -79.5t-88 -38.5t-90 32l-1 -6q-17 14 -35 40q-29 44 -30 44
q10 -3 19 -19t17 -20q-30 35 -25 58q7 -3 12 -3q7 0 15 6q14 9 19 11q2 -6 7 -6q4 0 14.5 10t15.5 10q2 -1 3 -2q-13 7 -13 18q0 22 41 48q1 6 -3 6q-7 0 -27 -18q-11 -9 -21 -19q10 13 34 36.5t35 36.5q1 -18 4 -18t17.5 25.5t29.5 36.5q-27 48 -55 120q1 1 12 9t11 10
q-1 2 -7 2q47 28 47 32q0 1 -2 1q-3 0 -22 -4t-28 -4q-11 0 -15 4q7 6 7 14q0 22 -32 44q2 15 -11 40.5t-11 40.5l19 -28l-8 44q2 -1 4 -1q9 0 37.5 38.5t45.5 41.5t26 16.5t17 16.5q2 -2 6 -2q6 0 20 8t19 8q6 0 8 -9q10 9 34 16q20 6 31 21q12 -16 20 -50q10 -40 16 -53
q-4 -8 -4 -36q0 -32 9 -32q3 0 8 4l6 -28q-5 8 -11 15v0q0 4 12 -43q8 4 27 7t19 4q-3 2 -27 5q15 5 15 11q0 7 -16 11q13 12 56 83q39 65 44 65q18 -1 18 1q0 3 -12 10q9 -3 17 -3q15 0 29 10t20 10q3 0 8.5 -2t8.5 -2q4 0 0 6l-7 9q29 -8 68 -33q47 -31 43 -54zM586 697
q6 -5 6 -9q0 -5 -16 -17q-19 -13 -24 -24q3 -12 21 -12q6 0 18.5 1.5t16.5 1.5q9 0 6 -7q-28 -8 -55 -17q-62 -27 -115 -100q-9 3 -10 19t-12 19q-23 40 -37 106l-22 111q-1 -1 -131 -85q-6 -15 -6 -32q0 -21 9 -55q11 -41 12 -53l103 -13q-9 -17 -37 -37q-31 -22 -41 -34
q1 -12 19 -36.5t18 -37.5q0 -6 -4 -12q0 -20 7 -20h4q6 0 8 -15q-62 -76 -97 -94q-24 -13 -34 -34q22 0 43 -1q34 -2 38 -11q-84 -41 -144 -49q6 -6 42 -54q25 -34 50 -46q17 9 17 20q0 3 -1 5l64 39q-6 1 -6 4q0 11 56 55l70 54q3 -5 37 -36q27 -25 23 -31q30 6 92 14
q3 -14 -12 -28q-19 -18 -21 -24q2 -1 36 -31q24 -22 40 -22q5 0 10 2q10 13 59 52q38 30 38 50q0 24 -39 49q-13 -7 -78 59t-66 86q27 10 95 142l86 168q4 7 4 15q0 24 -35 52q-32 24 -56 28q-8 1 -27 -33zM375 631q-27 60 -28 61q-9 18 -19 18q-7 0 -27 -13
q-36 -23 -52 -31q81 73 96 73q9 0 12 -33q5 -46 18 -75zM489 516q-2 2 -2 6q0 8 14.5 24.5l28.5 33.5q3 -11 -14 -33zM510 380q22 21 56 78q32 54 59 77q-15 -32 -53 -87q-46 -66 -62 -68zM150 506q-2 -2 -4 -2q-4 0 -7 7.5t-1 12.5q5 -1 7 -9t5 -9zM633 438
q-10 -40 -33 -49q19 34 33 49zM252 290q32 17 38 25l10 26zM237 218q19 31 96 120l-58 -97q-15 -23 -38 -23zM681 189q-24 -3 -32 38l22 -17.5t10 -20.5zM644 121q-2 2 1.5 7.5t3.5 6.5q0 2 -2 3q3 8 39 48q3 -2 3 -6q0 -12 -45 -59zM313 150q0 -5 -8 -10.5t-9 -7.5
q0 8 17 18zM143 0q-20 0 -25 3q-7 7 -14 15q16 -6 39 -18z" />
    <glyph glyph-name="Y" unicode="Y" horiz-adv-x="693" 
d="M332 579l12 19l3 -10q11 6 24 9q3 1 3 8l-17 -3q4 5 18 8.5t17 10.5q-9 6 -9 15q0 5 3.5 14.5t3.5 13.5q-9 -1 -10 12q-2 12 4 18q5 -13 4 -13q1 0 7 5q0 31 27 81l5 -17q5 12 28 7q5 15 20 43l3 -18q4 9 14 9q11 0 39 -17l3 3q0 -3 -16 11q17 1 40 -24.5t42 -21.5
q-8 10 -25 22q-20 14 -26 19l67 -35q43 -23 55 -49l-11 3q-16 -25 -30 -66l-23 -69l13 20q-10 -44 -31 -93l1 30q-18 -12 -18 -21q0 -4 7 -10q-26 -45 -65 -133l13 9q-2 -8 -52.5 -75.5t-50.5 -82.5q0 -8 11 -6q-21 -33 -71 -93q10 26 59 81q-5 0 -10 -2q-3 -1 0 11
q-11 -12 -66 -87q-39 -55 -84 -84q-5 3 -11 3q-12 0 -25.5 -11t-18.5 -23q-43 9 -91 29q-58 23 -79 47q1 3 4 6.5l3 3.5q0 3 -23 10q42 35 72 68q43 7 72 76q-11 0 -14 -4q-9 -15 -25 -31l35 81q23 48 55 48l-9 11l-3 -8q-67 67 -69 98q12 5 30 20q-14 0 -42 5
q-5 1 -11.5 9.5t-10.5 8.5t-9 -5q-28 45 -48 110q39 20 43 30q-4 5 -11 5q-3 0 -9 -1t-9 -1q-9 0 -12 10h-17q-2 27 -2 80l10 -17l37 22l-17 -5q-2 9 12.5 15t10.5 16q1 -8 7 -8q14 0 28 21l114 50q-1 -2 -1 -5q0 -38 103 -216zM486 783q-8 -36 -35 -105q24 -12 38 0
q5 -2 31 -2q19 0 27 -12q-4 -4 -66.5 -25.5t-72.5 -21.5l9 -7l-40 -89l-25 -14l-11 11q-2 1 3 6q-16 21 -48 68q-40 60 -43 74l3 3l-18 55q-16 40 -28 46l-104 -59q5 -6 8 -21t10 -21q75 -2 75 -8q0 -7 -45 -26q-34 -15 -30 -23l25 -64q21 -42 46 -42q4 0 9 1q42 11 62 0
q-10 -5 -24 -25t-27 -24q27 -31 76 -98q-30 -66 -83 -130q54 0 54 -5q0 -2 -11 -9q-14 -9 -19 -14q-8 -8 -35 -14q-32 -6 -47 -15q-27 -15 -41 -47q21 -17 66 -41q54 -30 74 -30q4 0 6 1q32 15 119 141q90 132 159 267q81 160 87 245q-10 15 -62 40zM324 532q-9 8 -35 51
q29 -24 35 -51zM547 572q-30 -60 -79 -177v-8q42 55 79 185zM362 220q-54 -73 -112 -129q10 -3 22 11.5t21 13.5q44 52 69 104z" />
    <glyph glyph-name="Z" unicode="Z" horiz-adv-x="734" 
d="M626 785q8 -6 14 -6q8 0 8 11q15 -16 26 -55t23 -55q0 -1 -2 -17t-1 -23q2 -10 9 -8q1 -5 1 -10q0 -23 -35 -58.5t-30 -60.5q1 -1 1 -3q0 -7 -25 -30q-28 -27 -30 -30l11 3q-10 -22 -91 -119q-75 -89 -75 -99q67 13 99 13l-7 -9q29 0 63 14l62 27q10 -8 14.5 -33.5
t17.5 -32.5q9 -36 9 -54q0 -6 -2 -6q-3 0 -10 13l-5 9q-7 -30 10 -32q-13 -5 -38.5 -30.5t-41.5 -27.5q-47 -7 -182 -46q-112 -33 -184 -33q-23 0 -46 3l15 8l-62 24q-43 19 -65 41q-31 30 -32 72h-16q7 20 26 39l36 33q8 -5 19 -5q18 0 39 14l-13 2q15 15 23 39.5t19 34.5
q2 -1 4 -1q11 0 28 29l20 37q-13 -19 -44 -52q3 8 14.5 24t12.5 28l43 63q32 48 46 50l56 8q0 3 -43 7q3 5 3 9t-6 6t-6 4q2 12 19 29.5t17 20.5q0 4 -10 4q-13 0 -51 -7q-47 8 -92 0l55 -5h-102q-61 -1 -101 -15q9 9 9 17q0 9 -18 8q2 5 15 45q5 -9 9 -9q6 0 11 22l6 29
q39 9 59 17v0q24 10 11 15q-12 5 -49 0l-15 -8l23 66l53 8q21 2 23 23q19 5 101.5 12t128.5 7q27 0 32 -3q10 1 54 5q41 4 65 4q46 0 67 -14zM184 718q24 1 42 1q46 0 46 -9q0 -8 -38 -26q-47 -22 -53 -26q-19 1 -28 -22l-14 -38q192 21 272 18q35 -2 35 -11q0 -3 -10 -5
q0 -6 -25 -63q7 -2 20 -2t36.5 2t28.5 2q4 0 4 -1q0 -3 -42 -18q-7 -13 -24 -16t-33 -5q-51 -77 -163 -224h82q3 -13 -42.5 -32t-75.5 -19q-9 0 -14 2q-6 -11 -22 -24q-18 -16 -24 -23q72 -120 198 -120q59 0 155 27q157 45 163 47q-8 10 -17 55q-7 39 -7 59
q-42 -26 -115 -33q-117 -11 -120 -12q-4 4 -4 9q0 8 18 28t17 29q20 3 128 169q105 160 119 200q-17 47 -59 137q-59 2 -110 2q-321 0 -324 -58zM480 758q65 -10 102 -5q17 2 22 -11.5t14 -14.5q-1 3 -8 14t-5 17q-16 -1 -45 1.5t-42 2.5q-21 0 -38 -4zM167 617q3 1 11 2
q-3 5 0 11q5 8 5 10q-9 1 -11.5 -7t-4.5 -16zM377 638l-95 -2q-54 -2 -93 -12q33 4 180 8zM647 635q-30 -36 -60.5 -87t-38.5 -76q-41 -25 -73 -115q4 0 32 35l-3 -17q16 21 49 74q-7 -6 -9 -6q-1 0 -1 2q0 7 38 67q47 73 51 81q-11 3 -11 4t8.5 11.5t17.5 26.5zM398 465
l-76 -109q-12 -17 -12 -21t2 -7q51 72 86 137zM470 196q-12 -8 -69 -20q19 -5 40 -5q38 0 81 16l-1 4q23 3 67 17q-15 0 -47 -7.5t-48 -7.5q-12 0 -23 3zM66 86q-9 8 -20 24l-18 27q11 -5 22 -22z" />
    <glyph glyph-name="backslash" unicode="\" horiz-adv-x="441" 
d="M360 46q17 -16 16 -30q18 38 28 90l16 93q3 2 6 2q-41 92 -75 152l-2 -1q-13 21 -36 66l12 -14h2q-14 32 -48 90l-2 -7l-48 96q-29 58 -56 91l-2 -1q-12 15 -39 62l2 2l-47 63l5 -12q-3 2 -5 2q-6 0 -15 -29l-22 22l3 -12l-5 2q-13 -21 -15 -35l-1 2q-16 -79 -16 -99
q0 -46 28 -76h-5q0 2 -2 3q-1 -1 -1 -2q0 -3 5 -10l28 -47l-1 9q9 -18 36 -49v-3q9 12 22 36l2 -2l-6 -24q-4 -16 -4 -26q0 -18 13 -29l-3 -2q12 -33 46 -97l-6 24q17 -30 46 -93.5t45 -93.5v9l18 -27q11 17 20 27l1 -2q-9 -33 -9 -53q0 -27 14 -44l1 1q7 -12 26 -55l3 1
l7 -16zM372 54l-35 81q7 15 13 38l8 40l-7 15q-15 -10 -39 -36l-69 137q-42 79 -78 132q23 56 22 87l-14 14l-29 -54q-20 35 -79 130q4 47 25 132q12 -22 33 -54q-8 12 -27 35l-4 -3l-9 -51l3 -3q9 6 15 28q18 -28 60 -79q1 12 -36 70q33 -35 147 -247q97 -183 136 -270
q-9 -8 -10 -27q-2 -23 -5 -30l3 -1l6 10q-9 -32 -30 -94zM298 244l5 -3q-31 54 -27 59q-20 31 -54 97l-7 1q21 -56 83 -170q4 -7 6 -3q0 1 -7 18zM210 414q-5 9 -18 22l17 -30z" />
    <glyph glyph-name="underscore" unicode="_" horiz-adv-x="754" 
d="M485 528q-16 -8 -16 -10t81 7q87 10 110 -9q-7 -6 5 -17q21 -85 28 -156q-3 -2 -2 -8q2 -7 2 -8q-1 -3 -7 -3q-3 5 -5 5q-3 0 -7 -3.5t-7 -3.5t-6 4q-3 -9 -1.5 -31.5t-5.5 -33.5l-3.5 7t-2.5 2q-2 -4 -4 -7q-26 10 -35 10q-10 0 -12 -8h-21q6 4 6 6q0 7 -32 6
q-30 0 -34 -3q-8 -6 -30 -6q-24 0 -72.5 8t-53.5 8q-10 2 -15 -2q2 -3 13 -8q-44 -4 -83 1q17 -2 18 1q2 2 -9 6t-24 4q-19 0 -31 -9q-13 4 -35 4q-16 0 -16 -5q0 -4 7 -9l-52 -6q15 3 15 10q0 2 -3 4q-21 -11 -28 -11q-8 0 -28 17q-9 26 -19 64q34 17 34 19l-41 7
q-2 2 -2 4t3 6t3 6q0 3 -4 5q0 8 8 30q7 2 7 5q0 5 -12 9q12 2 30 12q-4 8 -4 15q0 8 6 16t6 9q0 2 -8 4q11 14 64 16q73 3 74 3l-4 5q125 14 182 7q-3 4 3 5q30 5 70 0zM344 494q-34 3 -59 3q-31 0 -63 -7q-36 -8 -65 -9t-35 -3q-12 -5 -12 -23q0 -12 5 -35h14q-6 19 -6 30
q0 19 25 19h8.5h8.5q29 0 41 14q16 3 21 -3q-8 -3 -56 -17q-34 -9 -33 -13q-4 -18 -4 -27q0 -13 10 -13h25q-16 -6 -47 -21q6 -12 5.5 -24.5t10.5 -13.5q-2 0 24 1h87q55 0 83 11q20 -4 97 -4q80 0 93 5q9 -5 21 -3q20 -11 63 -11q48 -1 66 -7q0 37 -7 110q-5 -23 -8 -23
t-5 28q0 18 -1 36q-25 3 -79.5 1.5t-82.5 5.5q-11 -4 -34 -4q-12 0 -38 1t-37 1q-29 0 -36 -5zM525 384l-9 -9h1l4.5 1.5t7.5 1.5q6 0 7 -5q-22 -3 -81 -3q-66 1 -76 8q8 10 47 10q21 0 64 -3q33 -3 35 -1zM367 380q1 -1 1 -3q0 -3 -13 -3q-11 0 -15 1q2 8 27 5z" />
    <glyph glyph-name="grave" unicode="`" horiz-adv-x="332" 
d="M285 663q-41 -82 -42 -86t-58 -109q-3 -2 -21.5 -37t-20.5 -43l-7 4q-6 -3 -19 0q-10 2 -19 4q-13 7 -33 26q-8 -3 -15 6q-10 13 -12 14q-2 15 16 70.5t27 60.5q3 14 10 43l48 15q-6 8 -37 30q1 20 22.5 76t35.5 66q11 -2 40 -12q1 7 8 7q15 0 55 -27.5l40 -27.5
q2 -6 2 -4q0 -1 -20 -76zM288 741q-9 -3 -18 7t-15 11q2 1 5 2q-2 2 -50 22q-3 -5 -3 -17t-3 -17q-10 -3 -11 -17q-2 -19 -5 -23q4 -3 4 -10.5t1 -10.5l5 8q4 0 5 -4q1 -7 2 -8q-3 -3 -3 -6q0 -4 5.5 -10.5t5.5 -8.5q-9 1 -15 0q-5 -17 -25 -66l-7 -1q-2 12 8 39.5t9 29.5
q-12 -19 -26 -68q-13 -45 -29 -66q0 -18 -9 -39.5t-18 -40.5q20 -15 28 -15t15 13q13 25 17 31q3 -3 3 -7t-5 -13t-5 -13q6 12 19 34q-2 17 53 117q57 106 62 147zM163 576l-2 -1q-2 -3 -3 -3v1l3.5 6.5t3.5 8.5z" />
    <glyph glyph-name="a" unicode="a" horiz-adv-x="646" 
d="M459 613q18 -9 42.5 -41t32.5 -54q-17 19 -20 19l-1 -1q0 -1 30 -55.5t32 -79.5l8 -9q11 -33 25 -102q-4 3 -6 3q-3 0 -3 -6q0 -5 12 -60.5t12 -91.5q0 -20 -3 -36q-1 8 -8 8q-9 0 -23.5 -10.5t-16.5 -16.5q-72 -47 -149 -61q7 6 8 8h-1q-1 0 -14.5 -4t-17.5 -2
q1 18 -3 48q-4 38 -5 49q10 2 10 16q0 29 -16 51l-53 -7q9 -1 18 -4q-4 -1 -24 -5q-1 -1 -18 -25t-17 -31q0 -6 10 -4q-9 -19 -18 -19q-3 0 -5 1q-12 -8 -35.5 -33t-34.5 -34l-4 5q13 15 13 14q0 1 -13 8q-18 -19 -59 -51q5 5 5 10q0 14 -55 35t-54 33q9 -5 12 -5q1 0 1 1
q0 5 -28 30q0 11 4 15q13 13 29 39q-2 -9 -2 -11v-1q-1 0 10.5 15t21.5 15q5 0 10 -3q26 11 20 11q1 0 3 -6q6 8 6 13q0 11 -43 12q7 16 28 42q-3 -6 0 -6q7 6 29 11t29 17q-17 5 -48 15q20 23 20 30q0 2 -3 1q51 99 51 104v1q-3 0 -26 -35q4 16 17 45.5t17 46.5
q10 6 14 18.5l8 24.5l-13 -13q12 30 22 73l3 -11q1 8 2.5 15.5t1.5 8.5q0 2 -1 2l-13 -4q8 8 38 8.5t39 16.5q-4 0 -13 -2q-1 -1 -1 4q80 18 142 24q3 -8 16.5 -13.5t15.5 -13.5zM404 612q-26 -14 -57 -14q18 6 57 14zM513 422q7 -25 20 -76q4 -4 11 -23q5 -15 15 -20
q-20 81 -46 119zM568 281q0 -22 11 -32q0 5 -4 14t-4 13q0 5 4 10q-3 0 -7 -5zM445 221q-18 -4 -34 -6q21 -2 34 6zM425 623q-38 -3 -111 -20q-22 -57 -49 -159q12 30 14 30q1 0 1 -1q0 -11 -13.5 -52t-21.5 -45q2 -15 -15 -32t-19 -27q8 0 71 -14q-46 -50 -70 -50
q-9 0 -16 5l-18 -6q-1 0 -6 -15q28 -6 54 -8q6 0 18 -12q-24 -26 -44 -30q1 0 -48 0l-35 -48q-3 -4 -3 -8q0 -11 31 -29q35 -19 41 -30q7 0 19.5 -9t20.5 -7q6 15 61 86q51 65 49 71q18 1 66 18l3 -6q0 2 -21 -8q36 7 39 8q15 5 26 24q11 -4 17 -34q10 -1 8.5 -12.5
t7.5 -11.5q3 -7 2 -46t-4 -46q10 -6 10 -13t-10 -14l1 -9q16 14 22 14q1 0 1 -1q0 -3 -5 -11q13 8 40 17q5 5 35 18q25 10 28 22q1 5 1 17q0 43 -12.5 128t-19.5 90q-15 55 -23 79q-18 55 -35 72l2 -15q-23 46 -56 91q3 11 -18 28q-10 -4 -16 11zM362 445l2 -46q3 -42 8 -46
q0 -6 -5 -13t-5 -11q0 -6 9 -12q-1 5 3.5 6t11 0.5t26 5t15.5 11.5q13 10 20 10l-2 33q-9 15 -27 63q-13 35 -24 35q-13 0 -32 -36z" />
    <glyph glyph-name="b" unicode="b" horiz-adv-x="496" 
d="M353 604l-10 11q29 -9 96 -75q-2 -8 1.5 -17t10.5 -9q2 0 4 1q0 -17 0 -14q0 -3 2 1q8 13 10 15q-7 -30 -28 -87q-4 0 -24 -23q-23 -25 -23 -40q0 -9 8 -14v10q4 -2 14 -25.5t15 -23.5q4 0 6 8q16 -12 16 -28q0 -4 -3 -7l10 -22q8 -16 8 -25q0 -4 -2 -7v-6q0 -1 3.5 2
t6.5 5q-10 -11 -26 -47.5t-25 -49.5l1 8h-5q-65 -94 -115 -121l6 11q-4 2 -8 2q-12 0 -33.5 -18t-23.5 -18t-3 2q9 13 9 14t-1 1q-25 1 -66 3q7 -5 7 -6q-78 2 -149 53q-5 -3 -10.5 3t-9.5 5q9 21 26 64q5 4 18.5 6.5t18.5 8.5q-1 1 -38 15q15 -2 15 15q0 6 -4 6q-3 0 -7 -4
l14 69q12 59 12 84q0 24 -11 19q0 11 13 16q18 8 21 11q-6 4 -17 4q-14 0 -18 2q-3 14 2 36q7 26 19 24q3 5 15.5 5.5t14.5 8.5q-25 3 -53 12q-5 32 -17 94h1l7 -23q2 5 0 18q-2 16 -2 21q0 17 15.5 19t32 4.5t20.5 15.5q11 0 33.5 6.5t32.5 6.5q41 -1 85 -12zM123 616
l7 -36l4 4v-1q1 -11 2 -27q-4 4 -6 4q-1 0 -1 -2q0 -3 4.5 -22.5t4.5 -30.5q18 0 46 -3q3 0 13 -9q3 -18 -17 -25q-29 -11 -32 -13v-24l13 -3q4 -6 16 -4t17 -3q-17 -29 -48 -38q2 -35 2 -59q0 -78 -23 -119q9 -8 32 -10t32 -6q-5 -16 -23 -22.5l-35 -12.5q-9 -19 -13 -35
q-2 -10 -4 -10q-1 0 -9 4l-4 -8q13 -2 42 -18q26 -14 44 -13q5 -6 23 -8t22 -12q13 3 23 3q14 0 26.5 -6t17.5 -6q18 0 76 76h6q61 71 61 122q0 36 -35 70.5t-33 47.5l64 126q3 7 3 14q0 42 -85.5 85t-165.5 43q-40 0 -67 -13zM192 614q-1 -1 -1 -2q0 -14 76 -14q21 0 28 3
q-20 6 -51 9zM153 601q11 -2 24 3q-21 0 -24 -3zM240 529q2 -15 2 -54q-1 -34 7 -57q-2 -6 2 -20q4 -1 9 -1q28 0 56 31q0 7 14 19q6 5 6 12q0 4 -4 13t-4 14q-49 46 -73 46q-8 0 -15 -3zM259 298q-12 -30 -28 -93q4 5 6 5q1 0 1 -2q0 -7 -5 -15.5t-9 -5.5q-4 -19 -4 -21v0
q3 6 11 16q2 -5 -1.5 -16t-3.5 -14q0 -2 1 -3.5t6 -4.5t3 -7q30 6 45 23l-20 -10q13 8 31 26q23 24 29 29q2 2 6 12q3 7 11 5q2 17 -20 38l-33 28q-6 -1 -14 4.5t-12 5.5zM384 130h1l18 30zM321 81q25 27 33 37q18 22 24 42q-9 -19 -32.5 -42t-26.5 -28t2 -9z" />
    <glyph glyph-name="c" unicode="c" horiz-adv-x="490" 
d="M423 537l2 2q13 -17 38 -67q-3 -3 -15.5 -20.5t-12.5 -19.5q-49 -14 -49 -25q0 -3 4 -5q-13 -4 -36 -17q-10 10 -11 10q2 0 -19 -11l9 -7q0 3 -38 -14l-13 26q-5 11 -8 11q-5 0 -19 -48q-8 -2 -10 -29t2 -27q2 1 3 4q5 -8 6 -41q1 -37 6 -52l45 38q6 -2 9.5 5.5t6.5 7.5
t7.5 -3t8.5 -3q5 0 15 8.5t17 6.5q4 13 12 13q2 0 8 -2t10 -2l11 -11l1 6q54 -43 54 -77q0 -18 -13 -33q0 -10 0 -8q0 -2 2 0q5 6 7 8q-21 -55 -136 -139l-1 10q-14 2 -30 -12q-22 -18 -28 -20v9q-6 -3 -13 -3q-11 0 -27 7t-18 7q-3 0 -2 -4l-17 9q4 2 4 5q0 13 -65 36
q7 6 23 9.5t22 6.5q-30 6 -59 11q-47 12 -47 35q0 6 3 12q-3 5 -4 5q-1 2 -2 0t-2 -8q-26 32 -25 51l6 -9q0 41 -11 41q-2 0 -6 -3l-5 44l10 -32v44q1 3 44 22q-18 2 -23 12q-12 -2 -32 6q4 12 8 25.5t14 19.5q8 -2 21 0q16 4 21 4q1 2 1 5q0 12 -37 12q16 41 83 118
q62 72 62 74q0 1 -1 1q-3 0 -19 -10q7 11 29.5 19t29.5 17l-18 -17q5 1 29.5 21.5t41.5 20.5q1 -10 6 -10q3 0 18.5 11t26.5 11q7 0 14 -5l-5 10q8 -15 38 -49q28 -30 38 -54zM337 619q-66 -25 -135 -99q0 -3 -61 -87q-8 -11 -8 -18q0 -9 25 -15t30 -15q-25 -23 -76 -18
l-9 -26l56 -23q0 1 -54 -31q-1 -75 51 -135q-1 -4 13 -26q10 1 79 -6q3 -3 13 -2t12 -5q-5 -11 -21 -17q-22 -7 -26 -10q4 -6 47.5 -25.5t55.5 -21.5q119 93 122 160l-59 63l-11 -2q-26 -36 -114 -92q-9 17 -16 17q-1 10 -14 52q-10 32 -7 54q-4 -10 -8 -8q0 85 15 81
q10 37 22 56q3 3 34 41q7 8 13 8t13 -9q11 -13 13 -15q2 5 4 5q5 0 13 -22l8 -25q34 15 87 60q-9 36 -42 87q-36 54 -65 69zM418 479q-9 11 -18 32q-9 25 -15 33q14 -14 33 -65zM170 444q-1 -3 2.5 -6.5t1.5 -5.5q13 9 34 52q20 39 38 46q-20 6 -46 -29q-20 -29 -30 -57z
M407 461q9 0 10 4q-2 3 -4 5q-11 -2 -6 -9zM375 226q-21 -12 -84 -58l2 -7q41 22 81 60l18 -6q-2 6 -17 11z" />
    <glyph glyph-name="d" unicode="d" horiz-adv-x="514" 
d="M145 627q-2 -28 5 -58q18 4 25 -4q61 -6 61 -10q0 -2 -75 -31q2 -53 -2 -155q7 -5 7 -10q0 -3 -5.5 -10.5t-5.5 -12.5q0 -3 1 -6q36 -8 36 -13q0 -4 -20 -10.5t-22.5 -9.5t-1 -15.5t-4.5 -17.5q4 -36 4 -28q0 -15 -10 -11q-1 -20 -12 -49q-15 -41 -17 -47q2 -2 2 -6
q0 -10 -13 -25q10 -13 51 -35.5t60 -22.5q5 0 8 2q132 78 246 293q5 10 5 24q0 35 -29 87q-25 44 -51 69q-4 15 -28 29.5t-29 27.5q-57 32 -96 38q-76 13 -90 17zM169 439q7 10 17 49q9 33 17 37q-30 -4 -34 -20v-66zM374 501q40 -67 41 -69q19 -37 19 -69q0 -33 -20 -70
q3 -3 21.5 30.5t22.5 50.5q-7 -3 -11.5 6.5t-3.5 16.5q-12 41 -69 104zM382 242q5 3 9 11q-7 0 -10 -5t1 -6zM156 81q36 -21 44 -21q3 0 12.5 9.5t26.5 16.5q-2 3 -2 5t3 4.5t3 4.5t-1 4q-37 -36 -45 -36q-2 0 -13.5 5.5t-27.5 7.5zM264 469q-8 -26 -31 -177q5 -4 5 -12
q0 -7 -7 -27t-7 -29q0 -14 15 -15q13 -2 50 28q45 36 50 39q13 6 13 14h-1q-2 0 -7 -3q-1 2 11 15q7 -2 8 9q1 6 7 4q-18 86 -68 128q-3 2 -22 10q-14 6 -16 16zM266 356q9 -15 19 -30q14 -22 12 -30q-1 -10 -49 -45q9 18 11 52q3 40 7 53zM410 521l-22 16q6 -9 12 -19
q8 -15 11 -15q4 0 2 15l61 -100l-16 14l14 -31q10 -19 19 -26q0 -1 -6 -13.5t-6 -17.5t6 -3q-1 -2 -13 -18q-9 -12 -9 -17t6 -7l-11 -21q-1 3 -4 3q-8 0 -27 -27q-15 -22 -19 -32q-11 -27 -53.5 -72.5l-42.5 -45.5q0 -1 1 -1q2 0 16 10q3 -3 -2 -10q-13 -18 -52 -41
q-47 -27 -58 -37q-26 7 -21 6q0 -1 7 -9q-4 4 -9 4q-1 0 -28 -17q-2 -7 -11 -4l-12 4q0 -5 1 -9q-45 18 -103 48q2 4 2 7q0 4 -7 7q-12 5 -16 8q5 9 13 56q7 41 19 49q-1 18 8.5 56t18.5 52q41 10 41 13l-41 6q-2 4 -2 25q0 16 2 65t2 69q0 23 -2 33q11 15 23.5 16l25.5 2
q9 1 17 9q-11 3 -58 13q-12 2 -12 8v5q1 5 1 9q0 21 -10 51q6 4 38 7q23 2 21 17q17 9 43 9q57 0 137 -41q75 -39 105 -78z" />
    <glyph glyph-name="e" unicode="e" horiz-adv-x="490" 
d="M393 631q-6 -1 -6 -2q0 -4 28 -9.5t44 -6.5q2 -12 4 -11q0 -5 -4 -31t-4 -40q0 -21 8 -27q-3 0 -16 2t-18 2q-10 0 -2 -9q-24 2 -36 0l6 -4q1 -1 0 -2q-3 -1 -6 -3q3 -2 9 -3q2 -1 -1 -6h-32l-10 1q-1 -1 8 -6q-17 1 -36 2v0q-16 1 -18 1q1 -1 2 -1q11 -4 22 -7
q-31 0 -31 -4l1.5 -6.5t1.5 -12.5q0 -16 -8 -35l-2.5 -14.5t-1.5 -11.5q0 -6 8 -6q9 0 42 8l-4 -6q16 -9 35 -9q11 0 8 8q25 -7 32 0l-4 -48q-3 -29 -15 -45q1 -3 1 -7q0 -6 -10 -14t-10 -16q-2 -3 -5 -3q-2 0 -6.5 2t-5.5 2q-4 0 -5 -7q-3 -2 -25 -2q-16 -1 -15 -16
q-3 -4 -11.5 -1t-9.5 -4q-20 1 -24.5 -19.5l-8.5 -39.5l27 8q20 5 36 5q15 0 29 -5q-14 -2 -14 -5q0 -4 34 -7t45 -2q3 -6 3 -5q3 4 6 9q1 -4 -12 -80q1 -13 -21 -17.5t-22 -6.5q0 -4 9 -11q-5 -2 -13.5 1.5t-10.5 3.5q-6 0 -10 -9q-2 -5 -7 -7t-8 3l-145 -15q13 6 14 8
q-1 1 -2 1q-22 0 -47 -16q-4 2 -8 2t-14 -3t-16 -1q3 3 3 5q0 4 -33 -7q-39 -14 -51 -13q0 1 2 9q1 6 -4 6q-3 0 -8 -2q1 4 11 49q7 30 18 46q2 75 14 158q13 79 23 95q4 6 18 7t19 5q-11 -1 -47 13q-5 21 -1 104q3 -2 4 -15q1 -18 1 -19q3 11 2 29l-2 29q9 10 29 15
q28 6 32 8q-10 5 -28 4q-23 -2 -29 -1q-1 5 -1 10h-8q0 6 -2 21t-1 23q2 -2 12.5 1t10.5 8q0 2 -2 3q18 1 38 3q1 1 4 10q14 -1 21 5t1 6q23 7 50 7q19 0 54.5 -4.5t52.5 -4.5q16 0 30 3q-12 9 -59 9q9 5 26 5q24 0 78 -14zM154 614q-1 -10 6 -39q3 3 48.5 -1.5t45.5 -10.5
q0 -5 -22 -9q5 -2 5 -4q0 -5 -31 -9q-27 -5 -35 -4q-3 -18 -2 -63q0 -41 -6 -63q12 11 46 7q1 0 17.5 -6t16.5 -11q0 -2 -4 -5q-13 0 -78 -21q7 -3 7 -20q0 -15 -8 -64q-12 -63 -16 -99l-20 -77q-18 -68 -17 -74q97 38 282 33q8 16 19 76l-80 4q-48 1 -81 -4l-4 16
q-4 2 -4 5q0 2 4 8.5t3 9.5l-6 -4q-1 4 -1 8q0 9 9 24t7 20q3 11 14 29q34 2 103 -3q17 91 17 82q0 12 -22 13q-42 0 -84 1l-14 7q17 17 17 137l8 12q12 1 142 -3q11 40 11 64q0 15 -3 28q-64 21 -146 21q-54 0 -144 -11zM328 614q-3 -5 78 -13q-25 10 -78 13zM206 584
q-10 0 -25 3q-3 0 -10 -4zM181 355q0 5 -2 16q-9 -42 -9 -59q0 -13 5 -14l8.5 43t16.5 35q-3 1 -5 1q-6 0 -9 -9q-4 -12 -5 -13zM150 181q4 -5 2 -15q-3 -14 -3 -15q0 -4 3 -6q5 16 26 118q-8 5 -12 -3q-5 -32 -16 -79zM272 88q14 -1 41 6h-21q-13 0 -20 -6zM312 85l3 -3
q3 2 10 6q-11 0 -13 -3zM170 68q31 4 92 16q-12 1 -52 -5t-40 -11z" />
    <glyph glyph-name="f" unicode="f" horiz-adv-x="478" 
d="M459 608q-6 -29 -11 -58q-9 -39 -24 -50q6 -8 6 -11q0 -5 -14 -4h-45q3 -4 3 -6q0 -5 -10 -5q-9 1 -14 3q-17 -7 -37 -2q-4 -11 -4 -16q0 -3 2 -4q6 0 5 6q2 -3 -6 -38.5t-13 -35.5q-1 0 -2 3l-6 -17q7 -3 15 -3q3 0 21 2q13 2 21 0q-17 -4 -18 -7q0 -2 29.5 -3.5
t37.5 -4.5q3 -2 3 -10q0 -20 -15 -63q13 26 16 27v-1q0 -15 -17 -47q-6 3 -8.5 -3t-2.5 -13q-9 -16 -35 -18q-35 -3 -42 -7q-21 -10 -26 -49l14 31q-2 -24 -30 -87q-34 -76 -38 -91l4 -5l-17 -9l-1 8q-3 -1 -24 0q-17 1 -17 -6q0 -2 2 -6l-14 -8l-2 9q-2 -1 -6 -1
q-5 0 -15 3.5t-13 3.5q-5 0 -4 -8l-60 21q11 1 11 3l-38 11q8 7 16 28q4 14 39 21q-3 4 -17.5 5t-14.5 8q0 3 2 8q-7 7 -5 18q2 10 5 19l-2 -23q13 22 4 35q17 70 20 144q40 10 45 13q-5 1 -11 2q-14 -1 -27 -1q-9 5 -8 44q1 38 5 42l5 -9v6q-1 12 -1 22l-5 -5q-2 18 1 47
l6 46l2 -26q1 7 7 39q5 0 13 6t11 6t5 -1q11 0 30 7q-6 6 -19 7h-22q-18 2 -16 21l-10 13q5 2 5 13q-1 15 0 17q3 -3 6 -3l20 9q17 9 38 5l-4 4q6 -1 30 1q28 3 24 10q48 -10 117 -17q104 -9 145 -15zM155 612l1 -45q4 -2 5 1q0 3 -1 6q17 0 37 2t24 2q16 0 13 -21
q-16 -10 -79 -28q-1 -4 -7 -79q-5 -49 -3 -80q-6 1 -7 -6q-1 -6 1 -12q73 -1 73 -11q0 -5 -9.5 -13t-23 -10t-26.5 -3q-13 -4 -13 -20q0 -5 1.5 -15.5t1.5 -15.5q0 -13 -6.5 -19t-12.5 -58q-7 -60 -9 -68l48 -4l9 -11q-9 -4 -44 -12q-10 -3 -17 -31q37 -8 92 -31
q-3 15 11 32h-5l20 46q17 39 10 39q-2 0 -5 -3q6 19 13 38q8 26 5 35q18 20 18 26q0 2 -2 3q11 6 28 8t32 4q4 -6 14 -4q13 4 15 4q0 15 11.5 43.5t12.5 43.5q-40 2 -114 15q12 3 22 45.5t10 78.5q0 18 -3 26q3 6 11 3t12 1q30 -5 92 -12q10 7 19 46l10 54q-129 18 -199 18
q-51 0 -86 -8zM401 540q2 21 7 38q3 -24 -7 -38zM163 508q-9 -90 -9 -80q0 -22 6 -30q16 35 16 108q0 -8 -7 -17q4 28 1 28q-2 0 -7 -9zM330 336q12 -7 22 -3q2 7 -8 7t-14 -4zM357 333q-25 -44 -17 -54q18 34 17 54zM136 148q-6 19 8 46zM128 160q0 17 7 25q0 -5 -7 -25z
M241 69q-3 9 14 46q-1 -9 -14 -46z" />
    <glyph glyph-name="g" unicode="g" horiz-adv-x="549" 
d="M471 585q15 -18 39 -59q-5 2 -7 2q-4 0 7 -18q13 -24 13 -35q-5 -3 -10 -7q0 -1 7 -3l-70 -46q10 -2 23 8q18 13 22 14q-34 -27 -49 -27q-50 -33 -76 -33q-4 0 -5 2l-18 -8q2 13 2 20q0 14 -10 15q-16 0 -23 9q-1 -13 -14 -31.5t-25 -22.5l-22 -47l27 6q-5 4 -10 9
q3 0 16 5q4 -3 9 -3q4 0 13.5 3.5t14.5 2.5q2 5 0 5q-11 0 -17 2q3 2 39 4q31 1 43 1q2 -13 28 -13q7 0 7 4q0 2 -2 4l62 -7l-19 -3q5 -9 21 -8.5t21 -4.5q-15 -41 -15 -47v-2q4 3 12 17q-15 -71 -30 -85v-2h5q-32 -84 -83 -128q-44 -37 -137 -70l8 8q-6 -1 -21.5 -8.5
t-24.5 -7.5q-4 0 -9 1q-10 12 -14 12q-2 0 -3 -3t-1 -2q-15 10 -38 35q12 -9 15 -10v1q0 7 -41 40l4 -10q-24 17 -49 49q18 -13 20 -13h1q0 1 -23 25.5t-28 35.5q6 -3 9 -3t7 17t25 24q-55 5 -55 17v3v4q0 8 -7 16v-28q-8 14 -9 61q-2 47 5 59l4 -6q3 12 13 34q37 6 37 9
q0 2 -15 5.5t-20 7.5l12 12q-6 2 -6 6q0 6 19.5 23t17.5 26q22 30 58 63l-9 -20q17 6 34 30q13 20 40 20q14 28 27 38l52 27q-13 -8 -38 -25q17 2 42.5 20.5t37.5 22.5l-14 -11q5 -1 9 -1q10 0 30 9t34 9q9 0 19 -4l2 14q55 -78 55 -62q0 3 -1 7zM237 533q-60 -40 -81 -97
q29 35 94 98q-13 -2 -13 -1zM477 506q5 -9 5 -16q0 -15 -19 -15q-2 -8 -13 -14.5t-14 -12.5q3 2 42 22q25 13 24 18q-7 0 -25 18zM283 435q4 -2 60 55q-18 -11 -60 -55zM276 226q17 -37 26 -37q5 0 9 17q5 21 6 23zM288 60q-14 -9 -30 -11q10 11 30 11zM396 624l-88 -41
q66 -12 66 -18q0 -3 -39 -9q-48 -8 -69 -16l20 12q-50 0 -100 -53l-66 -85q11 -5 34.5 -4t33.5 -1q4 -5 15 -4q13 2 17 0q-5 -11 -26 -16t-27 -13q-2 0 -15 -4q-9 -3 -15 1q-9 -1 -19.5 -1.5t-15.5 -7.5q5 -69 0 -134q80 -8 80 -11q0 -2 -21 -11q-28 -12 -45 -24
q64 -70 99 -124q21 -33 26 -33q3 0 20 8q22 11 49 19q3 6 15.5 18t17.5 12q3 0 3 -3q0 -6 -8 -23q43 54 68.5 65.5t38.5 47.5q7 20 15 70q6 46 15 63q-15 1 -44 9q29 5 37 5q10 0 11.5 -5.5t3.5 -27.5q6 13 6 21q0 21 -79 22h-110q-1 -9 1.5 -25t2.5 -23q0 -12 -6 -21
q8 -1 57 -3q17 0 17 -7q0 -6 -27 -56q5 1 9.5 12t11.5 11q-20 -42 -51 -62q-14 3 -28 19q-23 26 -24 26q2 -10 2 -14q0 -5 -5 3q-7 12 -10 13q-4 15 -20 48q-14 30 -17 49q15 4 35 62q14 3 22 30q32 24 57 58q19 25 25 25q10 0 51 -64q43 18 110 67q-32 60 -49 85
q-38 56 -68 63zM245 280q5 20 -4 20q-5 0 -2 -9q3 -8 6 -11z" />
    <glyph glyph-name="h" unicode="h" horiz-adv-x="649" 
d="M563 102q5 -2 5 -11q0 -10 -7 -29q-3 -12 -7 -23q3 23 3 29q0 1 -1 2l-5 -18t-6.5 -20.5t-36.5 -5.5q-21 -3 -25 -18q-4 -2 -31 0l-23 -2q0 -1 7 -5q-6 -2 -17 0q-14 2 -19 2q-3 10 -36 19q-37 10 -43 15q-1 17 5 41q8 33 9 40q-2 -29 -2 -44q0 -20 3 -14q2 6 5 26.5
t3 36.5q0 14 -3 17q1 20 22 21q31 1 35 4q-46 11 -45 14q6 19 -2 33q-13 -3 -37 -2.5t-35 -2.5q-7 -28 -7 -25v-1l11 11q1 -52 -18 -94q-2 16 -5 16q-4 0 -11 -29q-9 -36 -12 -43q-7 -2 -12 -9.5t-9 -7.5t-11 5l-35 -19.5t-35 -9.5q-30 0 -85 27l22 -4q-10 12 -34 16
q-18 4 -18 18q0 9 6 27q3 12 32.5 16t30.5 14q-4 1 -9 1q-4 0 -13 -2t-12 -2q-11 0 -14.5 14t-3.5 33q0 15 4 41q3 33 4 41q7 -5 16 -5q21 0 41 22q-11 9 -37 12q-14 1 -14 29q0 13 2 35l8 -34q9 24 9 67q0 10 -2 10q-4 0 -13 -34q-1 5 -1 15q0 18 5.5 69.5t5.5 67.5
q0 15 -3 18q55 23 55 29q0 1 -27 13t-35 36q15 3 15 12q0 6 -7 13q6 0 51 -13q9 9 12 21q1 8 7 8t38 -9q36 -10 55 -10q16 0 28 5q-1 -3 -1 -5q0 -5 15.5 -8.5t17.5 -14.5q3 -17 3 -38q0 -20 -6 -74q-4 -48 -2 -74q-2 -3 -2 -6q0 -13 18 -13q19 0 19 8q0 5 -17 9
q41 -2 53.5 7.5t10.5 43.5q57 15 57 18q0 1 -28 4q-31 3 -38 12q10 11 10 20q0 5 -7 17t-7 22t5 22q8 -14 11 -14q2 0 2 4q0 8 -4.5 23t-8.5 18q3 2 15 2h17q12 -1 17 -1q22 0 22 8q0 5 -9 14q5 6 21 3t22 2l69 -18q40 -12 65 -29q-7 -2 -7 -4q0 -6 31 -11q0 -19 5 -82
q3 -52 1 -83q-1 -12 -6 -12q-2 0 -4 2q-9 1 -17 -92q-11 -123 -34 -196zM247 460q-1 36 0 108q-3 1 -6 1q-6 0 -6 -12q0 6 12 -97zM578 399q8 70 8 152q-18 -135 -18 -139q0 -14 6 -14q2 0 4 1zM572 321q4 10 4 30.5t2 28.5q-6 -1 -8 -30q-3 -28 2 -29zM237 218
q-5 -22 -9 -43q-7 -34 -7 -51q0 -12 3 -17q18 62 13 111zM601 558q-7 9 -71 30q-49 16 -81 24q2 -6 2 -12q0 -9 -7 -31.5t-7 -34.5q0 -8 2 -15q82 -16 82 -22q0 -2 -67 -28l-6 -84q-2 -15 -22 -15h-12.5h-16.5q-22 0 -44 -2q34 -4 34 -7t-35 -5q-32 -1 -52 1q-10 6 -10 9
q0 4 26.5 3t27.5 3q-31 0 -81 8q-3 2 -3 4q0 3 4.5 8t4.5 7q0 3 -4 4q-10 0 -10 5q0 4 6 13.5t7 12.5q-2 -2 -3 -2q-11 0 -10 80q1 86 2 83q-32 5 -70 14q-29 7 -35 7q-14 0 -14 -33q3 0 45 -6q19 -2 19 -7q0 -7 -58 -38q1 -9 9.5 -16t10.5 -11q-28 -35 -28 -100
q0 -20 3 -54l4 -52q44 -7 44 -17q0 -9 -54 -35l-6 -46q-6 -38 -15 -36q54 -38 54 -50q0 -6 -14 -6q-5 0 -35 3q-15 -34 -15 -43q0 -13 27 -15q71 -6 90 -9q44 132 38 191q-1 6 -1 10q0 13 17 13q6 0 28 -2.5t38 -2.5t30 2q11 -8 23 -8q8 0 24.5 6t26.5 6q-8 -42 -8 -55
q0 -11 7 -11q2 0 10.5 2t14.5 2q21 0 42 -19l-47 -8q-2 -2 -6 -2q-3 0 -11 2.5t-11 2.5q-7 0 -5 -12q1 3 2 4q5 0 5 -26q-1 -26 -7 -35l-9 10q-5 -26 -2 -36q-3 6 -5 6q-7 0 -4 -13q12 -1 54 -10q50 -10 50 -15q0 -2 -10 -3l22 -4q11 38 30 115q-9 -2 -9 10q0 14 14 53
q15 43 17 52q24 165 24 288zM54 135l-4 68q-6 0 -6 -13q0 -10 10 -55z" />
    <glyph glyph-name="i" unicode="i" horiz-adv-x="353" 
d="M284 607q-8 0 14 -9q28 -10 29 -17l4 13q3 -29 -5 -136q-2 10 -4 10q-5 0 -9 -38t-3 -48q5 5 7.5 17t4.5 16q2 -45 -9 -84q-5 5 -7 5q-3 0 -1 -15l3 -19q-9 -91 -28 -147l-3 8q-22 -47 -22 -73q0 -4 2 -4t7 6q-6 -24 -22 -69q0 5 1 12v0v3q-1 0 -4 -3q-4 -6 -8 -10
q-28 0 -37 6q-3 -11 -15 -31l1 15q-2 -13 -20 -13q-42 0 -33 2q-31 10 -88 39q-16 -3 -16 12q0 9 7 30q5 17 3 18l-10 -15q0 8 11 58q-1 -13 -1 -18q0 -11 9 24q11 42 12 44q42 2 42 4q0 1 -13 6.5t-22 12.5q0 4 2 21q2 14 0 22l-5 -24q-6 34 3 85q-1 -12 4 -34q6 15 7 38
q1 25 -5 38q5 20 7 54q1 40 3 54l4 -28l4 48q1 10 8 10q-1 0 18 -2q15 -1 31 0q-7 5 -25 9.5t-33 17.5q-1 7 -1 14q-1 0 -6 -11l2 22q1 -1 3 -1q7 0 2 49q3 2 5 4q2 1 0 1q-2 2 -5 3q1 10 5 10l17.5 -4t39.5 -4q-2 2 -2 5t3.5 7.5t3.5 6.5t-5 4l3 6q83 -9 135 -33zM180 480
q1 -1 -6 -7q-1 -17 -7 -60.5t-6 -65.5q0 -15 3 -26q12 5 13 17q5 56 9 83q-5 -1 -5 0q-1 2 1 13q3 20 4 37q-4 -9 -7 -11q3 17 1 20zM160 313q-6 -25 -4 -29q11 31 11 26q0 4 -7 3zM244 159q-18 -38 -24 -75q-4 -19 -14 -19q-5 0 -34 5q14 -6 43 -17q9 -3 19 38l10 45v23z
M163 621q3 -13 1 -36q-2 -25 0 -35q16 0 40 -9q29 -10 40 -12v-10q-52 -16 -78 -16l-4 -31q0 -3 4 -8q-2 -8 -18 -110t-16 -106q38 -6 85 -22q-4 -1 -5 -7.5t-4 -8.5l-81 1q4 -1 4 -13q0 -17 -12 -65q-12 -51 -12 -55q29 -12 59 -23q35 -13 62 -17q8 17 14 45q-7 -19 -9 -20
v1q0 2 5.5 22t5.5 25q6 -1 6 7v13q1 17 12 34q-2 8 -2 20q0 31 26 185q25 148 22 211q-17 0 -40.5 5.5t-23.5 9.5t33 2q-21 7 -57 13q-47 7 -57 10z" />
    <glyph glyph-name="j" unicode="j" horiz-adv-x="502" 
d="M417 621q12 -13 40 -15v-10l10 17q-1 -10 3 -30t4 -29q0 -13 -5 -24q2 -13 2 -31l13 21l2 -3q-1 -35 -11 -84q1 -6 -5 -42q10 -7 3 -27l2 -3q-5 -35 -24 -104l-6 -3q-1 -19 -13 -46q-15 -35 -18 -44l16 20q-10 -27 -78 -147q-12 1 -44 2q4 -5 16 -8t15 -9l-33 12l-12 -21
l-6 8q-7 -6 -20 -4l-20 4q-7 6 -20 8q-20 4 -22 5q34 -12 74 -34q-17 7 -54 17q-6 6 -65 26.5t-83 45.5v2l17 -3q-9 5 -23 22l31 12q-12 -4 -32 3l4 -5q-3 -1 -6 -1q-7 0 -16 10t-12 10q-1 0 -3 -2q-9 12 -22 39l19 14v5l-14 -12q26 60 71 88l13 -7l-1 6l8 -7q12 12 41 30
l11 -7l-2 6q12 0 13 -13l21 -20l-2 -1q4 -7 35 -38q-13 14 -16 25q3 -2 10 -10.5t12 -8.5q3 0 6 4q5 38 9 76q5 47 17 74l11 3l-2 4l15 2l-2 -3l16 6q-5 6 -24.5 7t-20.5 13l-6 -3q-4 12 -1 39t-3 41q-8 19 -2 26l2 -10l12 16q12 -2 38 12q-12 1 -27 7q-18 8 -25 10h1
q-10 43 -8 58l13 4l-6 6l41 -6l2 7l6 -8l3 19l11 4l-4 6zM435 580q-3 0 -10 -6q4 -96 4 -97q6 -8 4 -22t1 -21q8 12 9 54v60q-8 4 -6.5 16t-1.5 16zM338 479v24q-7 -9 -2 -24h2zM159 256l-3 -7q13 -9 11 -9l4 2q-3 6 -12 14zM149 248q-17 -14 -41 -47q3 4 9 3l-3 -7
q17 15 39 43zM322 623q9 -10 0 -35q3 -16 24 -20l34 -6q2 -14 -16 -21q-27 -10 -28 -11q-5 -37 -1 -86l-3 -7q28 3 35 -3l-8 -4l4 -4l14 2l8 -6q-1 -13 -15.5 -18t-28.5 -9l5 -4q-6 -46 -11 -91q-13 -79 -28 -96q-2 10 4 22q-4 -13 -14 -37h9l-6 -19l-3 13q-14 -14 -25 -14
q-9 0 -21 11q-15 14 -24 18l-1 5q-21 14 -67 72l-5 1q-29 -47 -60 -76l18 -36q39 -6 80 -17q-6 -9 -20 -14q-18 -6 -23 -10l84 -42q50 -24 89 -24q10 0 19 1q22 35 46 91l38 93l-5 -1q7 20 16 60h1l9 56q-3 -4 -3 2l4 2l-2 19l3 2q6 78 6 114q0 85 -18 105q-38 9 -114 22z
" />
    <glyph glyph-name="k" unicode="k" horiz-adv-x="587" 
d="M234 626q9 -5 31.5 -5t33.5 -6l-28 1q5 -3 40 -12v-8l19 -11l1 1l-1 -95q9 -9 1 -28l11 6l-15 -20q16 3 28 27q15 29 22 35l3 -5q2 5 14 12t10 16q2 -1 5 3q-1 2 -2 3q11 -13 21 -13q6 0 9 7l3 -4q2 4 16 12q10 5 9 16l4 6q15 -10 53 -39q43 -32 48 -40l-18 -6
q-13 -24 -45 -66q4 3 4 0q1 -1 0 -4l3 -1q10 15 35 42q-35 -50 -48 -66q-33 -41 -59 -53l45 49q-13 -9 -34.5 -33.5t-31.5 -30.5q-1 4 -4 4q-7 0 -17 -11l29 -88q12 -11 50 -53l-4 -3q15 -20 49 -51q-6 -24 -30 -56v6q-2 -1 -35 -31q-12 -3 -35 1v-5q-7 1 -15 -8.5t-14 -9.5
q-6 -5 -13 -5t-20 7.5t-18 9.5l6 -12q-49 35 -81 77l16 -12q2 6 -4.5 10.5t-6.5 7.5q0 2 1 4q19 7 27 16l-37 -1l-20 -40q2 -3 2 -6q0 -6 -11 -9q-7 -29 -19 -23q-16 -12 -28 -10l-10 10l-15 -25q-2 3 -5 3q-4 0 -13 -6t-10 -7q-5 -2 -12.5 6t-12.5 8q-3 0 -6 -1l2 -5
q-19 5 -56 21q-11 -3 -13.5 7.5t-7.5 12.5l15 52l-1 2q-14 -36 -23 -72h-4q19 63 53 188l-10 -4q17 7 20 23q23 2 46 10l-52 15q1 2 3 30q2 19 14 25q26 -3 45 6q-4 6 -20 9q-20 4 -26 8.5t-6 29.5q0 32 10 37q1 4 1 22q0 14 7 21q-7 37 7 48l1 -6q8 5 24 7q20 2 25 4
q1 3 1 5q0 6 -19 11q-23 6 -31 18l-5 -14q-4 5 -1 14q4 14 4 16q0 5 -6 9q0 -4 -2 20q-1 12 7 17l2 -2l13 13l-7 7l44 -8l7 13l4 -3q-6 14 12 15l-7 5l62 -10q-1 -2 -3 -4zM474 415l-49 -36q-1 -7 -10.5 -16.5t-10.5 -14.5q51 35 70 67zM202 258q-28 -11 -36 -10q10 7 36 10
zM166 215h-4q-13 -31 -33 -119l2 -5q10 21 23 63q15 48 12 61zM465 144l-7 3q-4 2 -6 -2q3 -2 14 -15q8 -11 16 -11q3 0 7 2l-2 4q-10 4 -22 19zM479 113q-6 -8 -29 -20q-18 -11 -23 -25q6 7 31 20q20 10 23 25h-2zM137 76l2 -2q3 -1 7 -2q6 -1 6 2q-5 4 -15 2zM282 599
l-103 22l3 -25l4 18q8 -11 -1 -36l-3 2v-4q-2 -14 18 -20q5 -1 34 -3q3 -8 17 -9.5t18 -7.5l-17 -6q-10 -13 -30.5 -17.5l-39.5 -8.5q-2 -50 -16 -119q-1 -3 -1.5 -3t-1.5 -5q-1 -7 11.5 -7.5t14.5 -3.5q14 -5 45 -12q-7 -7 0 -10q-3 -4 -13 -7.5t-12 -8.5q-21 1 -49 -9
q-6 -20 -4 -30q11 1 24 0q6 -7 22 -10t22 -8q-24 -8 -72 -20q-10 -46 -10 -45q0 -6 3 -7q-7 -8 -11 -24q-6 -23 -7 -25l9 19q-4 -11 -1 -33q-6 -18 -20 -55l6 -7h-16q10 23 22 74l-1 1q-9 -27 -22 -80q87 -28 96 -24l34 64l-2 2q8 6 20.5 36t19.5 33v-10q4 1 5 9t8 7
q14 -13 31 -31q7 -7 11 -7q-4 0 16 2q16 1 39 0q0 -11 -12 -20q-16 -12 -19 -16l44 -40l7 -3q3 -7 34 -26q58 30 73 74l-8 1l-80 86q-21 23 -31 53q-12 37 -21 52q21 14 57 49q10 1 22.5 14t20.5 15v9q17 15 70 88l-63 54l-76 -78q-51 -46 -93 -51q1 7 -6 34q9 22 5 73t3 65
q-11 2 -30 12z" />
    <glyph glyph-name="l" unicode="l" horiz-adv-x="511" 
d="M286 609q-1 -3 25 -10q17 -4 34 -9q6 -8 6 -16q0 -1 -1 -7v0q2 1 13 5q-7 -25 -12 -69q-6 -51 -10 -71q-8 4 -12 -23q-5 -33 -12 -39q-3 -14 -5 -41l6 8q6 -8 -9 -17l-4 -27q5 9 8 7q-6 -39 -8 -49q-7 -29 -19 -46q0 -3 94 -6q110 -4 113 -4l-21 -5l21 -12
q-9 -15 -17 -50t-20 -54q-19 1 -22 -9h-21q-12 -2 -13 -13q-12 0 -27 -10l-33 -1q4 3 4 6q0 2 -5 2q-16 0 -30 -6l-2 -5l-34 -5q5 6 -1 6q-3 0 -14 -2t-17 -2q-8 0 -12 3q-69 -10 -205 -38q-2 10 -6 9q21 76 23 76q5 0 4 0q14 0 41 25l-20 7q-11 23 -11 34q0 7 5 21
q6 20 9 37q-3 5 -3 14t3.5 26t3.5 21q3 -2 7 -4q-2 0 5 22q1 -2 3 -4q1 2 6 14q5 4 27 17q16 10 16 12q-1 1 -4 1q-8 0 -37 -7q-8 15 -8 17q0 -5 3 23l5 -21q1 16 3 21q2 12 9 19l1 -6q19 4 37 11q0 -1 -18.5 4t-23.5 18q-5 -5 -8 -5t-3 8t3.5 29.5t3.5 25.5q1 -1 3 -1
q7 0 11 63q3 39 5 79q5 1 11 2q-3 2 -18 8l53 -10q1 5 3 10q0 -2 3 -12q6 1 7 15t13 12l-18 9q68 -11 113 -31zM326 562q-8 -3 -15 -45q-6 -36 -6 -52q1 5 13 48q8 29 8 49zM171 284q-17 -37 -17 -79q0 -10 3 -10q10 14 16 39q7 32 11 41l-9 -7q-1 1 -0.5 7t0.5 7q0 4 -4 2z
M290 163h18l-1 -5q11 1 31 0q26 -2 34 -2q32 0 48 17q-85 0 -130 -10zM361 163l-23 1l-2 -1h25zM133 59q26 4 78 10q-28 1 -64 -4q-15 -2 -14 -6zM194 621q-1 -14 3 -14q1 0 3 3q2 -2 2 -8q0 -10 -4 -22t-7 -9l-2 -38q8 -1 3 -49q7 -12 -4 -31l-4 9q-8 -19 -6 -30
q3 -1 38 -7q28 -5 28 -9q0 -3 -11 -7q0 -8 -22 -16q-17 -6 -28 -7q-9 -8 -9 -35q0 -1 30 -5q23 -4 23 -9q0 -4 -13 -8q-7 -9 -22 -13q-22 -6 -24 -7l-30 -136q-6 -5 -6 -15q23 -11 56 -11h9.5h6.5q5 0 5 -1t-57 -34q6 -2 14.5 4t11.5 6t6 -2q0 -13 -21 -13h-10q-7 1 -10 1
q-23 0 -24 -14q4 2 7 2t3 -3q0 -5 -10 -24.5t-10 -23.5q108 27 301 39q-8 7 -17 7q-4 0 -12.5 -2.5t-12.5 -2.5q-9 0 -16 7q14 5 48 5q23 0 23 -7q0 -3 -5 -8l12 -4q16 9 30 51l-9 1q1 11 12 27v-13q9 26 7 37l-46 2q-3 -8 -101 -4q0 3 3 6q-5 0 -22 -4.5t-25 -4.5
q-12 0 -16 8q10 10 -6 14l8 2q3 0 2 0l-4 3q1 6 3 11l4 -8l14 52q-3 -2 -9.5 -22.5t-9.5 -20.5q-2 0 -3 2q1 3 41 169q23 94 38 188q-87 31 -147 46z" />
    <glyph glyph-name="m" unicode="m" horiz-adv-x="804" 
d="M326 607q27 6 62 -75l45 -106q2 1 9 11t11 10q3 0 6 -5q19 21 39 31q28 12 38 20q-8 3 -8 9t9 18t9 14t-3 2q-5 0 -22 -6q5 11 30 44q21 26 23 46q15 0 25.5 -5t11.5 -5q4 0 21 30q6 1 12 1q21 0 57 -17q40 -19 57 -22q5 -12 11 -24q0 13 16 10q-27 -93 -27 -139
q0 -22 10 -16q-4 -41 -28 -155q-29 -129 -43 -136q-3 -2 -4 8q-1 4 -1 11q-7 0 -31 -57q-26 -62 -44 -75l17 -9q-8 -2 -29 3q-24 5 -30 5q-8 0 -8 -5q0 -6 11 -20q-3 -1 -7 -1q-7 0 -23 5t-19 5q-4 0 -4 -3t2 -6q-21 -3 -71 18q24 2 24 6q0 5 -40 17q12 32 27 96
q-57 -52 -57 -60q0 -2 2 -4q-35 -40 -64 -44q0 17 -2 17q1 0 -15.5 -17t-38.5 -20q2 21 -13 57.5t-15 55.5q-7 -34 -13 -53q-11 -39 -19 -46l-4 26l-11 -27q-6 -3 -15 -3h-16q-13 -2 -12 -22q-3 13 -7 27q-1 -1 -7 -21q-10 -4 -23 -4q-20 0 -61 15t-57 16q19 6 19 7
q0 -3 -12 23l14 39q10 24 21 33q8 -3 45 4q2 9 -12.5 10t-14.5 19q0 11 5 30q-6 -22 -17 -30q6 19 12.5 62t13.5 64q4 -15 8 -15q5 0 5 17q0 25 -13 32q3 13 13 14t10 11l32 9q-33 12 -33 55q0 23 10 59q8 26 15 52q6 -6 11 -6q6 0 26 21q-11 -1 -22 10.5t-13 11.5
q-4 0 -7 -5q-6 18 -2 29q3 8 10.5 12.5t7.5 5.5q0 3 -20 12q4 4 44 4q19 1 19 7q0 3 -5 9q4 3 15 3q22 0 66 -14q37 -11 56 -21zM739 485q5 25 12 75q-17 -3 -17 -47q0 -28 5 -28zM208 430q5 53 20 73q23 30 26 38q-37 -11 -40 -18.5t-6 -92.5zM554 448q-20 -7 -44 -27
q-40 -34 -41 -34q5 -5 41.5 20.5t43.5 40.5zM716 374l-26 -66q-17 -41 -17 -68q0 -8 1 -15q2 4 14 25q8 14 8 24q0 6 -2 11q22 47 22 89zM422 169q30 20 32 20v0q0 1 -38 -38q19 6 50 44l42 54q-4 5 -8 5q-6 0 -25 -24q-28 -37 -53 -61zM330 194q0 -1 17 -39l-4 24
q-3 16 -9 16q-2 0 -4 -1zM647 627q-18 -12 -28 -46q-12 -37 -22 -49q16 -3 16 -12t-18 -21.5t-28 -12.5q-3 0 -4 1q-13 -13 -133 -116q-8 6 -11.5 26t-13.5 25q1 -10 -2 -10t-8.5 12.5t-5.5 22.5q0 7 3 9q-7 28 -26 68q-27 55 -31 66q-9 5 -26 9q6 -5 6 -8q0 -2 -4 -2
q-17 0 -98 33q-4 -16 -4 -26q0 -19 23 -21q32 -1 40 -7l-66 -35q-5 -17 -5 -67q0 -42 -10 -65q65 0 65 -7q0 -5 -26 -14q-35 -13 -40 -15.5t-8.5 -9.5t-7.5 -7q5 -15 5 -32q0 -24 -11 -63q-14 -45 -16 -62q16 -5 31 -12q-1 -1 -15 -4q22 0 31 -13q-18 -17 -35.5 -19
t-24.5 -10q-13 -14 -33 -70q62 -23 98 -28q9 8 31.5 95t44.5 109q6 -1 8 5q1 4 0 10q22 -7 48 -88q17 -53 28 -107q19 8 89 88q66 75 84 104q10 -5 10 -18q0 -6 -3 -19.5t-3 -19.5q0 -17 22 -17q13 0 34 5q-20 -23 -36.5 -24.5t-20.5 -8.5q-7 -14 -20 -79q10 -10 35 -19.5
t43 -9.5q8 0 12 1q67 122 102 262q27 108 46 277q-20 14 -55 26zM482 146q10 3 32 6q4 1 4 12l-31 2q6 -4 6 -7q0 -4 -9 -6l-9 -2q2 -2 7 -5zM6074 0z" />
    <glyph glyph-name="n" unicode="n" horiz-adv-x="730" 
d="M308 184q-5 -18 -7 -18q-3 0 -5.5 15.5t-4.5 17.5q-12 -14 -30 -65l-23 -72q-7 1 -20 -12.5t-13 -22.5q0 -3 2 -5q-41 0 -33 -3q2 -3 2 -5t-13 -3q-5 0 -5 -3t4 -8q-32 9 -94 25q6 4 6 7q0 6 -22 12q-28 7 -30 8q7 6 11.5 25.5t15.5 25.5q16 28 35 50q14 16 14 17
q0 2 -30 7l31 85l43 21l-30 1l8 62q8 36 38 36q-7 -4 -7 -6q0 -1 1 -1q18 0 24 15q-7 2 -19 0q-15 -3 -19 -3q-9 0 -16 5q4 23 16 68q5 -8 9 -8q7 0 9 57q2 68 16 97l19 -10q8 -4 8 1q0 3 -2 10q3 -1 6 -1q13 0 15 23q29 -11 29 -4q0 2 -4 5q21 -2 55 -12q39 -12 54 -15
l-14 -5q24 3 47 -34l32 -57l-13 2q6 -31 29 -80l37 -79q29 21 51 28q-24 1 -43 26q6 5 5 18t-4 13q-2 -1 -2 -5q-4 25 2 36h1q2 -20 7 -32q2 5 8 50q3 27 36 40q-22 13 -22 37q0 8 13 56q18 -14 26 -14t12 13q7 20 9 24q9 -15 46 -25q47 -14 61 -23q31 -19 31 -58
q0 -18 -6 -40q10 1 10 -15q0 -36 -48 -161l-54 -139q-4 3 -8 3q-11 0 -25 -43l15 15q-14 -55 -40 -87q-1 -1 -20 -17q-15 -13 -15 -20q0 -3 3 -5q-15 0 -29 -1q-17 -3 -17 -21h-17q-2 8 -24 14.5t-40 6.5q-7 0 -11 -1q2 8 -3.5 20t-10.5 12t-7 -13q-13 21 -26 71.5t-26 70.5
zM256 598q-5 -10 -7 -10l-2 2q-31 -96 -31 -132q7 12 23.5 70t16.5 70zM347 570q5 -57 48 -142q6 -1 7.5 -6.5t5.5 -8.5q-5 26 -26 83q-23 65 -35 74zM286 274l-10 -19q4 -3 -13 -48q-19 -49 -19 -58l26 50q19 39 19 61q0 8 -3 14zM168 269q-20 -46 -20 -65q0 -3 1 -5
q3 10 13 27q9 13 9 25q0 8 -3 18zM564 206q-21 -38 -58 -116q3 -4 -1 -13t-4 -12q11 16 36 65q28 56 28 72q0 3 -1 4zM339 291q8 -5 20.5 -31.5t12.5 -34.5q0 -2 -1 -2q-3 0 -18 25l27 -65q21 -51 18 -61q22 7 23 -47q17 -3 47 -16.5t45 -16.5q14 16 12 29l82 166
q7 16 18 58q9 37 19 55q20 34 31 117t14 88t3 8q0 13 -19 12q-20 24 -63 27q16 -7 43 -23q-57 11 -57 23q0 3 6 5l-17 8q-9 -15 -12 -52q49 -8 49 -14q0 -3 -19 -11q-26 -11 -39 -19l-24 -101q4 -1 9 -1q7 0 18.5 3.5t16.5 3.5q8 0 15 -6q-17 -2 -17 -5q0 -4 22 -5
q-53 -36 -85 -46q1 -17 -13.5 -47.5t-28.5 -40.5q-30 52 -64 156q-36 110 -61 158q-13 4 -46 7q-29 3 -49 12q-6 12 -25 10l-36 -184q35 -29 56 -26q-18 -2 -60 -29q-2 -20 -16 -55l28 -2q26 -1 26 -4q-1 -2 -9 -5q5 -2 5 -4q0 -11 -66 -24q-11 -32 -24 -96q16 -10 32 -16
l11 -5q0 3 -63 -24q-7 -2 -12.5 -29t-15.5 -33q60 -35 104 -42q9 -1 40 103q37 130 44 147q13 31 24 31q7 0 28 -27q7 -8 11 -2zM622 322q-4 18 -4 21q1 7 14 65t18 70q-1 -37 -6 -81q-8 -61 -22 -75z" />
    <glyph glyph-name="o" unicode="o" horiz-adv-x="586" 
d="M440 601l60 -31q43 -23 51 -38q-2 -3 -2 -7q0 -11 16 -28q-6 -50 -29 -123q-3 12 -5 12l-6 -23q-8 -30 -21 -58q19 33 22 33v-1q0 -3 -12 -28l-32 -62q3 12 -1 12q-5 0 -12 -13q-6 -13 0 -13q3 0 7 2q-95 -215 -173 -213q-20 -15 -51 -15q-50 0 -116 37q-59 33 -91 71
q2 2 2 5q0 6 -10 19.5t-12 16.5q-5 14 -5 32q0 21 9 52q4 -5 9 -5q14 0 30 30l16 9q-23 3 -35 10q9 13 1 13q-2 0 -6 -3l12 36q8 21 22 31q5 18 31 26q33 11 40 16l-40 15q1 7 -4 8q-4 1 -8 -4q22 47 52 75q-14 -20 -36 -61q23 31 60.5 60.5t54.5 28.5q-12 16 -28 19
q-1 19 24 40q21 18 43 26l-10 5q7 4 15 4q3 0 9 -1h8q17 0 37 15q-10 7 -8 8q4 1 49.5 -14t50.5 -19q23 -20 23 -13q0 2 -1 6zM332 615l-21 -20q3 -2 4 -4q0 -2 -14 -9t-19 -15l14 -5q-3 2 -4 4q0 3 5 2q5 -2 10 -9q20 7 22 -7q-12 -7 -37 -18l-3 -11q-4 2 -10 2
q-24 0 -53 -31q-25 -26 -35 -51l47 -8l-6 -10q-4 1 -8 1q-10 0 -21 -16t-29 -17q-13 0 -26 -35q-19 -47 -19 -48q13 3 23 2q15 0 15 -8q0 -10 -19.5 -25t-28.5 -13q-16 -50 -16 -75q0 -48 58 -84q-3 5 -3 7q0 4 5 4q10 0 29 -12.5t19 -20.5q0 -4 -6 -5q21 -17 116 -49
q7 20 35 51t36 51q9 -1 12 11t6 14q116 216 127 353q-52 48 -94 68q-30 14 -111 36zM506 509q-27 11 -70 49q34 -19 38 -21q20 -13 32 -28zM222 467q-8 -2 -9 0l44 39q-1 -11 -15 -21q-17 -13 -20 -18zM484 342l40 149q5 -1 -2 -31q-16 -67 -38 -118zM298 433
q-26 -45 -70 -142q-3 2 -6 7q11 15 29 59q16 39 32 58q3 18 15 18zM363 305q3 0 3 -4q0 -14 -41 -69q-39 -51 -55 -64q-13 4 -23 17l-19 25q-3 27 23 99q-4 9 7.5 36.5t19.5 34.5q39 97 49 97q3 0 2 -11q5 3 10.5 11t10.5 8q4 0 9 -2q52 -20 52 -58q0 -22 -18 -58
q-29 -59 -30 -62zM321 422q-39 -54 -84 -202q8 2 10 -5q30 28 44 76q-6 -5 -9 -5q-1 1 -1 3l4.5 16.5t23.5 56.5q16 34 19 55q-3 6 -7 5zM144 330q1 3 20 50q4 0 4 -5q0 -9 -24 -45zM227 258q0 3 11 36q2 -13 -11 -36zM369 123q-15 -19 -42 -58l-8 -1q35 62 50 59z" />
    <glyph glyph-name="p" unicode="p" horiz-adv-x="580" 
d="M422 598q-15 4 -20 4q-2 0 -2 -1q0 -3 16 -10t22 -6q1 0 18 -19q14 -16 18 -16q1 1 1 2q0 4 -6 18q10 -2 22.5 -35.5t24.5 -36.5q47 -105 44 -112q-11 -4 -22.5 -18t-12 -23t-31.5 -32l-54 -38q-8 0 -7 0q3 6 7 11l-13 -10q-2 -11 -54.5 -29t-59.5 -37l4 -2l-52 -94
q-30 -53 -58 -90q-9 10 -18 10q-5 0 -6 -6q-4 3 -8 3q-7 0 -16 -13q-12 -17 -13 -18q-28 11 -22 11q-1 -1 -3 -7q-26 14 -21 14q-1 0 -4 -7q-15 7 -59 39q10 0 9 1q-4 4 -9.5 10.5t-4.5 18.5l-8 -11q1 7 9 31.5t12 29.5l-8 -27q2 2 15 31t19 29q2 0 3 -3l49 26q-1 1 -3 1
q-6 -1 -4 -1q-31 0 -31 29q0 22 17 60q-3 3 -3 10q0 9 7.5 31.5t6.5 28.5l50 35q19 12 19 15q0 4 -50 4q3 27 14 81q2 -3 3 -3t4.5 13t13.5 17q29 11 49 24l-32 -3l8 -4l-13 -3l-8 10q-6 2 -12 3v13q0 2 -1 4l-8 -4q-3 12 10 61l4 -6q14 14 51 14h-1q-3 1 -18 7q3 2 10 1
q9 -2 11 -1q4 1 4 8q24 -5 24 3q0 2 -3 6q36 -2 91 -12q74 -14 89 -30zM244 621q-8 -16 -13 -49q10 1 28.5 -2t27.5 -3q10 0 18 3q1 -3 1 -6q0 -8 -12 -17.5t-14 -15.5q-3 1 -20.5 -8.5t-23.5 -11.5q-8 -28 -19 -86q13 -1 27.5 -3t22.5 -9q-2 -20 -25 -32l-38 -19l-43 -133
l6 -7q25 4 37 4q21 0 -3 -17l-55 -38q-7 -20 -36 -82q15 -14 49 -39q5 1 20 -5t22 -7q8 23 56.5 107t63.5 99l-8 3q8 7 19 8q17 2 21 3q17 7 62 39q39 29 64 34q28 31 67 69q-60 127 -111 166q-57 45 -191 55zM519 410q-8 14 -22 22q-3 13 -28 49t-23 40q10 -4 73 -111z
M400 446l1 7q12 -14 9 -24l-7 12q14 -31 0 -55q-1 3 -4 7q-36 -25 -50 -25q-12 0 -10 18q0 3 -3.5 -1.5t-3.5 -5.5q-3 8 -3 9t4.5 10.5t10.5 28.5l5 -3q12 26 10 46q4 2 8 2q24 0 33 -26zM487 368q12 20 34 34q-3 -9 -34 -34zM188 253q-4 -1 -4 4t3 17t3 13l-6 -10
q9 40 28 83q4 -21 -9 -54q-14 -39 -15 -53zM221 105q8 21 28.5 59t27.5 57l2 -8l14 25q-32 -81 -72 -133zM208 86q-2 -14 -14 -22q-6 14 14 22z" />
    <glyph glyph-name="q" unicode="q" horiz-adv-x="568" 
d="M364 635q50 -15 100 -40q79 -40 79 -72q0 -4 -1 -8l10 6q1 -23 -25 -113q-29 -99 -49 -109q-1 -6 -11.5 -20.5t-6.5 -24.5h1q-18 -20 -44 -65l14.5 -14.5t15.5 -7.5l18 -20l-18 10q3 -7 25 -26q19 -16 17 -18q11 -6 11 -13t-28 -28l24 9q-19 -10 -80 -60q-20 7 -21 7
q-3 0 -10 -7q-12 -11 -25 -21q-8 2 -19.5 9l-11.5 7v0q1 -2 9 -11q-35 12 -55 30q-15 14 -17 14q-5 0 -16 -10l7 12q-27 -13 -37 -13q-4 0 -9 2.5t-12 2.5q-4 0 -11 -1q15 -4 45 -16q-41 5 -125 39q-4 10 -37.5 33.5t-45.5 53.5h-3q0 6 9 26.5t9 25.5t-5 5q3 5 8 5
q2 0 7 -1.5t7 -1.5q5 0 8 5q-23 24 -23 40q0 6 3.5 13t3.5 10t-2 6l22 64q14 38 31 59q-2 -13 10 -13q11 0 19 7q7 7 -3 11q9 2 17 6l-25 10q15 17 8 25q1 10 11 21q15 17 16 18l-4 -10q20 20 41 53q-9 0 -16.5 -15t-17.5 -17q12 21 40 46q35 32 45 43q6 2 16.5 9t7.5 11
q1 1 28.5 6t27.5 11q0 2 -2 4q6 6 13 6q4 0 16 -4q9 -4 16 -1zM326 621q-90 -97 -128 -159q5 1 27 0q23 -1 23 -3q-2 -3 -17 -5q6 -2 12 -6l-10 -5q11 0 11 -2q0 -4 -31 -15l-34 -13.5t-23.5 -28.5t-14.5 -29q-4 -26 -9 -52q-6 -31 -20 -46q2 1 7 1q31 0 41 -16
q-62 -25 -62 -58q0 -32 55 -66q45 -28 97 -40q7 -13 36 -10q12 14 39 34q1 -5 38 -32.5t44 -29.5q45 27 82 65q-23 8 -57 36q-39 32 -40 53q0 11 37.5 54t37.5 58q0 3 -2 5q15 13 42 94.5t27 112.5q0 6 -1 9q-16 33 -72 51q-70 23 -85 35q-4 3 -13 0.5t-13 -0.5q-2 5 -10 6
q-12 1 -14 2zM360 594q-5 -2 -15 -2q-11 1 -11 6q19 0 26 -4zM304 583q-24 -30 -75 -87q-4 10 28 44q28 30 47 43zM469 363q10 23 41 123q-5 -19 -16 -99q-3 -18 -25 -24zM400 454q-3 -7 1 -16q-2 -21 -15 -49q-19 -46 -20 -48q6 -12 -51 -95q-8 -2 -16 -13q-10 -16 -12 -17
q-29 18 -62 44q-2 4 2.5 13.5t4.5 14.5t-4 9l19 44q13 17 31 60q23 53 31 68q15 21 29 21q9 0 26.5 -11.5zM261 334l12 19l1 -2q-11 -32 -19 -30q-4 -7 -9 -22l7 4q1 -2 1 -5q0 -7 -10.5 -17t-10.5 -15q0 -4 4 -8q4 8 25 4q30 33 30 51q0 4 -2 5l44 102q-11 11 -18 11
q-6 0 -9 -5q-24 -38 -27 -44q-15 -28 -19 -48zM211 294h-1q12 46 43 101q-11 -31 -42 -101zM449 89q-20 -17 -42 -29q0 6 17 16t25 13zM398 64q-1 -2 -6 0q-4 1 -4.5 1.5t-3.5 5.5q2 2 14 -7z" />
    <glyph glyph-name="r" unicode="r" horiz-adv-x="609" 
d="M437 603q21 6 76 -36l70 -57l-15 6q1 -4 11 -9.5t9 -11.5q-13 -11 -4 -19q-19 -15 -35 -62v15q-36 -44 -49 -58q-42 -46 -75 -71q-4 -11 -19 -8q14 -25 11 -25q1 1 5 6l13 -24q-8 1 -6 -4l4 -14q16 -13 36 -41q27 -36 35 -45q-5 -6 -4 -7t12 -8q-12 -20 -34.5 -37.5
t-22.5 -16.5h1q3 0 27 5q-31 -21 -31 -17q1 -1 6 -5l-25 -17q2 4 2 7q0 4 -3 4q-8 0 -33 -16l-27 -18q0 7 -4 7t-16 -10t-15 -10q-4 0 -3 9q-2 -1 -5 -1q-4 0 -13.5 5t-13.5 5q-15 17 -37 54q3 2 17.5 12.5t14.5 11.5q6 2 -32 2q-14 0 -20 -11q-17 -27 -24 -37
q-14 -21 -29 -33l-29 6q-8 -3 -17 -14.5t-15 -14.5q-31 4 -34 3q-14 15 -50 40q-23 17 -23 32q0 17 24 50q35 7 35 9l-16.5 2t-17.5 9q0 6 3 15t3 13q0 5 -2 9q2 14 16.5 37t16.5 37q14 1 40 10l-25 9q-3 8 7.5 38t8.5 32q-3 -5 -7 -16t-5 -11q0 22 14 35q4 -2 9 -3
q8 0 7 15q0 20 1 24q23 -3 52 14l-5 9q-18 -6 -35 7q0 1 10 36q8 28 8 34q0 2 -1 2q-3 -1 -9 -11q-2 19 11 68q3 -17 5 -18q1 0 3 20q2 26 4 38q5 3 9 6q0 1 -9 6q2 1 4 3q-1 6 -5 4q5 4 20 4.5t20 5.5q20 -5 27 -2q7 2 -6 9l5 3l-7 4q6 3 20.5 3.5t20.5 5.5
q108 -10 159 -37zM221 454l29 -6q36 -6 36 -11q0 -2 -15 -9q-19 -9 -25.5 -16.5t-19.5 -12.5q-16 -5 -20 -9q2 -7 1 -13q-1 -9 -9 -6l-23 -62q5 1 7 4l16 -6q0 -7 15 -8q8 0 10 -5q-32 -25 -57 -28q-12 -2 -13 -16q15 6 26 13q8 5 9 5t8 -8l-38 -31q-12 -12 -15 -46l-8 3
l-13 -11q17 -10 45 -15q22 -3 22 -7t-9 -12q-23 -8 -70 -17q-5 -13 -11.5 -23t-6.5 -12q0 -4 20 -13q43 -22 76 -41l8 18q-9 -4 -12 -4q-1 0 -1 2t45.5 62t52.5 95q6 -13 41 -73q11 7 23 7q5 0 13 -1t12 -1q9 0 16 6q9 0 10 -2q0 -1 -6.5 -5.5t-6.5 -8.5l2 -4
q-2 -13 -19 -15t-21 -11q6 -7 19 -27.5t25 -27.5q74 39 106 90q-22 26 -33 49q-8 16 -10 16t-13 -8q-4 15 -29 51q-21 31 -23 54q39 26 101 86q79 77 79 109q0 11 -9 15q-103 68 -116 75q-70 38 -132 38q-12 0 -25 -1q-30 4 -39 -51q-15 -90 -25 -114zM279 597
q-17 -40 -29 -117q7 26 13 53q11 41 18 41q-1 20 24 20q10 0 34 -4t33 -4l2 5q-41 8 -95 6zM370 513q-8 -3 -21 -49q-7 -28 -15 -56q-2 -8 -5 -17h1q4 4 26 19q16 0 7 -14q77 60 77 76q0 19 -70 41zM389 314l106 101q-20 -44 -106 -101zM521 389l-22 -32q10 8 22 32zM398 77
l35 21t28 26l-38 -20q-28 -15 -25 -27zM209 107q-6 -5 -16.5 -19.5t-6.5 -19.5q8 9 23 39z" />
    <glyph glyph-name="s" unicode="s" horiz-adv-x="544" 
d="M418 604l9 3q-2 -4 -2 -7q0 -5 7.5 -11.5t9.5 -9.5q2 2 2 6q12 -13 78 -102l-12 12l6 -24l-7 1q-1 -7 -13.5 -18.5l-12.5 -11.5v0q3 1 15 7q-12 -8 -32 -28q-1 5 -5 5q-6 0 -17.5 -11t-14.5 -12q-3 6 -9 6q-22 0 -41 -26l25 -54q5 0 6 -4q2 -3 0 -7q11 -23 11 -41
q0 -21 -22 -61l2 -14l-38 -57q0 7 -4 7q-7 0 -18 -14t-11 -21q0 -1 1 -2q-13 -14 -59.5 -40.5t-76.5 -58.5q-4 3 -10 3q-7 0 -24 -11.5t-26 -11.5q-7 0 -12 4q-2 8 -15 20.5t-13 22.5q-6 1 -12.5 11t-12.5 11l-26 42q6 9 19 15q10 4 10 5q0 2 -23 12q8 1 16 4q-5 1 -28 8
q0 6 -6 19.5t-6 20.5q0 5 2 9q10 18 79 77q-7 -10 -7 -11v-1q1 0 14.5 11.5t20.5 12.5q-6 -11 -6 -16q0 -2 2 -2q7 0 33 29l-3 9l6 4q-4 7 -8 15q-1 -1 -4 -10q-10 12 -36 65l3 1l11 -19l2 2l-12 30q4 7 18.5 12.5t19.5 9.5l-14 9l-5 -6l-7 14q25 50 60 80l-4 -8
q7 -1 17 4.5t15 5.5q3 0 6 -2l4 8q-19 1 -19 10q0 3 11 28q8 3 33 31l3 -2q1 0 17 14t24 14q6 0 8 -7q25 4 33 15t10 11q8 0 65 -34zM366 624q-4 -8 -7 -15q0 -2 -6 2q-28 -21 -60 -49q13 -7 36 -13q19 -4 19 -6q0 -5 -83 -23q-16 -20 -44 -61q49 1 49 -3q0 -3 -23 -14
q-28 -15 -45 -28q2 -10 16 -38l21 -38q7 -3 11 -13q6 -13 9 -16q31 5 41 5q16 0 21 -14l-13 -9q-2 -7 -13.5 -10t-13.5 -8q-7 -15 -26 -47q4 -3 4 -8q0 -12 -20 -27t-33 -11q-11 33 -42 93l-67 -63l11 -32q20 -6 46 -9q18 -2 18 -5t-46 -28q-1 -19 29 -51q38 -41 40 -45
q30 17 85 57q1 5 27 27.5t32 22.5q59 60 59 117q0 43 -32 88l3 -19q-9 10 -20.5 33.5t-20.5 33.5q0 6 -8 16t-7 12q1 5 4 5q6 0 12 -8q4 11 20 27.5t20 26.5q10 7 15 7q6 0 17 -16q17 -26 37 -46q0 1 44 35q15 12 15 20q0 9 -30 53q0 5 -7.5 9.5t-5.5 10.5q-28 31 -40 42
q-24 22 -48 30zM236 474q0 1 25 34q-3 -16 -25 -34zM313 438q34 27 65 63q-9 8 -13 8t-14 -19q-15 -28 -38 -52zM211 410q0 -8 21 -42t29 -42q-9 23 -19 46q-12 27 -31 38zM31 152q-11 13 -10 23q1 -4 6 -9.5t5 -9.5q0 -2 -1 -4zM146 125q39 -71 53 -71q8 0 27 17
q34 30 51 43q-5 6 -11 1l-54 -42q-5 -5 -18 -9zM202 254q6 11 5 12v0q2 1 5 4l8 -4q3 -1 -2 -4q8 1 19 10l-41 5z" />
    <glyph glyph-name="t" unicode="t" horiz-adv-x="623" 
d="M430 627q-12 1 -43 8q-27 5 -43 5q18 1 44 -4q21 -4 42 -9zM276 631q38 -7 140 -10q89 -2 140 -19l-2 -4q27 -11 35 -11q7 0 13 3q0 -11 -12 -33q5 -9 5 -11q0 -1 -6 -9q-9 -10 -18 -28q3 0 3 -1t-10 -13.5t-12 -22.5l-2 14q-5 -8 -11 -16q-1 -2 -10 -2l7 -6
q-13 0 -26 -1q-17 -1 -17 -11l-5 8q-7 -16 -20 -14v0l8 -5q-8 2 -13 2q-10 0 -14 -9t-9 -19q5 23 1 24q-25 -82 -70 -154l4 -1q-23 -34 -58 -101q14 11 14 14q0 -1 11 -1q-19 -19 -40 -56q-26 -45 -36 -58q7 26 14 39q-12 -13 -30 -39q-22 -31 -22 -40q0 -4 5 -2
q-2 -7 -5 -14q-3 7 -9 4l-9 -5q-3 0 -4 7q-17 5 -16 5q-1 0 -7 -10l-8 6l-15 -19v0l13 4l-19 -16q-3 4 -19 10.5t-16 1.5q0 -3 3 -8q0 1 -87 53q2 14 -1 13q-3 -2 -12 -6q11 15 29 50l3 -4q-2 -5 -2 -7q0 -7 16 2q12 7 24 13q-2 3 -18 6q-12 3 -10 14q7 -2 14 5t7 11
q0 1 -1 1q-3 0 -11 -6q13 23 48 103q4 -7 15 -7q22 0 38 15q-38 11 -38 26q0 5 4 10l-5 5q16 29 42 89q41 12 41 15t-38 -1l12 24q-28 15 -139 15l35 78q5 -3 27 4l28 10q-39 -1 -39 14q0 8 11.5 24t10.5 20l35 8q26 7 24 15q56 19 99 19q10 0 16 -3zM212 605q1 -17 -13 -31
q20 1 33.5 4t12.5 3q3 0 9 -9l-85 -34q7 -7 -2 -42q-18 0 -22 -20q58 7 126 -8q3 -3 3 -7t-5 -12.5t-5 -12.5q46 14 46 4q0 -2 -6 -7l14 -2q-2 -2 -11 -9q4 -5 -22 -13q-31 -11 -34 -16q-12 -30 -38 -86q32 -5 67 -18l-84 -37q-16 -31 -43 -92q2 -1 20 -4q12 -3 20 -2l5 -6
q-15 -11 -77 -31l-7 -27l48.5 -27t48.5 -21l33 47l-8 1q29 38 102 175q77 143 78 169q2 -2 4 -2q10 0 10 21q0 15 -11 19q6 8 48 12q35 3 54 2q-6 -6 -19 -7h-21h41q12 16 53 104q-37 8 -129 18q-105 12 -169 12q-52 0 -65 -8zM331 600q47 0 139 -13q-11 3 -29 -1
q-70 3 -156 -1q12 4 12 6q0 1 -12 7q7 1 26.5 -2.5t23.5 -3.5q3 0 3 1q-1 2 -7 7zM382 379q-5 -36 -46 -88l38 90q21 51 31 93q2 -20 -7 -48zM266 387q-9 -43 -34 -67q-3 13 11 37q12 20 23 30zM315 249q-4 -11 -16 -26q6 21 16 26z" />
    <glyph glyph-name="u" unicode="u" horiz-adv-x="677" 
d="M380 590q0 -6 -1 -15q0 -1 4 -1q-6 -26 -6 -25v0q3 4 15 23q-5 -18 -5 -37q0 -4 -10 -4q-18 -36 -18 -45q0 -2 1 -2q4 0 17 16l-26 -68l-5 1l-43 -93q-1 0 -6 7q-18 -25 -18 -37q0 -2 1 -2q2 0 10 8q-12 -35 -32 -44q-2 -4 -2 -8q0 -14 36 -21l42 40q24 24 34 44
q6 3 19.5 4t13.5 2q0 2 -24 9q10 10 10 15q0 1 -2 1t-8 -2q3 12 16.5 36.5t16.5 38.5q18 4 39 34q5 -1 6 1q-25 15 -25 18l1 8t1 16l-8 -15l21 94q2 2 4 2q3 0 6.5 -4.5t6.5 -4.5q1 0 3 1l-6 13l27 -4q0 10 4 19t12 7q6 -5 7 -5q3 0 -3 11q21 -2 64 -16q6 -4 40 -19.5
t38 -16.5q-12 -5 -32 7q13 -9 24 -22q2 -3 13 -3q-5 -101 -88 -221l6 22q-9 -18 -18 -28t-9 -11t7 -5q-43 -99 -107 -174v-6q-84 -98 -106 -98q-3 0 -6 2q-6 -3 -14.5 -12.5t-14.5 -11.5l4 11q-5 -1 -10.5 -10t-10.5 -9q-3 0 -8 3l-8 -4l-40 8q-24 5 -37 16l-12 -3
q-50 17 -138 97q10 -3 10 9q0 11 -7.5 24.5t-16.5 13.5q-3 0 -5 -2q18 20 37.5 84t36.5 84v-8q3 4 10 4h8q5 -1 7 -1q11 0 10 12q-20 8 -20 10q0 -6 9 26q-2 3 -4 5q0 -3 -6 -17q-5 13 14.5 65t31.5 65l-1 -9q4 5 18.5 9.5t17.5 10.5q-16 12 -22 37l-5 2q1 7 12 34
q8 20 6 34q27 -8 35 -8q10 0 12 9q2 5 3 29q1 0 64 -14.5t82 -35.5zM249 617l-15 -62l38 -14.5t19 -12.5q0 -11 -68 -22q-1 -7 -40 -127q9 -6 29 -7.5t20 -3.5q0 -3 -20 -15q18 3 16 3q-4 -2 -24 -10q-2 -6 -13.5 -7.5t-21.5 -2.5q1 6 -6 6q-9 0 -9 -4q1 -3 5 -4
q-22 -50 -74 -147q-1 -14 11 -22q42 -29 78 -61q11 0 34 -18q-5 -2 -5 -4q0 -9 33 -8q23 -19 94 -30q63 47 186 233l-16 -11l64 103q4 17 43 89q30 56 26 93q-2 14 -61 35q-53 20 -61 19l-24 -88q9 -10 31.5 -12.5t30.5 -8.5q-59 -6 -104 -117q5 -4 20.5 -4t20.5 -7
q-7 -8 -28 -13t-28 -13q11 3 35 7l-6 -8q-3 1 -6 1q-4 0 -14 -4.5t-15 -3.5q-14 -13 -48 -60q-29 -40 -50 -57q-4 -3 -9 -3q-7 0 -22 6.5t-20 6.5q-4 5 -24 14q-16 7 -14 21q4 -1 10 4.5t6 9.5q0 3 -5 3l99 208q-2 3 8 46.5t13 48.5q-28 13 -57 25q-34 13 -62 10z" />
    <glyph glyph-name="v" unicode="v" horiz-adv-x="546" 
d="M223 636l-2 -1l65 -30q-8 -1 -8 -4q0 -4 10 -4q8 0 11 7q1 -2 0 -17q-1 -9 9 -11q0 -6 -1.5 -11t-0.5 -6l6 1q-3 -23 -3 -28q1 -7 8 0l-1 -20q10 14 14 41l8 43q15 1 9 11l41 -21q4 16 20 44q11 -4 23 -9t14 -16l12 -1q1 -2 31 -28q19 -17 27 -32q-9 -4 -9 -5q0 6 18 -25
q-35 -86 -112 -260q-9 -1 -15.5 -14t-13.5 -16l-35 -53q12 6 40 43q-12 -31 -81 -112t-80 -79q6 13 -14 13q-5 0 -5 -2q0 -3 9 -8l-14 3q-14 -17 -37 -29q2 6 -3.5 10.5t-10.5 4.5t-5 -3q0 -4 7 -11l-56 25l-3 6q-37 16 -73 60q11 14 0 20q2 10 16 41q12 26 11 43
q15 9 45 25q-13 4 -21 18.5t-7 14.5q-1 7 -1 14q0 22 19 74q45 15 45 16q0 -1 -15 3q-18 4 -30 15q0 11 4 33t4 34q0 9 -2 17q2 4 2 6t-2 7.5t-2 11.5t2 14l1 1l4 -24q-4 18 16 32q2 2 33 19q-15 0 -41 9v15q0 13 -3 13q-1 0 -5 -2q-3 6 -2.5 20t-1.5 20q10 -2 14 3t8 12
q3 -1 20 1q12 1 19 -5q0 13 4 13q2 -1 5 -4l16 18l2 -4q13 6 22 5q11 -2 22 -5zM177 625q1 -21 0 -62q26 8 21 8q2 0 10 -8q21 0 28 -8q-7 -3 -22 -12q-2 -10 -14 -15l-19 -10v-13q13 9 26 17v0q-2 -3 -18 -21q-11 -65 -13 -66q0 8 -1 29q-6 -11 -6 -22q0 -5 1 -11.5t1 -8.5
q0 -6 -7 -8q-1 -2 -1 -3q0 -12 55 -21q-3 -5 -13.5 -11t-13.5 -11q3 -6 -3.5 -11.5t-12.5 -5.5q-4 0 -4 3q-10 -15 -10 -34q-1 -25 -16 -61l9 1q7 -6 25 -4.5t25 -5.5q-54 -40 -73 -37q-1 -16 -11.5 -47t-11.5 -48l31 -31q7 -1 44.5 -22.5t38.5 -24.5q7 8 18 16t11 10t-7 5
q65 35 151 205q18 36 107 237q2 5 2 8q0 6 -9 12.5t-7 15.5q-7 15 -17 14q-7 19 -49 40q-16 -74 -73 -213q-7 0 27 2q17 1 23 -9l-18 -10q-3 -11 -16 -15q-16 -5 -17 -6.5l-49 -71.5q-35 -52 -55 -47q11 31 33 162q14 124 14 147q0 22 -2 42l-5 6q-17 3 -51.5 18t-55.5 17z
M273 448q-2 34 0 73h-1q3 10 2 28q-3 26 -3 28q9 -9 9 -46q0 -12 -7 -83zM466 439q2 16 20 54q-4 -20 -20 -54zM326 176q-7 1 -18 -15q-13 -20 -18 -24q16 31 51 90q7 17 15 33q9 20 21 25q-14 -40 -51 -109zM141 187q1 -10 -8 -29t-9 -26q0 -19 37 -27q-9 -5 -12 -5
q-2 0 -6 4t-12 6q1 -6 -1 -6t-7 7t-6 7q0 13 8 41t16 28z" />
    <glyph glyph-name="w" unicode="w" horiz-adv-x="738" 
d="M693 455q3 -2 3 -10q0 -29 -38 -117q-35 -80 -52 -104l-5 7q-17 -23 -44 -73q2 0 2 -3q0 -13 -21 -48q-53 -91 -100 -91q-11 0 -21 6l-6 -13q-3 -1 -8 -1q-17 0 -60 17q-48 19 -60 21l21 9q-2 5 -17 7t-15 10l-40 -49l-30 17q-10 -15 -33 -40q0 17 -24 17q-12 0 -18 -6
q-16 6 -51 35q-27 23 -57 23l20 64q16 -8 53 1l-32 13q7 29 19 114q9 68 11 62l4 -16q10 25 9 68q0 52 3 70q62 9 62 18q0 2 -2 5q-49 9 -49 42q0 8 4.5 41t4.5 58q7 -5 16 -5q24 0 60 36q111 -5 157 -42l-19 -3q15 -10 15 -58q0 -33 -6 -71q2 3 27 17q19 10 18 20
q21 -3 62 -18q13 -39 18 -70q20 16 26 28q-18 -2 -18 25q0 35 26 103q47 0 47 5q0 2 -14 5q3 5 21 7q15 2 14 18q10 0 25.5 -5t22.5 -6l-21 11q4 2 9 2q16 0 49 -23l43 -32q11 -7 11 -23q0 -15 -10 -40zM279 627q-22 5 -24 5q-4 -1 -11 -3l29 -8zM695 543q-28 16 -110 52
l-26 -111q52 -12 52 -9q0 1 -18 -9q-25 -12 -50 -33l-18 -54q7 -5 18 -5q4 0 12 1h12q13 0 20 -7q-13 -1 -33.5 -13t-30.5 -14l-33 -43l7 -4l-39 -36q-7 10 -9 50q-1 34 1 52l14 -3q-3 32 -13 96q-5 3 -18 22q-10 14 -23 12q-2 -10 -56 -78q-56 -72 -69 -99q-5 10 -5 28
q0 63 28 110q-7 -7 -11 -7q-5 0 2 18l21 54q7 25 7 77q-19 2 -57.5 17.5t-60.5 17.5l-9 -113q12 1 33.5 -5.5t29.5 -14.5q-10 -12 -33 -19q-27 -9 -35 -14q-3 -57 -23 -138l-34 -136q71 -12 77 -24q-6 -3 -54 -7q-41 -4 -46 -12q17 -2 17 -8q0 -5 -12 -15.5t-14 -15.5
q10 -4 58 -32q36 -21 61 -28l23 23q-5 -1 -8 -1q-5 0 7 18q106 160 125 160q2 0 2 -4q4 -37 -25 -148q9 -15 54 -23q51 -10 66 -21q20 19 58 76l-5 1l102 185q51 99 71 234zM656 457q-11 -44 -25 -71q0 -2 -5 -20q-3 -12 -10 -16q-4 -23 -33 -80q8 39 32 95zM239 606
q0 -6 -5.5 -6.5t-10.5 -1.5q1 -24 -7 -69q-2 2 -1 38q0 36 4 40q2 2 20 -1zM386 169q-2 -38 -11 -59q0 16 11 59zM198 396q2 -22 -8 -78q-11 -60 -21 -73q2 26 11 75q10 56 18 76zM329 244q-4 -31 -31 -73q-43 -68 -43 -69q-3 1 -6 1q-5 0 -10.5 -10t-13.5 -10
q37 53 104 161zM165 221l-1 -14q-5 1 -3 6zM211 85q-5 -3 -13 0q-9 4 -9 10q11 0 22 -10zM165 135q-1 -3 -9 -3t-10 2q1 1 19 1z" />
    <glyph glyph-name="x" unicode="x" horiz-adv-x="628" 
d="M591 570q6 -17 17 -14q-5 -8 -9 -17q-8 -16 -8 -20q0 -1 1 -1q2 0 9 7q-2 -18 -28 -57q-24 -35 -20 -49q-9 -17 -32 -45q2 9 2 13q0 11 -23 -31q-30 -52 -41 -62q4 -6 14.5 -12.5t22.5 -23.5q-8 3 -11 3t-3 -2q0 -7 61 -59q58 -51 53 -54q-9 -15 -9 -14q1 -2 3 -2t9 3
q-1 -7 -11 -17.5t-10 -18.5l-36 -33q-22 -19 -42 -21q-5 1 -11 1q-10 0 -33 -9t-39 -9q-17 0 -36 9q2 8 -10 11q-16 4 -23 14q10 7 25 32q-13 -3 -21 -10.5t-12 -7.5q-9 0 -45 30l-81 -65q-38 -29 -69 -29t-72 25l-1 -5q-14 12 -28 33q-23 34 -24 35q8 -3 15.5 -15.5
t13.5 -15.5q-24 27 -20 46q5 -2 9 -2q6 0 13 4l14 9q3 -5 6 -5t13 9t14 6q-11 5 -11 14q0 18 33 38q1 5 -3 5q-5 0 -21 -14q-9 -8 -17 -16q9 11 28 30t27 29q1 -14 4 -14q2 0 13.5 20.5t23.5 28.5q-21 39 -43 96q0 1 9 7t9 8q-1 2 -6 2q38 22 38 26q-1 1 -2 1q-2 0 -17 -3.5
t-23 -3.5q-9 0 -12 3q6 5 6 11q0 18 -26 36q2 12 -8.5 32t-9.5 33l16 -23l-7 35q8 -5 32 28t38 35.5t20.5 13t13.5 13.5q2 -2 5 -2q5 0 16 6.5t15 6.5q5 0 6 -7q9 7 28 13q16 4 25 17q9 -14 16 -41q8 -31 12 -42q-3 -7 -3 -30q1 -24 8 -24q2 0 5 3l5 -22q-3 6 -8 12v-1
q0 4 10 -34q6 3 21 5.5t15 3.5q-2 2 -21 4q12 4 12 9t-14 8q11 10 45 67q32 52 35 52q15 -1 15 1t-10 8q8 -2 15 -2q12 0 24 8t19 6q6 -2 9 -2q2 0 -5 12q23 -6 54 -26q38 -25 34 -44zM469 558q5 -4 5 -8t-14 -13.5t-19 -18.5q3 -10 17 -10q6 0 15.5 1.5t12.5 1.5q8 0 5 -6
l-44 -14q-49 -22 -92 -80q-7 2 -8 15t-9 15q-19 33 -30 85l-18 89l-105 -67q-4 -13 -4 -27q0 -16 7 -43q8 -33 10 -43l82 -10q-7 -14 -31 -30.5t-31 -26.5q0 -10 14.5 -29.5t14.5 -29.5q0 -5 -3 -10q0 -14 3.5 -15t7 -1.5t4.5 -11.5q-50 -60 -77 -75q-19 -10 -28 -27
q18 0 35 -1q27 -2 30 -9q-67 -33 -115 -39q5 -5 34 -43q20 -27 40 -37q13 7 13 16q0 2 -1 4l52 32q-5 0 -5 3q0 8 45 44l56 42q2 -3 29 -28q22 -20 18 -25q25 5 74 11q3 -11 -9 -22q-15 -14 -17 -19q1 -1 28 -25q19 -18 33 -18q4 0 7 2q8 10 48 41q30 24 30 41q0 18 -31 39
q-11 -6 -62.5 47t-52.5 69q21 8 76 113l69 134q3 6 3 13q0 19 -27 40t-46 24q-7 0 -21 -26zM300 505l-22 48q-8 15 -15 15q-6 0 -22 -10q-29 -18 -42 -25q65 58 77 58q7 0 10 -26q4 -37 14 -60zM391 413q-1 2 -1 4q0 7 11.5 20t22.5 27q2 -9 -11 -26zM408 304q18 17 45 63
q26 43 47 61q-12 -25 -42 -70q-37 -53 -50 -54zM120 405q-1 -2 -3 -2q-3 0 -5.5 6.5t-1.5 9.5q4 -1 5.5 -7t4.5 -7zM506 350q-7 -32 -26 -39q15 28 26 39zM201 232q26 13 30.5 21.5t8.5 19.5zM190 174q15 26 77 96l-47 -77q-12 -19 -30 -19zM545 151q-19 -2 -26 30l18 -13.5
t8 -16.5zM515 97q-2 2 1.5 7t1.5 6q2 7 31 39q2 -2 2 -5q0 -10 -36 -47zM250 120q0 -4 -6 -8.5t-7 -6.5q0 7 13 15zM115 0q-16 0 -21 4t-11 10q13 -5 32 -14z" />
    <glyph glyph-name="y" unicode="y" horiz-adv-x="554" 
d="M266 463l9 16l3 -8q8 4 19 7q2 0 2 6l-13 -3q3 5 14 7.5t14 8.5q-8 4 -8 12q0 4 3 11.5t3 11.5q-7 -1 -8 9q-1 9 3 14q2 -5 3 -10q1 0 6 4q0 25 21 65l4 -14q5 10 23 6q4 12 16 34l2 -15q3 7 11 7q9 0 32 -13q2 3 1 4q-7 4 -12 8q14 0 32.5 -20.5t33.5 -16.5
q-14 10 -41 33l54 -28q34 -19 44 -40l-9 3q-13 -21 -24 -53q-9 -28 -19 -55l11 15q-8 -35 -25 -74l1 24q-14 -10 -14 -17q0 -3 5 -8q-21 -36 -52 -106l11 7q-2 -6 -44 -62q-39 -52 -39 -65q0 -6 9 -4q-17 -26 -57 -74q9 20 48 65q-5 -1 -9 -2h-2q1 4 3 8q-9 -9 -53 -69
q-32 -44 -68 -67q-4 3 -8 3q-23 0 -35 -28q-35 7 -73 23q-47 19 -63 38q0 3 2.5 5t2.5 3q0 2 -19 8q34 28 59 54q33 6 56 61q-8 0 -10 -4q-7 -11 -20 -24l28 65q18 38 43 38l-6 9l-3 -6q-54 54 -55 78q10 4 23 16q-11 0 -33 4q-4 1 -9 7.5t-9 6.5q-3 0 -7 -4q-22 36 -38 89
q31 15 34 24q-3 4 -8 4q-3 0 -7.5 -1t-6.5 -1q-8 0 -11 8h-13q-2 21 -1 64l8 -14l29 18l-14 -4q-1 7 10.5 12t8.5 13q1 -7 5 -7q11 0 23 17l91 40q-12 -16 82 -177zM389 627q-7 -29 -28 -85q19 -9 31 0q3 -1 24 -1q15 -1 22 -9q-3 -4 -53.5 -21.5t-57.5 -17.5l6 -5l-31 -71
l-20 -11q-9 11 -7 13q-67 87 -73 114l3 3l-15 43q-12 32 -22 37l-83 -47q4 -5 6.5 -17t7.5 -16q60 -2 60 -8q0 -5 -36 -20q-27 -12 -24 -19l22 -54q19 -35 42 -29q34 9 50 0q-8 -4 -19.5 -20t-21.5 -20q22 -25 61 -78q-24 -53 -66 -104q43 0 43 -4q0 -2 -10 -8t-15.5 -11.5
t-27.5 -9.5q-25 -6 -37 -12q-21 -12 -33 -39q20 -14 58 -35q48 -25 59 -20q44 21 160 215q124 207 132 307q-8 12 -50 32zM259 426q-7 6 -27 41q22 -20 27 -41zM438 458q-25 -48 -64 -142v-7q34 45 64 149zM290 176q-44 -59 -90 -103q8 -2 17.5 9.5t16.5 10.5q36 41 56 83z
" />
    <glyph glyph-name="z" unicode="z" horiz-adv-x="587" 
d="M500 628q7 -5 12 -5q6 0 7 9q12 -12 20.5 -43.5t17.5 -44.5q0 -1 -1 -13.5t-1 -18.5q2 -8 8 -6q4 -23 -26 -53.5t-26 -50.5q1 -1 1 -2q0 -5 -21 -25t-23 -23l9 2q-9 -17 -73 -94q-60 -72 -60 -80q54 11 79 10l-5 -6q23 0 49 10.5t50 21.5q8 -6 12 -26.5t14 -26.5
q7 -29 7 -43q0 -5 -1 -5q-3 0 -8 11l-4 7q-6 -24 7 -26q-10 -4 -30.5 -24t-32.5 -22q-38 -6 -146 -37q-90 -26 -147 -26q-18 0 -37 2l12 6l-77 34q-49 29 -50 76h-13q6 16 20.5 30t29.5 27q6 -4 15 -4q14 0 31 12l-10 1q11 12 17.5 32t15.5 28q9 -5 24 19l18 32
q-11 -15 -35 -41q10 12 22 41l34 51q26 38 37 40l44 7q0 2 -34 5q2 4 2 7q0 4 -4.5 5.5t-5.5 2.5q3 10 16.5 24t13.5 16q0 3 -8 3q-11 0 -41 -5q-38 6 -74 0l44 -4h-82q-48 -1 -81 -12q8 7 8 13q0 8 -14 7q1 4 12 36q3 -7 7 -7t8 17q3 12 5 23q32 7 47 14v0q20 8 10 12
q-11 4 -40 0l-12 -6l19 53q21 3 42 5q17 3 18 19q15 4 81 9.5t104 5.5q21 0 25 -2q8 0 42 3.5t53 3.5q37 0 53 -11zM147 574q70 4 70 -6q0 -6 -30 -21q-37 -17 -42 -21q-16 1 -22 -15.5l-12 -32.5q154 17 218 15q28 -1 28 -9q0 -2 -8 -4q0 -5 -20 -51q5 -1 16 -1
q10 0 29 1.5t23 1.5q3 0 3 -1q0 -2 -34 -14q-5 -11 -19 -13t-26 -3q-41 -62 -131 -180h66q2 -10 -34.5 -25.5t-60.5 -15.5q-7 0 -11 2q-4 -9 -18 -20.5t-18 -16.5q57 -97 158 -97q47 0 124 22q126 36 130 37q-6 8 -13 44q-6 32 -6 48q-34 -22 -91 -27q-94 -9 -97 -9
q-3 3 -3 6q0 7 14.5 23t13.5 24q16 2 103 134q84 129 95 160q-14 38 -48 110q-47 2 -88 2q-256 0 -259 -47zM384 606q52 -7 82 -3q13 1 17 -10t11 -11q-1 2 -7 12q-5 7 -3 12q-34 4 -100 0zM133 494q3 1 9 1q-2 4 1 9.5t3 7.5q-7 1 -9 -5.5zM301 511l-75 -2q-43 -2 -75 -10
q27 3 144 7zM517 508q-63 -78 -79 -130q-32 -21 -58 -93q3 0 26 29l-3 -14q13 17 39 59q-5 -4 -7 -4v1q0 6 30 53q37 59 41 66q-9 2 -9 3l7 8.5t13 21.5zM318 372l-61 -88q-11 -16 -7 -22q40 58 68 110zM376 156q-10 -5 -55 -15q15 -4 31 -4q32 0 66 13l-2 3q19 2 55 14
q-12 -1 -38 -7t-39 -6q-9 0 -18 2zM53 69q-10 14 -31 41q9 -4 17 -17t14 -24z" />
    <glyph glyph-name="Eacute" unicode="&#xc9;" 
 />
    <glyph glyph-name="ntilde" unicode="&#xf1;" horiz-adv-x="730" 
 />
    <glyph glyph-name="bullet" unicode="&#x2022;" horiz-adv-x="423" 
d="M345 459q18 2 42 -8l40 -18q2 -2 8.5 -5t6.5 -7q0 -2 -2 -6l13 -8q-7 -38 -23 -66q-8 2 -13 -16q3 -1 3 -6q0 -18 -47 -77q-45 -55 -79 -83q-8 -7 -29.5 -8t-29.5 -10q-8 1 -13 -2q-9 -6 -10 -6q-7 -2 -16 -2q-32 0 -84 19q-47 17 -72 34q-31 21 -31 93q0 60 18 71
q12 8 35 17q19 7 19 9q0 3 -31 5q4 3 4 5t-5.5 5t-5.5 6t2 5q63 88 165 88q18 0 37 -4l51 -8q29 -6 47 -17zM276 466q-54 -24 -95 -71q12 -5 33 -18q-6 -13 -20 -13q-6 0 -19 3t-20 2q-2 -11 -10 -13q-1 -29 -26.5 -59t-25.5 -40q0 -26 82 -65l88 -31q49 38 103 115
q61 86 61 137q-58 40 -151 53zM406 413q-17 7 -51 25q20 -3 51 -25zM424 405q-2 -18 -13 -41l-20 -39q6 31 33 80zM227 341q6 10 23 25q-7 -8 -23 -25zM227 230q-37 26 -37 42q0 6 9.5 22t6.5 31q5 4 20 26q12 17 24 21l2 -6q21 35 47 34q3 -5 15 -10t13 -10t1 -9
q0 -32 -37.5 -82.5t-63.5 -58.5zM265 361q-6 -10 -23 -28q-14 -24 -36 -74q29 11 31 38q1 14 13.5 33.5t14.5 30.5zM304 207q-9 -15 -39 -33q10 16 39 33z" />
    <glyph glyph-name="quotedblleft" unicode="&#x201c;" horiz-adv-x="531" 
d="M403 575q-3 6 -5.5 12t-0.5 5q10 -1 6 -17zM198 563q-3 5 -11 16q5 0 11 -16zM203 713q-3 -1 -3 -3q0 -5 10.5 -17t15.5 -14l6.5 -26t13.5 -20q10 -39 38 -97q44 -94 44 -95q0 4 -2 4q-6 0 -5 -11q-20 -22 -65 -29q-1 -9 -11 -9q-16 -1 -17 -2q-25 12 -43 49
q-22 45 -35 57q4 -1 4 2q0 8 -28 36q3 11 12 28q7 14 7 18t-5 4q-9 0 -44 -15l-42 60q-23 36 -32 65q8 11 33 29q-1 2 -1 4q0 13 46 30q43 17 54 15l-2 5q19 -22 51 -68zM115 757l-49 -27q1 -1 25 -28q-4 -8 7 -19q15 -14 16 -16q1 1 3 1q1 0 12 -10q1 0 1 1q-1 2 -2 8
q1 2 2 2t3 -2t3 -2t2 2q0 -10 10 -9q14 0 17 -2q-11 -12 -11 -14q8 -2 21.5 -27t10.5 -33q-11 8 -22 26q-12 22 -19 29q25 -37 65 -116q14 -11 23 -35q14 -35 17 -39q5 0 26 9q3 13 -12 54q1 1 2 1t10 -11q2 11 -13 25.5t-17 21.5q-24 77 -34 103q-21 54 -51 96
q-9 13 -19 13q-6 0 -14.5 -5.5t-11.5 -5.5q-2 0 -4 2q-4 3 3 7zM303 445q-8 6 -22 48q6 -4 14 -22.5t8 -25.5zM426 723q-1 -5 3 -12q5 -10 6 -13q9 -8 12.5 -32t13.5 -33l32 -109l-2 -2q2 -9 17 -39q12 -24 11 -42l-5 -3v-4q-32 -25 -69 -23q-2 -8 -19 -7q-16 0 -20 7l-8 6
q-1 3 -23 50t-27 52q4 4 -19 39q20 54 20 47l-1 1q2 0 -13 -4t-32 -4q-39 60 -60 130q13 15 37 25q-3 2 -3 4q0 9 43 21q33 8 61 12l1 7q13 -19 44 -74zM373 779q-5 -6 -16 -7q-14 -1 -18 -3q-6 2 2 5q-16 -7 -49 -17q1 -5 9.5 -15.5t8.5 -16.5q0 -4 -2 -7l23 -30q7 0 8 -1
l4 -10l2 2q-2 5 -1 7q1 1 6 0h4q0 -10 12.5 -10.5t15.5 -3.5l-14 -11q30 -48 30 -59q0 -4 -2 -6q-10 10 -20 28q-9 15 -17 31l-2 -2q0 -1 32 -63q19 -38 26 -66q12 -11 22 -35q12 -29 17 -37q3 2 18 4q12 2 14 10q-5 17 -13 49q4 4 10 -10l8 -18q-1 6 -6 17t-5 18
q-16 11 -42 102q-29 105 -65 155zM507 447q-7 7 -9 21q4 -7 9 -21z" />
    <glyph glyph-name="quotedblright" unicode="&#x201d;" horiz-adv-x="486" 
d="M331 567q2 6 5 12t3 4q0 -1 -1.5 -5.5t-6.5 -10.5zM116 554q2 6 4 19q3 -4 -4 -19zM218 616q-25 -39 -64 -150q-32 -92 -41 -90q-31 -2 -68 25q-3 -2 -5 -2q-5 0 -12 6.5t-10 7.5q-5 13 -5 26q0 17 12.5 51t12.5 53q10 5 10 45q9 4 32 12q15 5 15 9q0 7 -43 25
q6 35 13 71q8 42 23 69q13 2 43 -3q-1 7 9 7q16 0 55 -18q36 -18 42 -23t6 -13q0 -9 -14.5 -41.5t-14.5 -48.5q0 -10 4 -18zM195 749l-54 17q0 -2 -2 -38q-8 -3 -8 -18q0 -21 -1 -23q4 0 5 -17q7 8 6 8q1 0 2.5 -4.5t3.5 -3.5q-3 -4 -3 -7t7 -9.5t8 -9.5q-7 1 -18 -3
q2 -2 2 -7q0 -13 -7.5 -34t-14.5 -24q-2 13 4 35.5t6 31.5q-9 -43 -36 -128q2 -19 -4 -44q-7 -21 -13 -43q4 -4 25 -12q8 5 22 31q10 20 10 12q0 -4 -1 -12q9 7 9 27.5t3 27.5q23 43 41 106q23 78 33 101q2 8 2 13q0 12 -17 16t-18 9q3 1 8 2zM114 390q-1 4 3 11t4 11
q0 -8 -7 -22zM129 434q1 4 3 8v0v-2l-1 -3zM43 493l-5 -20zM440 632q1 -13 -14 -32.5t-13 -32.5l-55 -99h-2q-5 -9 -16 -41q-9 -25 -22 -37q-34 6 -38 8q-20 6 -35 23q-7 -4 -19 8t-9 20l-2 10q2 3 19.5 52t17.5 55q6 1 14 41q47 21 47 19q0 1 -10 7q-14 8 -27 21
q15 70 50 135q4 2 17 -4q17 -6 23 -6q10 0 14 7q41 -14 90 -52q-5 -63 -30 -102zM454 733q-8 -1 -16 6q-12 9 -15 10q2 1 5 2q-17 7 -48 23q-1 -3 -4 -22q-2 -15 -12 -17l-5 -37q6 -5 6 -6l-4 -10q13 -1 13 -2q-5 -5 -5 -9q0 -5 7.5 -10.5t7.5 -10.5q-6 1 -17 3q-2 -3 1 -4
q-6 -20 -20 -59l-7 -3q-1 14 5 34l10 33h-3l-22 -67q-13 -40 -28 -65q0 -16 -9 -39q-12 -30 -14 -39q4 -1 12.5 -8t13.5 -7q3 0 6 3q17 42 21 42q1 -1 1 -5q0 -7 -3 -26q3 12 17 32q-3 19 16 55l31 52q15 36 48 107q3 14 11 44zM313 403q0 9 9 21q-2 -7 -9 -21zM245 494
q2 6 8 18q-2 -6 -8 -18z" />
    <glyph glyph-name="quoteleft" unicode="&#x2018;" horiz-adv-x="332" 
d="M211 722q30 -86 32 -89.5t39 -117.5q-1 -3 11.5 -40.5t16.5 -45.5l-8 -2q-2 -6 -11.5 -12.5t-18.5 -11.5q-13 -5 -41 -6q-3 -8 -15 -7q-16 2 -18 2q-12 9 -39.5 60t-24.5 61q-9 12 -24 37l22 45q-10 2 -47 -5q-14 14 -39 68.5t-22 71.5q8 6 35 20q-2 3 -2 6q0 12 52 24
l57 12l4 -2q0 -1 41 -68zM156 779q-3 -9 -17 -8.5t-18 -3.5q-8 2 2 6q-3 -1 -51 -21q2 -6 10.5 -14t10.5 -14q-2 -4 -2 -7q0 -6 9 -16t10 -16q5 1 10.5 -4.5t7.5 -6.5l-2 9q3 3 7 0q5 -4 7 -3q0 -8 8.5 -9.5t15.5 -2.5q-7 -6 -11 -11q9 -15 30 -64l-4 -5q-11 7 -23.5 33
t-13.5 27q5 -22 29 -64.5t28 -68.5q13 -12 23 -36l17 -39q33 6 33 19q0 4 -5.5 19t-7.5 26q8 0 12 -11q5 -15 7 -17q-4 12 -11 37q-14 10 -48 119q-37 115 -63 147zM188 575v-3q0 -7 -2 0q-3 11 -5 12z" />
    <glyph glyph-name="quoteright" unicode="&#x2019;" horiz-adv-x="332" 
d="M285 663q-41 -82 -42 -86t-58 -109q-3 -2 -21.5 -37t-20.5 -43l-7 4q-6 -3 -19 0q-10 2 -19 4q-13 7 -33 26q-8 -3 -15 6q-10 13 -12 14q-2 15 16 70.5t27 60.5q3 14 10 43l48 15q-6 8 -37 30q1 20 22.5 76t35.5 66q11 -2 40 -12q1 7 8 7q15 0 55 -27.5l40 -27.5
q2 -6 2 -4q0 -1 -20 -76zM288 741q-9 -3 -18 7t-15 11q2 1 5 2q-2 2 -50 22q-3 -5 -3 -17t-3 -17q-10 -3 -11 -17q-2 -19 -5 -23q4 -3 4 -10.5t1 -10.5l5 8q4 0 5 -4q1 -7 2 -8q-3 -3 -3 -6q0 -4 5.5 -10.5t5.5 -8.5q-9 1 -15 0q-5 -17 -25 -66l-7 -1q-2 12 8 39.5t9 29.5
q-12 -19 -26 -68q-13 -45 -29 -66q0 -18 -9 -39.5t-18 -40.5q20 -15 28 -15t15 13q13 25 17 31q3 -3 3 -7t-5 -13t-5 -13q6 12 19 34q-2 17 53 117q57 106 62 147zM163 576l-2 -1q-2 -3 -3 -3v1l3.5 6.5t3.5 8.5z" />
    <glyph glyph-name="Ecircumflex" unicode="&#xca;" 
 />
    <glyph glyph-name="Edieresis" unicode="&#xcb;" 
 />
    <glyph glyph-name="Egrave" unicode="&#xc8;" 
 />
    <glyph glyph-name="minus" unicode="&#xad;" horiz-adv-x="754" 
d="M485 528q-16 -8 -16 -10t81 7q87 10 110 -9q-7 -6 5 -17q21 -85 28 -156q-3 -2 -2 -8q2 -7 2 -8q-1 -3 -7 -3q-3 5 -5 5q-3 0 -7 -3.5t-7 -3.5t-6 4q-3 -9 -1.5 -31.5t-5.5 -33.5l-3.5 7t-2.5 2q-2 -4 -4 -7q-26 10 -35 10q-10 0 -12 -8h-21q6 4 6 6q0 7 -32 6
q-30 0 -34 -3q-8 -6 -30 -6q-24 0 -72.5 8t-53.5 8q-10 2 -15 -2q2 -3 13 -8q-44 -4 -83 1q17 -2 18 1q2 2 -9 6t-24 4q-19 0 -31 -9q-13 4 -35 4q-16 0 -16 -5q0 -4 7 -9l-52 -6q15 3 15 10q0 2 -3 4q-21 -11 -28 -11q-8 0 -28 17q-9 26 -19 64q34 17 34 19l-41 7
q-2 2 -2 4t3 6t3 6q0 3 -4 5q0 8 8 30q7 2 7 5q0 5 -12 9q12 2 30 12q-4 8 -4 15q0 8 6 16t6 9q0 2 -8 4q11 14 64 16q73 3 74 3l-4 5q125 14 182 7q-3 4 3 5q30 5 70 0zM344 494q-34 3 -59 3q-31 0 -63 -7q-36 -8 -65 -9t-35 -3q-12 -5 -12 -23q0 -12 5 -35h14q-6 19 -6 30
q0 19 25 19h8.5h8.5q29 0 41 14q16 3 21 -3q-8 -3 -56 -17q-34 -9 -33 -13q-4 -18 -4 -27q0 -13 10 -13h25q-16 -6 -47 -21q6 -12 5.5 -24.5t10.5 -13.5q-2 0 24 1h87q55 0 83 11q20 -4 97 -4q80 0 93 5q9 -5 21 -3q20 -11 63 -11q48 -1 66 -7q0 37 -7 110q-5 -23 -8 -23
t-5 28q0 18 -1 36q-25 3 -79.5 1.5t-82.5 5.5q-11 -4 -34 -4q-12 0 -38 1t-37 1q-29 0 -36 -5zM525 384l-9 -9h1l4.5 1.5t7.5 1.5q6 0 7 -5q-22 -3 -81 -3q-66 1 -76 8q8 10 47 10q21 0 64 -3q33 -3 35 -1zM367 380q1 -1 1 -3q0 -3 -13 -3q-11 0 -15 1q2 8 27 5z" />
    <glyph glyph-name="minus" unicode="&#x2212;" horiz-adv-x="754" 
d="M485 528q-16 -8 -16 -10t81 7q87 10 110 -9q-7 -6 5 -17q21 -85 28 -156q-3 -2 -2 -8q2 -7 2 -8q-1 -3 -7 -3q-3 5 -5 5q-3 0 -7 -3.5t-7 -3.5t-6 4q-3 -9 -1.5 -31.5t-5.5 -33.5l-3.5 7t-2.5 2q-2 -4 -4 -7q-26 10 -35 10q-10 0 -12 -8h-21q6 4 6 6q0 7 -32 6
q-30 0 -34 -3q-8 -6 -30 -6q-24 0 -72.5 8t-53.5 8q-10 2 -15 -2q2 -3 13 -8q-44 -4 -83 1q17 -2 18 1q2 2 -9 6t-24 4q-19 0 -31 -9q-13 4 -35 4q-16 0 -16 -5q0 -4 7 -9l-52 -6q15 3 15 10q0 2 -3 4q-21 -11 -28 -11q-8 0 -28 17q-9 26 -19 64q34 17 34 19l-41 7
q-2 2 -2 4t3 6t3 6q0 3 -4 5q0 8 8 30q7 2 7 5q0 5 -12 9q12 2 30 12q-4 8 -4 15q0 8 6 16t6 9q0 2 -8 4q11 14 64 16q73 3 74 3l-4 5q125 14 182 7q-3 4 3 5q30 5 70 0zM344 494q-34 3 -59 3q-31 0 -63 -7q-36 -8 -65 -9t-35 -3q-12 -5 -12 -23q0 -12 5 -35h14q-6 19 -6 30
q0 19 25 19h8.5h8.5q29 0 41 14q16 3 21 -3q-8 -3 -56 -17q-34 -9 -33 -13q-4 -18 -4 -27q0 -13 10 -13h25q-16 -6 -47 -21q6 -12 5.5 -24.5t10.5 -13.5q-2 0 24 1h87q55 0 83 11q20 -4 97 -4q80 0 93 5q9 -5 21 -3q20 -11 63 -11q48 -1 66 -7q0 37 -7 110q-5 -23 -8 -23
t-5 28q0 18 -1 36q-25 3 -79.5 1.5t-82.5 5.5q-11 -4 -34 -4q-12 0 -38 1t-37 1q-29 0 -36 -5zM525 384l-9 -9h1l4.5 1.5t7.5 1.5q6 0 7 -5q-22 -3 -81 -3q-66 1 -76 8q8 10 47 10q21 0 64 -3q33 -3 35 -1zM367 380q1 -1 1 -3q0 -3 -13 -3q-11 0 -15 1q2 8 27 5z" />
    </font>
</defs>
</svg>
